/* XPM */
static char *_91af6c7c5974e068ef9d27c2ea27fb1HfkIqCw3YaqJvA1L[] = {
/* columns rows colors chars-per-pixel */
"50 50 189 2 ",
"   c #070D0F",
".  c #0E0B0D",
"X  c #18060D",
"o  c #130B0D",
"O  c #0D0D12",
"+  c #080F15",
"@  c #1B0510",
"#  c #140B11",
"$  c #1B0B14",
"%  c #130C18",
"&  c #1B0C1C",
"*  c #051216",
"=  c #0B1215",
"-  c #06161B",
";  c #0B141B",
":  c #09191F",
">  c #111216",
",  c #1C1515",
"<  c #131319",
"1  c #1A151A",
"2  c #16191D",
"3  c #1E1B1D",
"4  c #270D0D",
"5  c #2B0C0D",
"6  c #370B0F",
"7  c #2C1309",
"8  c #32130D",
"9  c #3D120C",
"0  c #290715",
"q  c #240A13",
"w  c #2B0C14",
"e  c #250619",
"r  c #2D071A",
"t  c #240B1B",
"y  c #2C0A1A",
"u  c #350A14",
"i  c #3B0C13",
"p  c #350D1A",
"a  c #380E19",
"s  c #22141B",
"d  c #2A1A18",
"f  c #3C1313",
"g  c #381813",
"h  c #26201F",
"j  c #2C211E",
"k  c #39231A",
"l  c #1C0E22",
"z  c #0C1523",
"x  c #061B24",
"c  c #0B1B24",
"v  c #0E1729",
"b  c #061D2A",
"n  c #0B1B2B",
"m  c #121422",
"M  c #191125",
"N  c #131629",
"B  c #1C1229",
"V  c #11192D",
"C  c #051F30",
"Z  c #0A1F32",
"A  c #181B37",
"S  c #1A1B36",
"D  c #270B20",
"F  c #2C0B22",
"G  c #270F2B",
"H  c #2A1326",
"J  c #24122B",
"K  c #3A1420",
"L  c #211531",
"P  c #0C2027",
"I  c #06222F",
"U  c #09222C",
"Y  c #062333",
"T  c #0A2533",
"R  c #0B2935",
"E  c #04253A",
"W  c #0A243C",
"Q  c #05283D",
"!  c #0D2C3B",
"~  c #102A34",
"^  c #12203C",
"/  c #112E3B",
"(  c #0E303E",
")  c #10303E",
"_  c #400E0E",
"`  c #4A1507",
"'  c #44120C",
"]  c #4A160B",
"[  c #441B0D",
"{  c #4C1B0C",
"}  c #541D06",
"|  c #531D09",
" . c #4A1B11",
".. c #4F210F",
"X. c #572107",
"o. c #54220C",
"O. c #5B250B",
"+. c #5C280E",
"@. c #442314",
"#. c #482818",
"$. c #522511",
"%. c #5B2B14",
"&. c #532C1A",
"*. c #5A311C",
"=. c #60270B",
"-. c #622A0E",
";. c #642D11",
":. c #682F13",
">. c #6D3316",
",. c #6D3518",
"<. c #68371E",
"1. c #703619",
"2. c #743A1C",
"3. c #793E1F",
"4. c #472D20",
"5. c #4E3428",
"6. c #5D3928",
"7. c #613B27",
"8. c #6C3C23",
"9. c #753E21",
"0. c #7A3F21",
"q. c #7D4122",
"w. c #754329",
"e. c #7D472C",
"r. c #6F4632",
"t. c #0F2440",
"y. c #052C44",
"u. c #0A2E41",
"i. c #0D3244",
"p. c #06304A",
"a. c #0A344A",
"s. c #0E384D",
"d. c #113444",
"f. c #123749",
"g. c #133A4D",
"h. c #174156",
"j. c #174359",
"k. c #18455C",
"l. c #1B4B64",
"z. c #1D4F69",
"x. c #1D526D",
"c. c #1F5572",
"v. c #205876",
"b. c #225D7B",
"n. c #834525",
"m. c #844729",
"M. c #864829",
"N. c #8B4C2C",
"B. c #8F502E",
"V. c #90502F",
"C. c #845034",
"Z. c #8D5233",
"A. c #945432",
"S. c #995735",
"D. c #975837",
"F. c #9A5936",
"G. c #9D5B39",
"H. c #A15E3B",
"J. c #A4613D",
"K. c #A76440",
"L. c #AA6642",
"P. c #AE6945",
"I. c #B26C47",
"U. c #B46E49",
"Y. c #B6704A",
"T. c #BB744E",
"R. c #BE7750",
"E. c #BF7852",
"W. c #C07750",
"Q. c #C27951",
"!. c #C37B53",
"~. c #C27B54",
"^. c #C67E56",
"/. c #C87F57",
"(. c #C67F58",
"). c #C78057",
"_. c #C88057",
"`. c #CA8159",
"'. c #CB835B",
"]. c #CC835B",
"[. c #CD855E",
"{. c #D28961",
"}. c #D28A62",
"|. c #D38A62",
" X c #266789",
".X c #26698C",
"XX c #286B8F",
"oX c #296F94",
"OX c #2C759D",
/* pixels */
"OXOXOXOXOXOXOXOXOXOXOXOXOXOXOXOXOXOXOXOXOXOXOXOXOXOXOXOXOXOXOXOXOXOXOXOXOXOXOXOXOXOXOXOXOXOXOXOXOXOX",
"OXOXOXOXOXOXOXOXOXOXOXOXOXOXOXOXOXOXOXOXOXOXOXOXOXOXOXOXOXOXOXOXOXOXOXOXOXOXOXOXOXOXOXOXOXOXOXOXOXOX",
"OXOXOXOXOXOXOXOXOXOXOXOXOXOXOXOXOXOXOXOXOXOXOXOXOXOXOXOXOXOXOXOXOXOXOXOXOXOXOXOXOXOXOXOXOXOXOXOXOXOX",
"OXOXOXOXOXOXOXOXOXOXOXOXOXOXOXOXOXOXOXOXOXOXOXOXOXOXOXOXOXOXOXOXOXOXOXOXOXOXOXOXOXOXOXOXOXOXOXOXOXOX",
"OXOXOXOXOXOXOXOXOXOXOXOXOXOXOXOXOXOXOXOXOXOXOXOXOXOXOXOXOXOXOXOXOXOXOXOXOXOXOXOXOXOXOXOXOXOXOXOXOXOX",
"OXOXOXOXOXOXOXOXOXOXOXOXOXOXOXOXOXOXOXOXOXOXOXOXOXOXOXOXOXOXOXOXOXOXOXOXOXOXOXOXOXOXOXOXOXOXOXOXOXOX",
"OXOXOXOXOXOXOXOXOXOXOXOXOXOXOXOXOXOXOXOXOXOXOXOXOXOXOXOXOXOXOXOXOXOXOXOXOXOXOXOXOXOXOXOXOXOXOXOXOXOX",
"OXOXOXOXOX|.].Q.].|.Q._.|._.Q.|.].Q.].|.Q._.|._.Q.|.].Q.`.|.Q._.|./.Q.|.].Q.].|.Q./.|./.Q.OXOXOXOXOX",
"OXOXOXOXOX/.].].`./.].`.`.`.`._.`.`.`.).`.`./.`.]._._.].]._.]._././.[./.].].]./.].`._._.].OXOXOXOXOX",
"OXOXOXOXOXQ./.|./.Q.|.].Q.`.|.E.^.|.Q.T.[.^.T.^.].T.Q.|.~.Q.|.].Q.[.|.W./.|./.W.|.].Q.].|.OXOXOXOXOX",
"OXOXOXOXOX|.].Q.[.|.Q./.|.Q.T.Q.T.L.I.Y.H.J.P.J.J.I.I.J.Y.Q.U.T./.Q.T.{.].W.[.|.Q._.|._.R.OXOXOXOXOX",
"OXOXOXOXOX[._.^.].[.Q.Q.^.I.J.J.B.M.N.n.2.2.3.2.>.3.q.2.n.V.N.F.J.J.L.T.Q.Q.].[.^.`.[.).^.OXOXOXOXOX",
"OXOXOXOXOXQ./.|./.W.`.T.H.G.V.1.-.-.| ` $.[ ' [ { ' |  .' { -.,.9.n.A.V.J.Q.T.Q.|.`.Q.[.|.OXOXOXOXOX",
"OXOXOXOXOX].]._./.Q.U.J.A.q.-.O.` i u y y e t q e t D S H t g 9 ` | O.2.M.G.I.Q.Q.`.].`.).OXOXOXOXOX",
"OXOXOXOXOX|.].T.Q.W.S.M.3.O.' 9 r q $ < N n v b I V Y T W c m & 0 u u } >.3.D.Y.Y.~.|./.E.OXOXOXOXOX",
"OXOXOXOXOXQ.^.[.U.H.A.3.| [ f w & M c : z c x I Y R Q ! a.T v b v & F f ` >.n.A.T.Q.T.].|.OXOXOXOXOX",
"OXOXOXOXOX^.`.Q.L.V.e.<.@.8 d , ; b b b : ~ R R ( ( ( j.( U R U c < M t i  .;.0.J.U.T.`.[.OXOXOXOXOX",
"OXOXOXOXOX|.~.P.J.Z.8.&.g q $ 1 2 x T I ( ( ( h.h.( ~ j.h.U i.! n : c l y F  .2.q.H.E.E.R.OXOXOXOXOX",
"OXOXOXOXOX^.E.I.F.w.*.#.8 4 1 h > : U x R ( ( d.R g.( ( l.i.i.h.I Y Q b $ 0 u O.1.N.J.T.).OXOXOXOXOX",
"OXOXOXOXOXT.T.Y.Z.2.&.f @ , . 3 > : x T ( d.h.j.h.h.h.g.j.g.R ( b R R n < & F i ,.m.A.U.`.OXOXOXOXOX",
"OXOXOXOXOX[.E.G.C.r.@.4 & Z z o s ; - ! j.k.x.v.c.x.j.h.h.j.j.R Y x ! x ; % M u ..>.S.J.I.OXOXOXOXOX",
"OXOXOXOXOX).Y.D.C.7.[ y S T 2 . > - T h.l.c.b.XXXXXXb.z.j.h.l.h.! + : Y v O $ 0 [ :.M.G.U.OXOXOXOXOX",
"OXOXOXOXOXY.P.F.2.6.k q N n z ; = P f.j.v..XoXoXoXoXXXb.z.j.j.h.R   O + = # @ e i X.2.S.R.OXOXOXOXOX",
"OXOXOXOXOX~.L.B.e.r.g s b x Y ! U / g.x.b.oXoXoXoXoXoX.Xx.k.h.d.x # < O o @ @ y i } 2.V.P.OXOXOXOXOX",
"OXOXOXOXOX).I.Z.w.6.4.s V y.y.T P d.h.b.b.oXoXoXoXoXoXXXc.x.j.! : > . > o X @ q i } 1.M.H.OXOXOXOXOX",
"OXOXOXOXOXY.L.D.>.$.5.d N C b b Y ( j.v.b.XXoXoXoXoXoXXXv.c.k.: * = O . . o $ 4 [ { -.N.U.OXOXOXOXOX",
"OXOXOXOXOXT.P.D.8. .8 4 $ = v b U ( h.x. XXXoXoXoXoXoXXXv.z.d.= :   c ; O 1 3 7 @.} ,.A.P.OXOXOXOXOX",
"OXOXOXOXOX`.U.M.3.o.6 @ % v b b P i.h.x.x.b..XoXoXoX.Xb.c.h.x P ; * T ; - s h g @.+.q.N.J.OXOXOXOXOX",
"OXOXOXOXOXE.P.D.9.$.f 0 $ Y E U : R R k.l.c.b.b.b.b.v.z.h.x = * c c U = # s j k o.>.2.D.Y.OXOXOXOXOX",
"OXOXOXOXOXT.P.D.3.| u D m I P i.T P R h.k.h.l.x.v.l.h.( U P - : ! ( : o # j k #.*.>.n.J.Q.OXOXOXOXOX",
"OXOXOXOXOX[.Y.B.3.=.p A V Y p.a.R R R ( h.h.h.h.h.) d.( U U x U I i.y.; 4 d #.$.+.3.D.P.Y.OXOXOXOXOX",
"OXOXOXOXOX`.Y.F.M.-.a L A y.y.R I * P U d.d.( h.( R ~ R U ( ( x ; T b # 4 k @.&.2.M.J.I.E.OXOXOXOXOX",
"OXOXOXOXOXQ.T.I.N.>.O.a S W W n n c . b n U R / u.T U ! ! d.a.Y ; % z m 5 k &.7.N.F.J.T.[.OXOXOXOXOX",
"OXOXOXOXOX`.~.Y.J.M.-.| p J N N n c b Y b - : b u.s.u.i.Y ! a.Q z z l @ 5  .%.0.m.K.Y.!.~.OXOXOXOXOX",
"OXOXOXOXOX|._.Y.U.L.q.>.| i y e & n n z I z < c E Q E ! Q y.p.t.N B B r _ | 1.V.Z.J.!.W.Q.OXOXOXOXOX",
"OXOXOXOXOXQ._.[.T.L.L.V.1.O.o.' u u $ $ & c % m Z W Y y.y.p.y.p.V L F u | ;.9.N.P.U.T.^.}.OXOXOXOXOX",
"OXOXOXOXOX^.`.[.^.T.T.L.S.M.2.=.o.[ 9 f 8 e t B l B ^ t.W y.t.t.S G i ] O.9.M.S.Y.T.E.'.[.OXOXOXOXOX",
"OXOXOXOXOX|.].Q.'.[.T.T.T.J.N.V.3.-.%.*.[ _ 9 u r p H S S H L G F p ] =.1.m.H.U.P.E.|.).R.OXOXOXOXOX",
"OXOXOXOXOX_.`.].`.(.`.^.Q.T.U.J.D.N.q.,.,.;.O.$. .] i a K p 9 i ] O.;.9.N.H.P.U.).`./.`.'.OXOXOXOXOX",
"OXOXOXOXOXQ._.|._.Q.|.'.R.`.].Y.P.P.D.M.A.n.0.8.2.;.-.-.O.| ;.:.;.2.N.V.K.W.W.T.|.[.~.'.}.OXOXOXOXOX",
"OXOXOXOXOX|.].Q.].|.Q.^.|./.W.[.(.U.Y.T.G.H.J.A.N.S.V.n.n.N.n.M.G.G.J.Q.Q.Y.`.|.Q.^.|./.Q.OXOXOXOXOX",
"OXOXOXOXOX[._.^.].[.^.`.[._.^.[.`.~.).(.T.T.R.U.I.I.I.J.I.I.P.Y.Q.E.T.].].^.].[.^.`.[.`.^.OXOXOXOXOX",
"OXOXOXOXOXQ.).|._.Q.|.].Q.].|.Q.^.|.^.Q.|.`.Q.`.|.Q./.|./.Q.|.].Q.].|.Q./.|./.Q.|.`.Q.'.|.OXOXOXOXOX",
"OXOXOXOXOXOXOXOXOXOXOXOXOXOXOXOXOXOXOXOXOXOXOXOXOXOXOXOXOXOXOXOXOXOXOXOXOXOXOXOXOXOXOXOXOXOXOXOXOXOX",
"OXOXOXOXOXOXOXOXOXOXOXOXOXOXOXOXOXOXOXOXOXOXOXOXOXOXOXOXOXOXOXOXOXOXOXOXOXOXOXOXOXOXOXOXOXOXOXOXOXOX",
"OXOXOXOXOXOXOXOXOXOXOXOXOXOXOXOXOXOXOXOXOXOXOXOXOXOXOXOXOXOXOXOXOXOXOXOXOXOXOXOXOXOXOXOXOXOXOXOXOXOX",
"OXOXOXOXOXOXOXOXOXOXOXOXOXOXOXOXOXOXOXOXOXOXOXOXOXOXOXOXOXOXOXOXOXOXOXOXOXOXOXOXOXOXOXOXOXOXOXOXOXOX",
"OXOXOXOXOXOXOXOXOXOXOXOXOXOXOXOXOXOXOXOXOXOXOXOXOXOXOXOXOXOXOXOXOXOXOXOXOXOXOXOXOXOXOXOXOXOXOXOXOXOX",
"OXOXOXOXOXOXOXOXOXOXOXOXOXOXOXOXOXOXOXOXOXOXOXOXOXOXOXOXOXOXOXOXOXOXOXOXOXOXOXOXOXOXOXOXOXOXOXOXOXOX",
"OXOXOXOXOXOXOXOXOXOXOXOXOXOXOXOXOXOXOXOXOXOXOXOXOXOXOXOXOXOXOXOXOXOXOXOXOXOXOXOXOXOXOXOXOXOXOXOXOXOX"
};
