/* XPM */
static char *_1012951bb40479587b7bf18ab79a18fKVfCOU5avFawHTaf[] = {
/* columns rows colors chars-per-pixel */
"54 54 4 1 ",
"  c None",
". c black",
"X c #010101",
"o c #020202",
/* pixels */
" .................................................... ",
"......................................................",
"......................................................",
"........o.o..o.oo.o.o.o..o.oo.o.o.o..o.oo.o.o.o..o....",
"...ooooooooooooooooooooooooooooooooooooooooooooooo....",
"....ooooooooooooooooooooooooooooooooooooooooooooooo...",
"...oooooooooooooooooooooooooooooooooooooooooooooooo...",
"....oooooooooooooooooooooooooooooooooooooooooooooo....",
"....oooooooooooooooooooooooooooooooooooooooooooooo....",
"...oooooooooooooooooooooooooooooooooooooooooooooooo...",
"....oooooooooooooooooooooooooooooooooooooooooooooo....",
"...oooooooooooooooooooooooooooooooooooooooooooooooo...",
"...oooooooooooooooooooooooooooooooooooooooooooooooo...",
"....oooooooooooooooooooooooooooooooooooooooooooooo....",
"...ooooooooooooooooooooooooooooooooooooooooooooooo....",
"....ooooooooooooooooooooooooooooooooooooooooooooooo...",
"...ooooooooooooooooooooooooooooooooooooooooooooooo....",
"....ooooooooooooooooooooooooooooooooooooooooooooooo...",
"...oooooooooooooooooooooooooooooooooooooooooooooooo...",
"....oooooooooooooooooooooooooooooooooooooooooooooo....",
"....oooooooooooooooooooooooooooooooooooooooooooooo....",
"...oooooooooooooooooooooooooooooooooooooooooooooooo...",
"....oooooooooooooooooooooooooooooooooooooooooooooo....",
"...oooooooooooooooooooooooooooooooooooooooooooooooo...",
"...oooooooooooooooooooooooooooooooooooooooooooooooo...",
"....oooooooooooooooooooooooooooooooooooooooooooooo....",
"...ooooooooooooooooooooooooooooooooooooooooooooooo....",
"....ooooooooooooooooooooooooooooooooooooooooooooooo...",
"...ooooooooooooooooooooooooooooooooooooooooooooooo....",
"....ooooooooooooooooooooooooooooooooooooooooooooooo...",
"...oooooooooooooooooooooooooooooooooooooooooooooooo...",
"....oooooooooooooooooooooooooooooooooooooooooooooo....",
"....oooooooooooooooooooooooooooooooooooooooooooooo....",
"...oooooooooooooooooooooooooooooooooooooooooooooooo...",
"....oooooooooooooooooooooooooooooooooooooooooooooo....",
"...oooooooooooooooooooooooooooooooooooooooooooooooo...",
"...ooooooooooooooooooooooooooooooooooooooooooooooo....",
"....ooooooooooooooooooooooooooooooooooooooooooooooo...",
"...ooooooooooooooooooooooooooooooooooooooooooooooo....",
"....ooooooooooooooooooooooooooooooooooooooooooooooo...",
"...ooooooooooooooooooooooooooooooooooooooooooooooo....",
"....ooooooooooooooooooooooooooooooooooooooooooooooo...",
"...ooooooooooooooooooooooooooooooooooooooooooooooo....",
"....ooooooooooooooooooooooooooooooooooooooooooooooo...",
"....oooooooooooooooooooooooooooooooooooooooooooooo....",
"...oooooooooooooooooooooooooooooooooooooooooooooooo...",
"....oooooooooooooooooooooooooooooooooooooooooooooo....",
"...oooooooooooooooooooooooooooooooooooooooooooooooo...",
"...oooooooooooooooooooooooooooooooooooooooooooooooo...",
"....oooooooooooooooooooooooooooooooooooooooooooooo....",
"....o..o.oo..o.o.o.oo..o.oo..o.o.o.oo..o.oo..o.o.o....",
"......................................................",
"......................................................",
" .................................................... "
};
