/* XPM */
static char *aba52429db11476694dffe4c473efb5cP5HrxNHbUya42lWu[] = {
/* columns rows colors chars-per-pixel */
"50 50 194 2 ",
"   c #228F44",
".  c #229145",
"X  c #2B9545",
"o  c #2E9847",
"O  c #2D9749",
"+  c #2F9848",
"@  c #319746",
"#  c #349947",
"$  c #3C9C47",
"%  c #359B48",
"&  c #3B9E49",
"*  c #3EA04A",
"=  c #409E47",
"-  c #419F4A",
";  c #44A34B",
":  c #4AA54B",
">  c #4DA94C",
",  c #52A74B",
"<  c #54AB4D",
"1  c #5AAF4C",
"2  c #5DB04C",
"3  c #5CAE51",
"4  c #5BAC5C",
"5  c #5EB050",
"6  c #62AE4E",
"7  c #63B24D",
"8  c #6BB54E",
"9  c #6EB84F",
"0  c #62AF50",
"q  c #64B252",
"w  c #6BB552",
"e  c #6EB852",
"r  c #66B459",
"t  c #6CB65E",
"y  c #72B754",
"u  c #73BA52",
"i  c #7BBD53",
"p  c #71B95E",
"a  c #7BBD5B",
"s  c #519D6C",
"d  c #589879",
"f  c #639E7F",
"g  c #66B461",
"h  c #6EB962",
"j  c #74BC67",
"k  c #7ABD65",
"l  c #79BD6C",
"z  c #69A576",
"x  c #76AD74",
"c  c #7AAD77",
"v  c #75A97D",
"b  c #7FC053",
"n  c #7EC173",
"m  c #82BF54",
"M  c #83BF5A",
"N  c #88B76F",
"B  c #8ABA6E",
"V  c #93BF67",
"C  c #84B472",
"Z  c #85B579",
"A  c #90BC7C",
"S  c #84C155",
"D  c #8BC356",
"F  c #84C159",
"G  c #8CC559",
"H  c #92C757",
"J  c #96C857",
"K  c #92C759",
"L  c #94C959",
"P  c #9CCB5A",
"I  c #A4CE5B",
"U  c #84C161",
"Y  c #8EC563",
"T  c #89C56C",
"R  c #94C664",
"E  c #9BC564",
"W  c #94C966",
"Q  c #9DC962",
"!  c #94C169",
"~  c #9DC66D",
"^  c #9BCC68",
"/  c #83C475",
"(  c #86C67A",
")  c #8CC678",
"_  c #9CC873",
"`  c #93CA7A",
"'  c #9FD07D",
"]  c #A3CC61",
"[  c #A9CF63",
"{  c #A4CC6A",
"}  c #A8CF6C",
"|  c #A7D066",
" . c #AAD165",
".. c #A6D26D",
"X. c #ADD26D",
"o. c #A0CE74",
"O. c #A9CE75",
"+. c #ACD373",
"@. c #A3D17A",
"#. c #ACD57C",
"$. c #B2D573",
"%. c #B4D779",
"&. c #B6D97C",
"*. c #2C759D",
"=. c #397E95",
"-. c #30779C",
";. c #347A9B",
":. c #397E98",
">. c #347AA0",
",. c #3C8197",
"<. c #3F829B",
"1. c #4A8B8E",
"2. c #518F8C",
"3. c #5B9787",
"4. c #5F9984",
"5. c #55928A",
"6. c #599589",
"7. c #5E9889",
"8. c #408296",
"9. c #4A8A92",
"0. c #48879C",
"q. c #528E90",
"w. c #58939C",
"e. c #639C83",
"r. c #61998B",
"t. c #6BA181",
"y. c #73A785",
"u. c #79AB82",
"i. c #6EA296",
"p. c #528EA5",
"a. c #629AA6",
"s. c #7FC090",
"d. c #88B584",
"f. c #8DB6A4",
"g. c #97BEB7",
"h. c #8ECA83",
"j. c #93CA84",
"k. c #96C788",
"l. c #95CD89",
"z. c #9BCE8C",
"x. c #9ED18F",
"c. c #9CD090",
"v. c #ACCF87",
"b. c #A6D187",
"n. c #AAD58A",
"m. c #B3D583",
"M. c #BADA83",
"N. c #B2D789",
"B. c #BEDC8A",
"V. c #A3C899",
"C. c #A4D396",
"Z. c #A5D49A",
"A. c #A8D69B",
"S. c #A9D89F",
"D. c #B3D595",
"F. c #BEDE93",
"G. c #A8D4A6",
"H. c #B3DBAA",
"J. c #BAD3B8",
"K. c #B9E0AF",
"L. c #C3DF92",
"P. c #C2DE99",
"I. c #C4E194",
"U. c #C4E29C",
"Y. c #CAE49F",
"T. c #C5E3A7",
"R. c #CCE5A4",
"E. c #D1E7AC",
"W. c #D2E8AD",
"Q. c #C5E4B7",
"!. c #D3EAB4",
"~. c #D7ECBD",
"^. c #DAEDBC",
"/. c #A8C6CA",
"(. c #B4D0D4",
"). c #D3EBC7",
"_. c #DBEDC5",
"`. c #D2EDCA",
"'. c #DAECCF",
"]. c #DEF1C3",
"[. c #D7E5DD",
"{. c #D9F1D0",
"}. c #E0F2C3",
"|. c #E2F2CB",
" X c #E3F2D2",
".X c #E2F3D9",
"XX c #E9F6DB",
"oX c #EFF9DE",
"OX c #E0EAE4",
"+X c #E7F7E0",
"@X c #EAF7E2",
"#X c #EFF9E4",
"$X c #F1F9E6",
"%X c #F3FAEB",
/* pixels */
"*.*.*.*.*.*.*.*.*.*.*.*.*.*.*.*.*.*.*.*.*.*.*.*.*.*.*.*.*.*.*.*.*.*.*.*.*.*.*.*.*.*.*.*.*.*.*.*.*.*.",
"*.*.*.*.*.*.*.*.*.*.*.*.*.*.*.*.*.*.*.*.*.*.*.*.-.-.-.-.*.*.*.*.*.*.*.*.*.*.*.*.*.*.*.*.*.*.*.*.*.*.",
"*.*.*.*.*.*.*.*.*.*.*.*.*.*.*.*.*.*.*.*.7.u.f.Z E ] { n.C v 0.*.*.*.*.*.*.*.*.*.*.*.*.*.*.*.*.*.*.*.",
"*.*.*.*.*.*.*.*.*.*.*.*.*.*.*.;.e.e.f B P %.^.$.[  .$.|.X.I A -.*.*.*.*.*.*.*.*.*.*.*.*.*.*.*.*.*.*.",
"*.*.*.*.*.*.*.*.*.*.*.*.*.-.5.o.L.S i p H.p i I &.oX$.B.] I I v *.*.*.*.*.*.*.*.*.*.*.*.*.*.*.*.*.*.",
"*.*.*.*.*.*.*.*.*.*.*.*.-.c I R.C.1 7 @.}.^ i 9 u !.W.X.[ W.%.J k.k.r s f 2.;.*.*.*.*.*.*.*.*.*.*.*.",
"*.*.*.*.*.*.*.*.*.*.*.-.y.I P F.p 1 L H T.` 7 7 1 / j 7 G F.L.I $.&.m 7 D M.+.y.*.*.*.*.*.*.*.*.*.*.",
"*.*.*.*.*.*.*.*.*.-.6.f._.k r .X) 7 7 1 a G H P 9 1 1 q 3 0 P.I P J I J e .X^.$./.>.*.*.*.*.*.*.*.*.",
"*.*.*.*.*.*.*.*.>.u.I Y.K.5 5 l 1 1 2 i 9 < < D L L u Q.{.3 5 2 q h 7 S I +.M.X._.i.*.*.*.*.*.*.*.*.",
"*.*.*.*.*.*.*.0.[.R.@.u 2 1 j +Xr 1 1 7 L P 6 : $ ; u #.n.2 1 2 2 `.j u P  .]. .^.m.,.*.*.*.*.*.*.*.",
"*.*.*.*.*.*.,.! G r 2 1 1 1 2 t 5 : 6 I I I I I D # . $ F J e ; < 1 2 t / 8 L I _.I.Z -.*.*.*.*.*.*.",
"*.*.*.*.*.-.C L 1 1 7 u 8 1 2 7 D i P J m I I M 6 q D G P I J : X * < 3 ( 2 2 H e D X.p.*.*.*.*.*.*.",
"*.*.*.*.*.a.{ j.U G ..` 2 2 > S I K :     : -         # q J I J X . X r h.1 1 2 2 S | J.;.*.*.*.*.*.",
"*.*.*.*.*.g.j.oXI._.t h u < b I i X   . - K K J q , : 6 , X < m L 3 # G.%Xn r 1 1 2 Q &.e.*.*.*.*.*.",
"*.*.*.*.=.1 u $._ @Xb.H I P i #   @ m J I M J I I I I I I w X %   w 6 4 H.g `.1 1 1 ) N.u.*.*.*.*.*.",
"*.*.*.*.v i D P 7 ~.M.I J S # . X F K M - X m I I I I I I < % ; < . 9 ; & 3 n 1 1 Z.Z.` g.*.*.*.*.*.",
"*.*.*.;.Q P 8 n.I I S # . . . X w # # O . ; 5 X X H m - 6 -   - 5 % O 5 . 3 1 1 1 `.{.c.(.*.*.*.*.*.",
"*.*.*.2.Y.T 7 ^.] i ; . . # m 1 #   . . . . . 5 P I , $ # # . ; 5 ; . 3 % 1 1 1 1 h.'.z.x *.*.*.*.*.",
"*.*.*.4.R._ 2 J w 2 #   - M ; . . . . . . . % S i 7 P I I L . X & ; . ; X 1 1 1 1 1 z.A.G.>.*.*.*.*.",
"*.*.*.d e K 8 H 2 > . X J i . . O : . . o o X .     q I I I <   . + & . . ; 1 1 1 1 1 1 A.a.*.*.*.*.",
"*.*.*.z 2 D b b 1 < > ; P o X ; 3 < * 1 ; * # .   . . < I I J X . & * . * * < 1 1 1 1 1 < ! -.*.*.*.",
"*.*.*.z u I P 8 1 1 & > i . % 2 * : ; X . # b : G Y ; . 0 I I - . 3 > . X q < 1 1 1 1 1 2 L 6.*.*.*.",
"*.*.*.x b I G 1 2 ; . 8 2 . ; > . . % q w I I D $ # . . X L I w . < 1 X . < > > 1 1 1 1 1 9 C *.*.*.",
"*.*.*.j i I i 1 1 . . i * * 1 * . X G I I I I H D G   .   0 I I ; # < & X X & : 1 1 1 c.n 7 Q =.*.*.",
"*.*.,.M 1 i i 2 * . . 1 o 1 > .   3 I I J I I % $ J - . . 0 I m ; . < % % . O > : 2 1 C.l.6 ] 8.*.*.",
"*.*.3.S n ~ u 1 * . . . > > 1 o   $ G I # $ I u < P y   3 I I m . X < + ; o ; > ; < 2 1 1 1 J 5.*.*.",
"*.*.7.i C.!.7 2 . . * . . * 1 o . . X J @ , I D # @ -   = I I M . > < . > . e * & 1 1 1 1 2 I 5.*.*.",
"*.*.7.u G +.2 < . * X . . ; < . . . X w a - M I I P P y J I I , X 2 < X * . u . & 1 1 1 7 D P ,.*.*.",
"*.*.6.i b D 1 1 * > . . * 1 > .   . O . X . O P I I I < 6 I q   ; 1 1 & . . e X ; 1 1 1 i I C *.*.*.",
"*.*.9.L S D 2 1 < 1 X . o 2 > o   . + X O > . L I M # 3 i #   - ; o 1 # . O 6 ; > 2 1 7 m I 3.*.*.*.",
"*.*.-.! i P 9 7 1 1 o . . < 1 > . . . : . 3 - X @   > % . X % % . ; ; . & # i < 1 1 7 b D Q -.*.*.*.",
"*.*.*.v !.U L 9 1 1 ; . . > < 3 > * . ; ; . . . . .   . . O - # & ; . $ 3 < D : 1 2 H S $.Z *.*.*.*.",
"*.*.*.=.] _.^.k 1 1 1 ; . X * ; 1 > . X < 1 > . . . o ; ; # # : * . . O w P : 1 1 ` I M.|.r.*.*.*.*.",
"*.*.*.*.2.C ).H.1 1 1 1 o . . ; 1 1 *   . ; 1 < * < > o   # # . . . . & ] : : 2 b oX .] V.;.*.*.*.*.",
"*.*.*.*.*.f |.XXi 1 1 1 * . . X 1 1 1 o . . o o ; ; X X w p &   . & L P < 3 2 ) I  .I Q ;.*.*.*.*.*.",
"*.*.*.*.-.o.%.$.P 1 A.t h X X 1 o * ; < * . . . . o ; o @ . X $ w P i < u 2 b.#XQ w S I 6.*.*.*.*.*.",
"*.*.*.*.*.v.&.I I 2 S.n %Xs.O G X     . + X . 3 S K 6 X   < I m < 1 i i 1 9 %.%Xx.Q.Y  .t.*.*.*.*.*.",
"*.*.*.*.;.I P 8 G 1 1 q {.G.. G u .   . + . . . X . o > u P 8 X X # 6 9 S F.' / h..Xm.OX<.*.*.*.*.*.",
"*.*.*.*.*.N I 9 b u 2 2 3 1 < e I 6 . . X & ; ; o . o # X 6 6 < - K I I I | 2 2 2 b [ d.*.*.*.*.*.*.",
"*.*.*.*.*.2.I ^ l.L 7 7 G.h 2 2 S P J K - . . . . X # * : D I I I I I I I I D 2 w P ! <.*.*.*.*.*.*.",
"*.*.*.*.*.*.c M.$XD T L q 2 5 j 2 b I I I L m 1 * u D D L S 7 I [ W.I i m I ^ b.D.c ,.*.*.*.*.*.*.*.",
"*.*.*.*.*.*.:.^ I.L I. .P 8 r K.3 1 u i !.T.i 7 < 2 2 8 8 2 7 J [  X/ 7 } +.W m.w.*.*.*.*.*.*.*.*.*.",
"*.*.*.*.*.*.*.0.OXB.R.E.I I i 7 1 1 l.w z.x.7 i L 2 7 b 9 8 2 1 r A.a ] #XW.R =.*.*.*.*.*.*.*.*.*.*.",
"*.*.*.*.*.*.*.*.i.I I. Xu u J J i 3 k I P J I I u 2 2 p l.u 9 1 @.$X+.I M. .R ;.*.*.*.*.*.*.*.*.*.*.",
"*.*.*.*.*.*.*.*.*.6.E I P e 7 U.n.7 C.{.H H P.].b D P  .B.[ e 1 q ) L I I ! 2.*.*.*.*.*.*.*.*.*.*.*.",
"*.*.*.*.*.*.*.*.*.*.,.c I I G Y E.O.i k 1 1 #.^. .L L Y %XC.1 8 Q.I.I I e.*.*.*.*.*.*.*.*.*.*.*.*.*.",
"*.*.*.*.*.*.*.*.*.*.*.*.,.e.c B k.O.I J u / R E.@.u i K +.K P I I I V f ;.*.*.*.*.*.*.*.*.*.*.*.*.*.",
"*.*.*.*.*.*.*.*.*.*.*.*.*.*.*.*.*.;.7.C ~  X&.I I } '.D.7.2.e.e.6.1.;.*.*.*.*.*.*.*.*.*.*.*.*.*.*.*.",
"*.*.*.*.*.*.*.*.*.*.*.*.*.*.*.*.*.*.*.*.-.8.q.r.9.;.;.;.*.*.*.*.*.*.*.*.*.*.*.*.*.*.*.*.*.*.*.*.*.*.",
"*.*.*.*.*.*.*.*.*.*.*.*.*.*.*.*.*.*.*.*.*.*.*.*.*.*.*.*.*.*.*.*.*.*.*.*.*.*.*.*.*.*.*.*.*.*.*.*.*.*."
};
