/* XPM */
static char *cfdd9877a9ba49f1d9e116368c95534fkMzv00McSmxARdwc[] = {
/* columns rows colors chars-per-pixel */
"50 50 112 2 ",
"   c #0C0707",
".  c #0D0B0D",
"X  c #160B0C",
"o  c #1C0C0D",
"O  c #080E11",
"+  c #160E11",
"@  c #1A0D11",
"#  c #0E1014",
"$  c #0C151B",
"%  c #131115",
"&  c #1C1115",
"*  c #19171D",
"=  c #240D0D",
"-  c #2B0C0D",
";  c #340C0D",
":  c #3C0C0E",
">  c #260F13",
",  c #290E11",
"<  c #3F0E10",
"1  c #231014",
"2  c #361213",
"3  c #3C1414",
"4  c #0E1E27",
"5  c #131D26",
"6  c #1C1A21",
"7  c #0F222C",
"8  c #102633",
"9  c #182733",
"0  c #122835",
"q  c #122C3A",
"w  c #420D0F",
"e  c #430E11",
"r  c #431516",
"t  c #4D1215",
"y  c #411718",
"u  c #491718",
"i  c #461818",
"p  c #4C191A",
"a  c #531114",
"s  c #5D1216",
"d  c #551B1C",
"f  c #5C1D1E",
"g  c #631317",
"h  c #661418",
"j  c #6C1519",
"k  c #60181B",
"l  c #70161A",
"z  c #72181C",
"x  c #5F1F20",
"c  c #611F20",
"v  c #642122",
"b  c #6A2324",
"n  c #732627",
"m  c #792727",
"M  c #762728",
"N  c #782728",
"B  c #722A2E",
"V  c #7D292A",
"C  c #153344",
"Z  c #153548",
"A  c #173A4D",
"S  c #183A4E",
"D  c #194055",
"F  c #1C4A63",
"G  c #1E4F6A",
"H  c #1F506C",
"J  c #215573",
"K  c #225977",
"L  c #235B7B",
"P  c #822426",
"I  c #822529",
"U  c #842B2C",
"Y  c #8B2D2E",
"T  c #902E2F",
"R  c #842B34",
"E  c #8E2F30",
"W  c #922F30",
"Q  c #8E3032",
"!  c #973233",
"~  c #983436",
"^  c #993639",
"/  c #9A393E",
"(  c #9C3C43",
")  c #923C48",
"_  c #9E4148",
"`  c #9F4149",
"'  c #A0434C",
"]  c #A0444C",
"[  c #A14751",
"{  c #A24651",
"}  c #A24853",
"|  c #A34A56",
" . c #A44B58",
".. c #A44C59",
"X. c #A54C5A",
"o. c #A64F5E",
"O. c #A7505E",
"+. c #A7505F",
"@. c #A95363",
"#. c #245F80",
"$. c #256182",
"%. c #256384",
"&. c #266689",
"*. c #27678A",
"=. c #286A8E",
"-. c #286A8F",
";. c #286C92",
":. c #296D92",
">. c #2B7198",
",. c #2C739B",
"<. c #2B749B",
"1. c #2C759D",
/* pixels */
"1.1.1.1.1.1.1.1.1.1.1.1.1.1.1.1.1.1.1.1.1.1.1.1.1.1.1.1.1.1.1.1.1.1.1.1.1.1.1.1.1.1.1.1.1.1.1.1.1.1.",
"1.1.1.1.1.1.1.1.1.1.1.1.1.1.1.1.1.1.1.1.1.1.1.1.1.1.1.1.1.1.1.1.1.1.1.1.1.1.1.1.1.1.1.1.1.1.1.1.1.1.",
"1.1.1.1.1.1.1.1.1.1.1.1.1.1.1.1.1.1.1.1.1.1.1.1.1.1.1.1.1.1.1.1.1.1.1.1.1.1.1.1.1.1.1.1.1.1.1.1.1.1.",
"1.1.1.1.1.1.1.1.1.1.1.1.1.1.1.1.1.1.1.1.1.1.1.1.1.1.1.1.1.1.1.1.1.1.1.1.1.1.1.1.1.1.1.1.1.1.1.1.1.1.",
"1.1.1.1.1.1.1.1.1.1.1.1.1.1.1.1.1.1.1.1.1.1.1.1.1.1.1.1.1.1.1.1.1.1.1.1.1.1.1.1.1.1.1.1.1.1.1.1.1.1.",
"1.1.1.1.1.1.1.1.1.1.1.1.1.1.1.1.1.1.1.1.1.1.1.1.1.1.1.1.1.1.1.1.1.1.1.1.1.1.1.1.1.1.1.1.1.1.1.1.1.1.",
"1.1.1.1.1.1.1.1.1.1.1.1.1.1.1.1.1.1.1.1.1.1.1.1.1.1.1.1.1.1.1.1.1.1.1.1.1.1.1.1.1.1.1.1.1.1.1.1.1.1.",
"1.1.1.1.1.1.1.1.1.1.1.1.1.1.1.1.1.1.1.1.1.1.1.1.1.1.1.1.1.1.1.1.1.1.1.1.1.1.1.1.1.1.1.1.1.1.1.1.1.1.",
"1.1.1.1.1.1.1.1.1.1.1.1.1.1.1.1.1.1.1.1.1.1.1.1.1.1.1.1.1.1.1.1.1.1.1.1.1.1.1.1.1.1.1.1.1.1.1.1.1.1.",
"1.1.1.1.1.1.1.1.1.#.7 7 8 0 8 7 D -.1.1.1.1.1.1.1.1.1.1.1.1.1.1.1.1.1.1.1.1.1.1.1.1.1.1.1.1.1.1.1.1.",
"1.1.1.1.1.1.1.1.1.0 X 2 v V Y V y % Z D D H $.<.1.1.1.1.1.1.1.1.1.1.1.1.1.1.1.1.1.1.1.1.1.1.1.1.1.1.",
"1.1.1.1.1.1.1.1.1.= d Q E ! ! ! Q U b v f 3 = # 0 J >.1.1.1.1.1.1.1.1.1.1.1.1.1.1.1.1.1.1.1.1.1.1.1.",
"1.1.1.1.1.1.1.1.1.. V v V ! ! ! r - c ! ! ! ! ! b 2 & 0 H <.1.1.,.,.1.1.1.1.1.1.1.1.1.1.1.1.1.1.1.1.",
"1.1.1.1.1.1.1.1.1.8 V E U f ! ! U E Y ! ! ! ! ! ! ! ! n 2 $ F >.,.,.1.1.1.1.1.1.1.1.1.1.1.1.1.1.1.1.",
"1.1.1.1.1.1.1.1.1.A d ! ! ! ! ! ! ! ! ! ! ! ! ! ! ! ! ! ! E f & Z K >.1.1.1.1.1.1.1.1.1.1.1.1.1.1.1.",
"1.1.1.1.1.1.1.1.1.J 2 ! ! ! ^ ] ~ ! ! ! ! d M E ! ! ! f d ! ! ! k = $ F 1.1.1.1.1.1.1.1.1.1.1.1.1.1.",
"1.1.1.1.1.1.1.1.,.,.o ! ! ! ! | } ! ! ! ^ ! b f y U ! V 3 N ! ! ! z g ; 5 *.1.1.1.1.1.1.1.1.1.1.1.1.",
"1.1.1.1.1.1.1.1.1.1.$ Y Y U M v ] [ ! ! / } _ ! ! p V ! ! ! ! ! V e : a s @ L 1.1.1.1.1.1.1.1.1.1.1.",
"1.1.1.1.1.1.1.1.1.1.Z v x i E d c } ] ! ! ! X.@._ ! k i d v E } ( I j : s h 1 L 1.1.1.1.1.1.1.1.1.1.",
"1.1.1.1.1.1.1.1.1.1.K i ! b ! ! i Q O._ ! ! U ^ ' ! ~ ! ! V p B ( | ) j : a j + :.1.1.1.1.1.1.1.1.1.",
"1.1.1.1.1.1.1.1.1.1.:.o ! ! ! ! f U O.X.! ! n d ! ! ! ! ! ! ! U ! T R l l w a a A 1.1.1.1.1.1.1.1.1.",
"1.1.1.1.1.1.1.1.1.1.<.7 V ! M ! n v ^ / ! U ! v f ! ! ! ! ! ! ! ! Y l l l l : j & 1.1.1.1.1.1.1.1.1.",
"1.1.1.1.1.1.1.1.1.1.<.S p ! r ! ! 3 Y ! ! f n ! v p d 3 U ! ! ! ! T l l l w w g < 1.1.1.1.1.1.1.1.1.",
"1.1.1.1.1.1.1.1.1.1.1.K o ! v M ! Y y b ! ! i N U ! ! ! d n E ! ! T l l l a : l t 1.1.1.1.1.1.1.1.1.",
"1.1.1.1.1.1.1.1.1.1.1.,.O Y E p ~ / ! U 3 Y ! v Y ! ] ( ! b u d d f j l l l : l a 1.1.1.1.1.1.1.1.1.",
"1.1.1.1.1.1.1.1.1.1.1.1.q b ! i W  ._ ! U d ! ! ! ! ^ +.X.' ~ ! ! m : l l l w g t 1.1.1.1.1.1.1.1.1.",
"1.1.1.1.1.1.1.1.1.1.1.1.H 3 ! Y r ^ +.~ ! d ! ! ! ! ! ~ ( ] o.~ ! T : j l l w l e 1.1.1.1.1.1.1.1.1.",
"1.1.1.1.1.1.1.1.1.1.1.1.1.% ! ! f V [ _ ! p Y ! ! ! ! ! ! ! ^ ! ! Y w j l l l l 1 1.1.1.1.1.1.1.1.1.",
"1.1.1.1.1.1.1.1.1.1.1.1.1.C b ! ! Y ~ ~ ! Y y ! ! ! ! ! ! ! b Y ~ P : l l l l g 0 1.1.1.1.1.1.1.1.1.",
"1.1.1.1.1.1.1.1.1.1.1.1.1.F 3 ! ! ! ! ~ Y Y U 3 k U ! ! ! ! V r ! z : l l e j e H 1.1.1.1.1.1.1.1.1.",
"1.1.1.1.1.1.1.1.1.1.1.1.1.-.  ! V U ! ! d y ! Q Y ! ! ! ! ! ! f U l j l l : g * 1.1.1.1.1.1.1.1.1.1.",
"1.1.1.1.1.1.1.1.1.1.1.1.1.1.7 N k 3 Y ! ! ! ! ! ! ! ! ^ ^ ! ! V p g l j a e w H 1.1.1.1.1.1.1.1.1.1.",
"1.1.1.1.1.1.1.1.1.1.1.1.1.1.D i ! f Y U V ! Q n ! ! ! M _ } / ! n : l l l g 9 1.1.1.1.1.1.1.1.1.1.1.",
"1.1.1.1.1.1.1.1.1.1.1.1.1.1.-.1 ! ! ! ! 3 Y ! i U ! ! x b / X.! l : j l j & *.1.1.1.1.1.1.1.1.1.1.1.",
"1.1.1.1.1.1.1.1.1.1.1.1.1.<.1.7 V ! _ [ Q 3 Y ! d v ! ! v d m s l : l l ; H 1.1.1.1.1.1.1.1.1.1.1.1.",
"1.1.1.1.1.1.1.1.1.1.1.1.1.<.<.G r ! ~ O./ Y d f Y v b ! ! U f s l l j w S 1.1.1.1.1.1.1.1.1.1.1.1.1.",
"1.1.1.1.1.1.1.1.1.1.1.1.1.1.1.<.7 b ! ! v Y ! U d p 3 d I I j l l l w Z <.1.1.1.1.1.1.1.1.1.1.1.1.1.",
"1.1.1.1.1.1.1.1.1.1.1.1.1.1.1.1.*.% U ! k - U ! ! ! ! I a : < e s : A <.1.1.1.1.1.1.1.1.1.1.1.1.1.1.",
"1.1.1.1.1.1.1.1.1.1.1.1.1.1.1.1.1.*.* b ~ Y ! ! ! ! m w : l l s 1 H <.1.1.1.1.1.1.1.1.1.1.1.1.1.1.1.",
"1.1.1.1.1.1.1.1.1.1.1.1.1.1.1.1.1.1.-.q 2 M T Y P j l a g a , C *.1.<.1.1.1.1.1.1.1.1.1.1.1.1.1.1.1.",
"1.1.1.1.1.1.1.1.1.1.1.1.1.1.1.1.1.1.1.1.$.Z 6 = ; : ; 1 5 D -.1.1.1.1.1.1.1.1.1.1.1.1.1.1.1.1.1.1.1.",
"1.1.1.1.1.1.1.1.1.1.1.1.1.1.1.1.1.1.1.1.1.<.1.:.%.L %.<.<.1.,.1.1.1.1.1.1.1.1.1.1.1.1.1.1.1.1.1.1.1.",
"1.1.1.1.1.1.1.1.1.1.1.1.1.1.1.1.1.1.1.1.1.1.1.1.1.1.1.1.1.1.1.1.1.1.1.1.1.1.1.1.1.1.1.1.1.1.1.1.1.1.",
"1.1.1.1.1.1.1.1.1.1.1.1.1.1.1.1.1.1.1.1.1.1.1.1.1.1.1.1.1.1.1.1.1.1.1.1.1.1.1.1.1.1.1.1.1.1.1.1.1.1.",
"1.1.1.1.1.1.1.1.1.1.1.1.1.1.1.1.1.1.1.1.1.1.1.1.1.1.1.1.1.1.1.1.1.1.1.1.1.1.1.1.1.1.1.1.1.1.1.1.1.1.",
"1.1.1.1.1.1.1.1.1.1.1.1.1.1.1.1.1.1.1.1.1.1.1.1.1.1.1.1.1.1.1.1.1.1.1.1.1.1.1.1.1.1.1.1.1.1.1.1.1.1.",
"1.1.1.1.1.1.1.1.1.1.1.1.1.1.1.1.1.1.1.1.1.1.1.1.1.1.1.1.1.1.1.1.1.1.1.1.1.1.1.1.1.1.1.1.1.1.1.1.1.1.",
"1.1.1.1.1.1.1.1.1.1.1.1.1.1.1.1.1.1.1.1.1.1.1.1.1.1.1.1.1.1.1.1.1.1.1.1.1.1.1.1.1.1.1.1.1.1.1.1.1.1.",
"1.1.1.1.1.1.1.1.1.1.1.1.1.1.1.1.1.1.1.1.1.1.1.1.1.1.1.1.1.1.1.1.1.1.1.1.1.1.1.1.1.1.1.1.1.1.1.1.1.1.",
"1.1.1.1.1.1.1.1.1.1.1.1.1.1.1.1.1.1.1.1.1.1.1.1.1.1.1.1.1.1.1.1.1.1.1.1.1.1.1.1.1.1.1.1.1.1.1.1.1.1."
};
