/* XPM */
static char *_829bee05e034e39eb4f21c866db681cPwrwyy6rZmksdHV0[] = {
/* columns rows colors chars-per-pixel */
"32 34 130 2 ",
"   c None",
".  c #040202",
"X  c #0B0505",
"o  c #130606",
"O  c #190707",
"+  c #1A0708",
"@  c #150909",
"#  c #1C0A0A",
"$  c #240B0C",
"%  c #2A0B0C",
"&  c #340C0D",
"*  c #3C0C0E",
"=  c #300F10",
"-  c #3F0E10",
";  c #2F1111",
":  c #361213",
">  c #3C1414",
",  c #420D0F",
"<  c #430E10",
"1  c #431516",
"2  c #4D1214",
"3  c #411718",
"4  c #491718",
"5  c #461818",
"6  c #4C191A",
"7  c #531114",
"8  c #5D1216",
"9  c #551B1C",
"0  c #5C1D1E",
"q  c #631317",
"w  c #661418",
"e  c #6C1519",
"r  c #60181B",
"t  c #70161A",
"y  c #72181C",
"u  c #5F1F20",
"i  c #611F20",
"p  c #731E20",
"a  c #642122",
"s  c #6A2324",
"d  c #732627",
"f  c #792727",
"g  c #762728",
"h  c #782728",
"j  c #722A2E",
"k  c #7D292A",
"l  c #822426",
"z  c #822529",
"x  c #842B2C",
"c  c #8B2D2E",
"v  c #902E2F",
"b  c #842B34",
"n  c #8F2F30",
"m  c #8E2F30",
"M  c #8F2F32",
"N  c #8D2F30",
"B  c #8F2F30",
"V  c #912F30",
"C  c #922F30",
"Z  c #8F3031",
"A  c #8E3235",
"S  c #8C3033",
"D  c #903031",
"F  c #913031",
"G  c #923031",
"H  c #933132",
"J  c #943132",
"K  c #953132",
"L  c #963132",
"P  c #963233",
"I  c #973233",
"U  c #923334",
"Y  c #973334",
"T  c #973336",
"R  c #963233",
"E  c #983334",
"W  c #983335",
"Q  c #983436",
"!  c #983536",
"~  c #983537",
"^  c #993638",
"/  c #983639",
"(  c #993639",
")  c #99363A",
"_  c #99373A",
"`  c #9A363A",
"'  c #99373A",
"]  c #99383C",
"[  c #9A3A3F",
"{  c #9A3A3E",
"}  c #9B3B40",
"|  c #9B3C41",
" . c #9B3C42",
".. c #9C3D43",
"X. c #9C3D44",
"o. c #9C3D44",
"O. c #923C48",
"+. c #9E4148",
"@. c #9E4149",
"#. c #9F4149",
"$. c #9E4249",
"%. c #9F424A",
"&. c #9F424B",
"*. c #9E4049",
"=. c #A0434C",
"-. c #A0444C",
";. c #A0444E",
":. c #A1454F",
">. c #A04650",
",. c #A14751",
"<. c #A14752",
"1. c #A24752",
"2. c #A24753",
"3. c #A24550",
"4. c #A24853",
"5. c #A34A56",
"6. c #A34A56",
"7. c #A44B58",
"8. c #A44B59",
"9. c #A44C59",
"0. c #A44C5A",
"q. c #A54C5A",
"w. c #A64F5E",
"e. c #A44C59",
"r. c #A7505E",
"t. c #A7505F",
"y. c #A75161",
"u. c #A85161",
"i. c #A85262",
"p. c #A95363",
/* pixels */
"                                                                ",
"  . . . . . .                                                   ",
". @ : a k c k 1 X .                                             ",
"$ u S S E I I S S s a 0 > $ X .                                 ",
"X k a k I I I 1 % a Y I I I S s > @ .                           ",
". k N x 0 I I x c c I I I I I I Y Y d > X                       ",
". 9 I I I I I I I I I I I I I I Y I I I S 9 $ .                 ",
"  : I I I _ &.Y I I I I 9 f c I U E 0 9 I I U s % .             ",
"  @ I I I I 6.4.U E I _ U d 0 > x E k 1 h I Y I t q & X         ",
"  X c x x g a &.:.E I [ >.o.Y Y 6 h I L I I I k - * 7 8 O       ",
"  . a u 6 m 9 r 4.$.I I Y 8.p.$.L i 5 6 i N 2. .z e * 8 e $     ",
"    5 Y s E ! 4 A i...I I x _ $.C Y E C x 6 j o.9.O.e & 7 e o   ",
"    # U U I I 0 x t.0.I I d 9 I E L E L I I x I V b t t * 7 7 . ",
"    . k I k I d a _ } I x I a 0 E E L E I I I I c t t t t * w + ",
"    . 6 I 1 I I 1 c E I 0 g I s 4 0 > x I I I I v t t t , , w , ",
"      # I a g I x 1 s H I 1 g x I E C 9 d C I I C t t t 7 * e 2 ",
"      . c H 9 ! _ I k : c I s x I =. .E s 4 9 9 u e t t t * e 7 ",
"      . a I 1 H 8.$.I x 0 I I I I ` u.8.$.` C E f & t t t , q 7 ",
"        3 ! x 1 _ t.Y I 9 I I I E E E } =.w.Y I c , e t t < e , ",
"        @ H I 9 k ,.+.I 9 c I I I E C Y Y ] Y I c , e e t t t $ ",
"        . s Y I N _ ! I c 1 I I I I I I I s N Y l * t t t t e . ",
"          > Y Y I I I x m x > 0 z I I I I k > V p * t t < e ,   ",
"          X H k x I I 0 1 I c x V Y I E I I 0 x y e t t * w o   ",
"          X d r > c I I I I I I Y Y _ _ I I x 2 w t e 7 < <     ",
"            6 I 0 x x k I H d I I I f =.6.o.I p * e t t q X     ",
"            # I I E I 1 c I 4 x I I 0 a [ 8.Y t * e t e O       ",
"            X k I o.3.S > c I 9 i I I a 9 g r e * t t &         ",
"              > I _ i.{ x 9 0 c i s I I z 0 8 t t t , .         ",
"              X d U E a c I x 9 9 > 9 k l t t t e < X           ",
"                @ x I 0 = x I I I I x 7 * , , 8 * .             ",
"                  @ s E c I I I I l * * t t 7 $                 ",
"                    . : s V z l t t 7 w 7 % .                   ",
"                        X O $ & * & $ o                         ",
"                                                                "
};
