/* XPM */
static char *_6a8f98331a14521a6bc85b3441b41f5x2KbBNEDFS5dqabE[] = {
/* columns rows colors chars-per-pixel */
"39 38 179 2 ",
"   c None",
".  c #010101",
"X  c #0A0603",
"o  c #0E0905",
"O  c #0D0D0D",
"+  c #150F09",
"@  c #1B120C",
"#  c #1D1713",
"$  c #151515",
"%  c #21160E",
"&  c #281A0D",
"*  c #301C0C",
"=  c #2B1E12",
"-  c #251910",
";  c #2A211B",
":  c #332419",
">  c #392A1E",
",  c #3A2616",
"<  c #252525",
"1  c #382E25",
"2  c #313030",
"3  c #472911",
"4  c #4B2B12",
"5  c #442A17",
"6  c #4F331A",
"7  c #59371A",
"8  c #633917",
"9  c #4B3524",
"0  c #533A26",
"q  c #533D2B",
"w  c #5C422F",
"e  c #584437",
"r  c #6D4825",
"t  c #66442D",
"y  c #6C4B2C",
"u  c #6B4624",
"i  c #724B25",
"p  c #7E4F25",
"a  c #7B512B",
"s  c #614630",
"d  c #6A4D35",
"f  c #704B32",
"g  c #6D503D",
"h  c #7B5237",
"j  c #785337",
"k  c #555555",
"l  c #6A5343",
"z  c #795B46",
"x  c #755945",
"c  c #7C6148",
"v  c #636362",
"b  c #717171",
"n  c #82562B",
"m  c #8C5C2E",
"M  c #86593B",
"N  c #885B3D",
"B  c #915F30",
"V  c #91602F",
"C  c #956231",
"Z  c #986432",
"A  c #9D6A39",
"S  c #9C6837",
"D  c #A16E3E",
"F  c #815E46",
"G  c #8E6848",
"H  c #88674B",
"J  c #946B4A",
"K  c #966942",
"L  c #9E734F",
"P  c #856A55",
"I  c #8C6C54",
"U  c #856751",
"Y  c #8F715C",
"T  c #997558",
"R  c #A26F41",
"E  c #A57243",
"W  c #AB764A",
"Q  c #AD794B",
"!  c #A5724F",
"~  c #A37652",
"^  c #AC7B55",
"/  c #AE7D59",
"(  c #B37F53",
")  c #8B7667",
"_  c #9A7A63",
"`  c #927D6F",
"'  c #A67D60",
"]  c #BB865C",
"[  c #BB885D",
"{  c #B68359",
"}  c #8A827B",
"|  c #9A8474",
" . c #938072",
".. c #AA856C",
"X. c #AB896F",
"o. c #A58269",
"O. c #BF8B60",
"+. c #A58975",
"@. c #AE8A72",
"#. c #A48C7A",
"$. c #AC8F7A",
"%. c #B48F74",
"&. c #A5907F",
"*. c #AE907B",
"=. c #BC967B",
"-. c #B39279",
";. c #CC885A",
":. c #C68458",
">. c #D08B5C",
",. c #DF9563",
"<. c #C39B7E",
"1. c #CE9F7D",
"2. c #E89B67",
"3. c #E89D6B",
"4. c #EBA16E",
"5. c #EBA474",
"6. c #EEAA7B",
"7. c #E0A279",
"8. c #878787",
"9. c #958F8A",
"0. c #9E9085",
"q. c #9C9690",
"w. c #AB9586",
"e. c #AC9789",
"r. c #A9988C",
"t. c #BC9B81",
"y. c #A89D96",
"u. c #AAA29C",
"i. c #B1A39A",
"p. c #B9A598",
"a. c #A6A6A6",
"s. c #AFAFAF",
"d. c #ABA7A3",
"f. c #B4AEAA",
"g. c #B5B3B2",
"h. c #BEBEBD",
"j. c #C69E81",
"k. c #C89F82",
"l. c #CBA387",
"z. c #D1A788",
"x. c #D6AB8B",
"c. c #D9AD8E",
"v. c #DDB08F",
"b. c #DEB090",
"n. c #D5B29A",
"m. c #F1B185",
"M. c #F3B58A",
"N. c #E3B493",
"B. c #EDBC9A",
"V. c #E9B997",
"C. c #F5BB92",
"Z. c #F1BF9D",
"A. c #C6B1A3",
"S. c #D0BAAC",
"D. c #D6BFB0",
"F. c #F3C19E",
"G. c #FAC39C",
"H. c #DAC0AD",
"J. c #D7C0B1",
"K. c #DFC7B7",
"L. c #FBC6A1",
"P. c #FECAA5",
"I. c #FBCDAC",
"U. c #F2C6A8",
"Y. c #FCCFB0",
"T. c #FCD3B5",
"R. c #CCCCCC",
"E. c #C3C3C3",
"W. c #D0CFCF",
"Q. c #D3D3D3",
"!. c #DEDEDE",
"~. c #EFD6C5",
"^. c #FDD9C1",
"/. c #FEE1CC",
"(. c #FFE4D2",
"). c #E5E5E5",
"_. c #EDEDED",
"`. c gray96",
"'. c #F9F9F9",
/* pixels */
"                                                                              ",
"                            O k 8.8.b 2 + 0 t M N M d 5 .                     ",
"                          < W.'.!.'.'.'.g.] 2.2.2.2.2.2.;.t o                 ",
"                        $ Q.'.`.O _.'.'.'.i.6.5.5.4.2.2.2.2.:.:               ",
"                        v '.'.'._.'.'.'.'.R.c.P.P.P.G.C.m.2.2.2.N %           ",
"                        s.'.'.'.'.'.'.'.'.`.@.P.P.P.P.P.P.G.m.2.2.:.+         ",
"                      o d.'.'.'.'.'.'.'.'.'.-.P.6.M.P.P.P.P.P.G.3.2.W X       ",
"                  . % M ` '.'.'.'.'.'.'.'.R.<._ I 7.P.P.P.P.G.G.L.m.2.h       ",
"            X * 3 3 Q ' j.R.'.'.'.'.'.`.'.r._ Z.c.1.P.B...@...! L.L.5.2.@     ",
"          o 7 8 8 z N.@.P.t.f.'.'.'.'.h.| B.Z.P.<.V.P.b.L.P...F / G.G.2.h     ",
"          4 8 8 4 c.Z.L.P.P.V.$.` ` +.V.P.P.P.P.x.P.P.P.P.P.P.P.P P.P.M.;..   ",
"        , m V n w P.P.P.P.P.P.P.P.P.P.P.P.P.P.P.P.P.P.P.P.P.B...B.P.P.P.2.+   ",
"      @ m Z Z Z o.P.P.P.P.P.P.P.P.j.e.u.i.| B.P.P.P.P.P.P.P.P.P.P.P.P.P.m.-   ",
"      a Z Z Z n k.P.P.P.P.P.P.Z.#.E.'.'.'.`.q.c.P.P.P.P.P.P.P.P.P.P.P.P.C.,   ",
"    & Z Z Z Z i Z.P.P.P.P.P.P.0.`.'.'.'.'.'.'.d.B.P.P.P.P.P.P.P.P.P.P.P.P.9   ",
"    7 S Z Z Z u P.P.P.P.P.P.=.!.`.'.'.'.'.'.'.'.w.P.P.P.P.P.P.P.P.P.P.P.P.w   ",
"    n Z Z Z Z r P.P.P.B.P.P.w.'.'.'.'.'.'.'.'.'.q.I.P.P.P.P.P.P.P.P.P.P.P.g   ",
"  . Z Z Z Z Z r F.P.P.x.X.P.i.'.'.'.'.'.'.'.'.'.Q.b.P.P.P.P.P.P.P.P.P.P.P.x   ",
"    n Z Z Z Z n N.P.P.P.<.F.i.'.'.'.'.'.'.'.'.'.).j.P.P.P.P.P.P.P.P.P.P.P.z   ",
"  . V Z Z Z V V %.P.P.P.P.Y w.`.'.'.'.g.h.'.'.'.W.z.P.P.P.P.P.P.P.P.P.P.P.l   ",
"  X Z Z Z Z Z Z U P.P.P.P.X.<.R.'.'.'.d.a.'.'.'.d.P.P.P.P.P.P.P.P.P.P.P.P.e   ",
"  X Z Z Z Z Z Z y U.P.P.P.F.B.$.W.'.'.'.'.'.'.R.l.P.P.P.P.P.P.P.P.P.P.P.P.1   ",
"    a Z Z Z Z Z V $.P.P.P.P.P.P.l.9.).'.'.).} l.P.P.P.P.P.P.P.P.P.P.P.P.b..   ",
"    0 S Z Z Z Z Z d U.P.P.P.P.P.P.P.=.*.-.j.L.P.P.P.P.P.P.P.P.P.P.P.P.P.l     ",
"    o K Z Z Z Z Z V ) I.P.P.P.P.P.P.P.P.P.P.P.P.P.P.P.P.P.P.P.P.P.P.P.t..     ",
"      > Q Z Z Z Z Z n #.I.P.P.P.P.P.P.P.P.P.P.P.P.P.P.P.P.P.P.P.b.n.D.#       ",
"        d Q S Z Z Z Z n &.T.P.P.P.P.P.P.P.P.P.P.P.P.P.P.P.P.P.P.P.) <         ",
"        O ^ [ A Z Z Z Z n  ./.Y.P.P.P.P.P.P.P.P.P.P.P.B.P.P.P.P.P.1           ",
"          > O.O.W Z Z Z Z m H K./.^.T.T.I.I.I.I.T.T.^.#.F.P.P.P....           ",
"            d O.[ E Z Z Z Z Z i Y S.(.(.(.(.(.(.(.(.(.~.` @.@.U X             ",
"            : O.O.[ A Z Z Z Z Z Z r c #.p.A.J.J.A.r.| I y n n 6               ",
"              s O.[ ] A Z Z Z Z Z Z Z Z V m n n m Z Z Z Z S D =               ",
"                ; ~ :.O.L V Z Z Z Z Z Z Z Z Z Z Z Z Z Z Q G :                 ",
"                  . w { [ { D Z C C Z Z Z Z Z Z Z Z A { q .                   ",
"                      @ L [ ;.[ { W E D A S A D Q { { #                       ",
"                        X 9 H [ O.;.[ [ { L T J G d @                         ",
"                              . # # o . .                                     ",
"                                                                              "
};
