/* XPM */
static char *c28d55e166d240c6b4ace1b1f20e4869G6yRJp6zFbELJhdV[] = {
/* columns rows colors chars-per-pixel */
"50 50 178 2 ",
"   c #07131A",
".  c #181713",
"X  c #14181A",
"o  c #25180C",
"O  c #201E1C",
"+  c #2A241C",
"@  c #35261A",
"#  c #1A2427",
"$  c #15252C",
"%  c #142A35",
"&  c #1A2B35",
"*  c #1B2F39",
"=  c #232321",
"-  c #292827",
";  c #352C24",
":  c #3F3022",
">  c #3D3229",
",  c #232C31",
"<  c #273339",
"1  c #343737",
"2  c #492A12",
"3  c #502E13",
"4  c #573214",
"5  c #50351B",
"6  c #623917",
"7  c #673D1A",
"8  c #4A3624",
"9  c #4B392B",
"0  c #573F2B",
"q  c #423931",
"w  c #59422D",
"e  c #6E4825",
"r  c #664528",
"t  c #6F4C2A",
"y  c #714A25",
"u  c #724E2D",
"i  c #7A512A",
"p  c #664A35",
"a  c #734E33",
"s  c #6E523B",
"d  c #7A5433",
"f  c #73543B",
"g  c #133142",
"h  c #193646",
"j  c #15374A",
"k  c #163B4F",
"l  c #173C51",
"z  c #233843",
"x  c #1A445C",
"c  c #1C4B65",
"v  c #1F526D",
"b  c #1F5470",
"n  c #215674",
"m  c #215876",
"M  c #225C7B",
"N  c gray32",
"B  c #695547",
"V  c #745946",
"C  c #7B5C44",
"Z  c #7D624A",
"A  c #6F6F6F",
"S  c gray48",
"D  c #84572B",
"F  c #86592D",
"G  c #8D5C2E",
"H  c #825833",
"J  c #8C5F3F",
"K  c #92602F",
"L  c #956231",
"P  c #986432",
"I  c #9E6A39",
"U  c #A16D3D",
"Y  c #976742",
"T  c #8B6E5A",
"R  c #946F52",
"E  c #8A715C",
"W  c #9B7253",
"Q  c #987558",
"!  c #A77343",
"~  c #AB754B",
"^  c #AD7A4C",
"/  c #B0764E",
"(  c #A97956",
")  c #B17D51",
"_  c #8F7968",
"`  c #9D7C64",
"'  c #957C69",
"]  c #A07F68",
"[  c #B48155",
"{  c #B5845B",
"}  c #BA865B",
"|  c #BD8A5E",
" . c #9E836E",
".. c #97867A",
"X. c #A98266",
"o. c #A3826A",
"O. c #A9866D",
"+. c #BF8B60",
"@. c #A38775",
"#. c #A48976",
"$. c #AF8C74",
"%. c #AC8E79",
"&. c #B28D73",
"*. c #B3917A",
"=. c #BA957A",
"-. c #C48357",
";. c #CD895B",
":. c #D38D5E",
">. c #C18861",
",. c #DD9462",
"<. c #C29A7F",
"1. c #E69A66",
"2. c #E89B67",
"3. c #E79C69",
"4. c #EBA473",
"5. c #EDAA7C",
"6. c #245F80",
"7. c #266486",
"8. c #27668A",
"9. c #27688B",
"0. c #286A8E",
"q. c #296E93",
"w. c #2A7095",
"e. c #2C759D",
"r. c #968E8A",
"t. c #939190",
"y. c #9D9690",
"u. c #999999",
"i. c #A59285",
"p. c #AA9687",
"a. c #B29A89",
"s. c #A59D96",
"d. c #B19E90",
"f. c #A5A09D",
"g. c #ACA29C",
"h. c #BDA899",
"j. c #A2A2A2",
"k. c #ABA5A1",
"l. c #ADACAB",
"z. c gray69",
"x. c #BCBCBC",
"c. c #C69E81",
"v. c #C89F83",
"b. c #CCA284",
"n. c #D8A683",
"m. c #D1A788",
"M. c #D6AA8B",
"N. c #DAAE8E",
"B. c #D6B095",
"V. c #DEB190",
"C. c #F0AE80",
"Z. c #F3B388",
"A. c #F4B98E",
"S. c #E4B594",
"D. c #EBBA97",
"F. c #EDBC9A",
"G. c #F6BC93",
"H. c #DBBAA4",
"J. c #F3C19E",
"K. c #FBC59F",
"L. c #DBC3B3",
"P. c #FBC7A1",
"I. c #FECAA5",
"U. c #FACCAB",
"Y. c #E2C9BA",
"T. c #F2CCB2",
"R. c #FBCFB0",
"E. c #F7D3BA",
"W. c #FDD7BC",
"Q. c #C1C1C1",
"!. c gray84",
"~. c #DADADA",
"^. c #FDE1CE",
"/. c #FFE4D2",
"(. c #E4E4E4",
"). c #EDEDED",
"_. c #F6F6F6",
"`. c #F9F9F9",
/* pixels */
"e.e.e.e.e.e.e.e.e.e.e.e.e.e.e.e.e.e.e.e.e.e.e.e.e.e.e.e.e.e.e.e.e.e.e.e.e.e.e.e.e.e.e.e.e.e.e.e.e.e.",
"e.e.e.e.e.e.e.e.e.e.e.e.e.e.e.e.e.e.e.e.e.e.e.e.e.e.e.e.e.e.e.e.e.e.e.e.e.e.e.e.e.e.e.e.e.e.e.e.e.e.",
"e.e.e.e.e.e.e.e.e.e.e.e.e.e.e.e.e.e.e.e.e.e.e.e.e.e.e.e.e.e.e.e.e.e.e.e.e.e.e.e.e.e.e.e.e.e.e.e.e.e.",
"e.e.e.e.e.e.e.e.e.e.e.e.e.e.e.e.e.e.e.e.e.e.e.e.e.e.e.e.e.e.e.e.e.e.e.e.e.e.e.e.e.e.e.e.e.e.e.e.e.e.",
"e.e.e.e.e.e.e.e.e.e.e.e.e.e.e.e.e.e.e.e.e.e.e.e.e.e.e.e.e.e.e.e.e.e.e.e.e.e.e.e.e.e.e.e.e.e.e.e.e.e.",
"e.e.e.e.e.e.e.e.e.e.e.e.e.e.e.e.e.e.e.e.e.e.e.e.e.e.e.e.e.e.e.e.e.e.e.e.e.e.e.e.e.e.e.e.e.e.e.e.e.e.",
"e.e.e.e.e.e.e.e.e.e.e.e.e.e.e.e.e.e.e.e.w.m l g k g & % x 7.e.e.e.e.e.e.e.e.e.e.e.e.e.e.e.e.e.e.e.e.",
"e.e.e.e.e.e.e.e.e.e.e.e.e.e.e.e.e.e.q.l . 5 F P D K P L H 8 g 8.e.e.e.e.e.e.e.e.e.e.e.e.e.e.e.e.e.e.",
"e.e.e.e.e.e.e.e.e.e.e.e.e.e.e.e.e.b + y P P P P P P P P P P Y q x e.e.e.e.e.e.e.e.e.e.e.e.e.e.e.e.e.",
"e.e.e.e.e.e.e.e.e.e.e.e.e.e.e.q.k @ K P P P P P P P P P P P P ^ s * 9.e.e.e.e.e.e.e.e.e.e.e.e.e.e.e.",
"e.e.e.e.e.e.e.e.e.e.e.e.e.e.7.X 3 P P P P P P P P P P P P P P P ^ ^ q x w.w.e.e.e.e.e.e.e.e.e.e.e.e.",
"e.e.e.e.e.e.e.e.e.e.e.e.e.8.X 4 7 P P P P P P P P P P P P P P P P } | f - c e.e.e.e.e.e.e.e.e.e.e.e.",
"e.e.e.e.e.e.e.e.e.e.e.e.e.x 2 6 7 K P P L G G P P P P P L P P P P U +.+.>.f j e.e.e.e.e.e.e.e.e.e.e.",
"e.e.e.e.e.e.e.e.e.e.e.e.e.$ 6 6 3 r R o.&.<.=.=.O.Q C e P P P P P P ! | +.| w m e.e.e.e.e.e.e.e.e.e.",
"e.e.e.e.e.e.e.e.e.e.e.e.e.# 4 p <.I.I.I.I.I.I.I.I.I.I.B.T t P P P P P U | +.{ $ e.e.e.e.e.e.e.e.e.e.",
"e.e.e.e.e.e.e.e.e.e.e.e.e.O ( I.I.I.I.I.I.I.I.I.I.I.I.I.P.B.Z G P P P P I | | f x e.e.e.e.e.e.e.e.e.",
"e.e.e.e.e.e.e.e.e.e.e.q.& a X.@.K.I.I.I.I.I.J.D.I.I.I.I.I.I.E.' i P P P P I } | : M e.e.e.e.e.e.e.e.",
"e.e.e.e.e.e.e.e.q.j 1 N B >.I.P.I.I.I.I.I.I.I.` P.I.I.I.I.I.I.R. .F P P P P U | { & e.e.e.e.e.e.e.e.",
"e.e.e.e.e.e.e.8.< x.`.`.`.~.p.P.I.I.I.I.I.I.I.J.*.o.b.P.I.I.I.I.W._ G P P P P ^ +.f b e.e.e.e.e.e.e.",
"e.e.e.e.e.e.e., ~.`.`.`.`.`.).#.I.I.I.I.I.J.<.*.*.<.m.b.I.I.I.I.U.E.s P P P P P | [ # e.e.e.e.e.e.e.",
"e.e.e.e.e.e.c j.`.`.`.`.`.`.`.l.V.I.I.I.#.f.(.`.`.(.t.V.I.I.I.I.I.R.Y.d P P P P [ | @ e.e.e.e.e.e.e.",
"e.e.e.e.e.e.g ).l.u.`.`.`.`.`._.$.I.I.#.~.`.`.`.`.`.`.s.V.I.I.I.I.I.^._ L P P P ! | w 7.e.e.e.e.e.e.",
"e.e.e.e.e.e.h `.!.u.`.`.`.`.`.`.*.I.m.x.`.`.`.`.`.`.`.`...I.I.I.I.I.W.Y.u P P P I | f M e.e.e.e.e.e.",
"e.e.e.e.e.e.h _.`.`.`.`.`.`.`.).=.I.i.`.`.`.`.`.`.`.`.`.Q.<.I.I.I.I.R./.E P P P P } p M e.e.e.e.e.e.",
"e.e.e.e.e.e.l !.`.`.`.`.`.`.`.z.V.I.g.`.`.`.`.`.`._.`.`._. .P.I.I.I.I./.p.L P P P } 8 9.e.e.e.e.e.e.",
"e.e.e.e.e.e.n A `.`.`.`.`.`._.i.I.I.l.`.`.`.`.`.`.S N `.`.a.I.I.I.I.I./.Y.i P P P [ @ w.e.e.e.e.e.e.",
"e.e.e.e.e.e.v H s.`.`.`.`.`.s.S.I.I.g.`.`.`.`.`.`.).(.`.`. .I.I.I.I.I.^./.e P P P ) @ e.e.e.e.e.e.e.",
"e.e.e.e.e.e.l -.;.' r.l.k...V.I.I.I.@._.`.`.`.`.`.`.`.`.x.m.I.I.I.I.I.^./.u P P P ) + e.e.e.e.e.e.e.",
"e.e.e.e.e.e.g 1.2.G.I.I.I.O.b.I.I.I.J..._.`.`.`.`.`.`.`.d.I.I.I.I.I.I.^./.a P P P [ = e.e.e.e.e.e.e.",
"e.e.e.e.e.e.* 2.2.A.I.I.n.c.I.I.I.I.I.J.i.~.`.`.`.`.`.y.V.I.I.I.I.I.I././.t P P P } = e.e.e.e.e.e.e.",
"e.e.e.e.e.e.< 1.2.A.I.G.,.W Q *.F.I.I.I.I.M.p.s.t.y.a.F.I.I.I.I.I.I.U./.^.e P P U | # e.e.e.e.e.e.e.",
"e.e.e.e.e.e.z 3.3.C.I.I.G.G.P.I.I.I.I.I.I.I.I.I.I.I.I.I.I.I.I.I.I.I.R./.L.y P P ^ W j e.e.e.e.e.e.e.",
"e.e.e.e.e.e.g :.2.4.I.I.I.I.I.I.I.I.I.I.I.I.I.I.I.I.I.I.I.I.I.I.I.I.T./.h.L P I { ; q.e.e.e.e.e.e.e.",
"e.e.e.e.e.e.v Y 2.1.P.I.I.I.=.I.I.I.I.I.I.I.I.I.I.I.I.I.I.I.I.I.I.I.%.B. .P P ) q b e.e.e.e.e.e.e.e.",
"e.e.e.e.e.e.q.; 2.2.A.I.I.I.] I.I.I.I.I.I.I.I.I.I.I.I.I.I.I.I.I.I.I.U.o.p P ! s x e.e.e.e.e.e.e.e.e.",
"e.e.e.e.e.e.e.k ~ 2.4.I.I.F.] I.I.I.I.I.I.I.I.I.I.I.I.I.I.I.I.I.I.I.I.I.a L ! & e.e.e.e.e.e.e.e.e.e.",
"e.e.e.e.e.e.e.q.> 3.2.G.I.n.] T I.N.I.I.I.I.I.I.I.I.I.I.I.I.I.I.I.I.I.P.t P 0 b e.e.e.e.e.e.e.e.e.e.",
"e.e.e.e.e.e.e.e.c a 2.3.P.A./ ] v.M.I.I.I.I.I.I.I.I.I.I.I.I.I.P.I.I.U.` o . x e.e.e.e.e.e.e.e.e.e.e.",
"e.e.e.e.e.e.e.e.e.h -.1.5.I.P.( $.I.I.I.I.I.I.I.I.I.I.I.I.I.I.M.N.D.*.z q.e.e.e.e.e.e.e.e.e.e.e.e.e.",
"e.e.e.e.e.e.e.e.e.q.; ;.2.C.I.I.I.I.I.I.I.I.I.I.U.I.I.I.I.I.I.T...  l w.e.e.e.e.e.e.e.e.e.e.e.e.e.e.",
"e.e.e.e.e.e.e.e.e.e.7.= ;.1.4.P.U.I.I.I.I.I.I.I.I.I.I.I.I.I.U.H., 0.e.e.e.e.e.e.e.e.e.e.e.e.e.e.e.e.",
"e.e.e.e.e.e.e.e.e.e.e.8., J 3.3.Z.P.I.I.I.I.I.I.I.I.I.I.I.P.a.< 8.e.e.e.e.e.e.e.e.e.e.e.e.e.e.e.e.e.",
"e.e.e.e.e.e.e.e.e.e.e.e.e.l = J :.3.C.G.P.P.I.P.I.I.U.I.D.B j w.e.e.e.e.e.e.e.e.e.e.e.e.e.e.e.e.e.e.",
"e.e.e.e.e.e.e.e.e.e.e.e.e.e.e.v g & 1 q 9 p B C V B p 1 h M e.e.e.e.e.e.e.e.e.e.e.e.e.e.e.e.e.e.e.e.",
"e.e.e.e.e.e.e.e.e.e.e.e.e.e.e.e.e.e.e.e.e.w.7.6.M 0.e.e.e.e.e.e.e.e.e.e.e.e.e.e.e.e.e.e.e.e.e.e.e.e.",
"e.e.e.e.e.e.e.e.e.e.e.e.e.e.e.e.e.e.e.e.e.e.e.e.e.e.e.e.e.e.e.e.e.e.e.e.e.e.e.e.e.e.e.e.e.e.e.e.e.e.",
"e.e.e.e.e.e.e.e.e.e.e.e.e.e.e.e.e.e.e.e.e.e.e.e.e.e.e.e.e.e.e.e.e.e.e.e.e.e.e.e.e.e.e.e.e.e.e.e.e.e.",
"e.e.e.e.e.e.e.e.e.e.e.e.e.e.e.e.e.e.e.e.e.e.e.e.e.e.e.e.e.e.e.e.e.e.e.e.e.e.e.e.e.e.e.e.e.e.e.e.e.e.",
"e.e.e.e.e.e.e.e.e.e.e.e.e.e.e.e.e.e.e.e.e.e.e.e.e.e.e.e.e.e.e.e.e.e.e.e.e.e.e.e.e.e.e.e.e.e.e.e.e.e.",
"e.e.e.e.e.e.e.e.e.e.e.e.e.e.e.e.e.e.e.e.e.e.e.e.e.e.e.e.e.e.e.e.e.e.e.e.e.e.e.e.e.e.e.e.e.e.e.e.e.e."
};
