/* XPM */
static char *_a8f91946c024ef6dd9e3c80f83f1172NYK4584sd4wbc26Z[] = {
/* columns rows colors chars-per-pixel */
"44 44 182 2 ",
"   c None",
".  c #010101",
"X  c #0A0704",
"o  c #0E0904",
"O  c #0B0A0A",
"+  c #130C06",
"@  c #130D09",
"#  c #1D130D",
"$  c #1E1E1E",
"%  c gray7",
"&  c #22160B",
"*  c #321D0D",
"=  c #261B12",
"-  c #2A1C13",
";  c #201710",
":  c #39220F",
">  c #2E2117",
",  c #34271A",
"<  c #3B291C",
"1  c #322216",
"2  c #222222",
"3  c #382D24",
"4  c #313131",
"5  c #3E3E3E",
"6  c #422C1B",
"7  c #512F13",
"8  c #563214",
"9  c #50341C",
"0  c #5C3D1F",
"q  c #633917",
"w  c #693E1A",
"e  c #453222",
"r  c #4B3322",
"t  c #4E3927",
"y  c #43362C",
"u  c #573A26",
"i  c #5C3E29",
"p  c #5B3F26",
"a  c #5B432E",
"s  c #5D4530",
"d  c #654222",
"f  c #6A4624",
"g  c #674629",
"h  c #774E27",
"j  c #7A4C23",
"k  c #7B522B",
"l  c #654C34",
"z  c #6B4C33",
"x  c #624732",
"c  c #7B5434",
"v  c #77563C",
"b  c #7A5538",
"n  c gray29",
"m  c #5F5248",
"M  c #585553",
"N  c #6D5747",
"B  c #775B46",
"V  c #7C6553",
"C  c #776658",
"Z  c #7B7069",
"A  c gray50",
"S  c #84562B",
"D  c #8B5C2D",
"F  c #865D3E",
"G  c #956231",
"H  c #986432",
"J  c #9D6A39",
"K  c #A16E3F",
"L  c #845E41",
"P  c #866042",
"I  c #8C6546",
"U  c #946C4B",
"Y  c #986F4C",
"T  c #856A56",
"R  c #8D6B53",
"E  c #866D58",
"W  c #92755E",
"Q  c #9D7458",
"!  c #A36F40",
"~  c #AB7749",
"^  c #AE7A4C",
"/  c #A67347",
"(  c #A07454",
")  c #A67A57",
"_  c #B37C52",
"`  c #B77D56",
"'  c #867160",
"]  c #8B7362",
"[  c #84756A",
"{  c #967964",
"}  c #9B7B65",
"|  c #967E6C",
" . c #947A68",
".. c #857A72",
"X. c #897D74",
"o. c #907F74",
"O. c #A17E66",
"+. c #B58155",
"@. c #B48259",
"#. c #BA875C",
"$. c #BD8A5F",
"%. c #8D827B",
"&. c #95867D",
"*. c #97887E",
"=. c #9A8577",
"-. c #A5846B",
";. c #AE876B",
":. c #BF8B60",
">. c #B1896D",
",. c #AD8B73",
"<. c #B38E74",
"1. c #B59176",
"2. c #B6947B",
"3. c #BC967A",
"4. c #B89177",
"5. c #C78559",
"6. c #D38D5E",
"7. c #DE9462",
"8. c #C19A7E",
"9. c #E59966",
"0. c #E89B67",
"q. c #E99E6B",
"w. c #E69F6E",
"e. c #DAA37D",
"r. c #EAA16F",
"t. c #ECA575",
"y. c #F0AD7F",
"u. c #898785",
"i. c #969493",
"p. c #9C9B9B",
"a. c #AD9A8E",
"s. c #AB9484",
"d. c #B59D8B",
"f. c #B49F90",
"g. c #A3A09F",
"h. c #ADA9A7",
"j. c #A8A5A4",
"k. c #B3B2B1",
"l. c #BDBDBD",
"z. c #C59E82",
"x. c #D5AA8B",
"c. c #DCAF8F",
"v. c #C2A693",
"b. c #DEB190",
"n. c #EEAC80",
"m. c #F0AF83",
"M. c #EDB188",
"N. c #F1B185",
"B. c #F3B58A",
"V. c #F6B88F",
"C. c #E2B493",
"Z. c #EDBC99",
"A. c #E8B997",
"S. c #F6BC92",
"D. c #F1BF9C",
"F. c #F8BE95",
"G. c #CBB5A7",
"H. c #D1BBAD",
"J. c #E4BEA4",
"K. c #F4C29E",
"L. c #FAC29B",
"P. c #F7C5A0",
"I. c #FBC6A2",
"U. c #FECAA5",
"Y. c #FDCCAA",
"T. c #E3CBBB",
"R. c #FDCFB1",
"E. c #FDD7BD",
"W. c #FDD8BF",
"Q. c #F7D3BB",
"!. c #CACACA",
"~. c #D5D5D5",
"^. c #DDDDDD",
"/. c #EDD3C1",
"(. c #FDDBC3",
"). c #FCDDC8",
"_. c #FFE2CE",
"`. c #FFE4D2",
"'. c #E4E4E4",
"]. c #ECECEC",
"[. c #F3F3F3",
"{. c #F9F9F9",
/* pixels */
"                                                                                        ",
"                                                                                        ",
"                            . # , < 3 r t l v P I I B , @                               ",
"                          = Y :.$.+.+.+.+.+.@.$.5.:.$.:.$.l @                           ",
"                        e +.+.K H H H H H H G H J K +.#.:.$.) >                         ",
"                    O t +.J H H H H H H H H H H G G G H / #.5.$.a X                     ",
"                . r U ^ J H H H H H H H H H H H H H H H H H +.$.:.Q e .                 ",
"                6 K H H H H G G H H H H G H H H H G H H H H H / :.:.:.I o               ",
"              . h H H G d z W =.=.&.*.%.=.E l h H H H H H H H H ~ $.$.:.s               ",
"              . l R B m T.`.`.`._.`.`.`._.`.`.G.] f H H H H H H H ^ $.5.@.O             ",
"            X { U.U.U.c.*.`.`._._.W.W.W.W._._._.`./.C f H H H H H H +.$.:.a             ",
"            V U.U.U.U.U.z.J.Y.U.U.U.U.U.U.L.U.Y.R.W.`.H.l G H H H H H +.:.@.=           ",
"          O ,.U.U.U.U.U.U.U.U.U.U.U.U.U.U.U.U.U.U.U.U.W.Q.C S H H H H H ~ $.Y .         ",
"        X a.1.U.U.U.U.U.U.U.U.U.U.U.U.U.U.U.U.U.U.U.U.U.R.Q.' D H H H H H J +.a         ",
"      O a.(.,.U.U.U.U.U.U.U.U.U.U.U.U.U.U.U.U.U.U.U.U.U.U.U.W.N G H H H H H H ) ;       ",
"      ] Y.U.Y.U.U.U.U.U.U.U.U.U.U.U.U.U.U.U.U.U.U.U.U.U.U.U.U.Q.a H H H H H H H F .     ",
"    y U.U.U.U.U.U.U.U.U.U.U.U.U.U.U.U.U.K.K.U.U.U.U.U.U.U.U.U.U.f.k H H H H H H J ,     ",
"  . x.U.U.U.U.U.U.U.U.U.U.U.U.U.U.K.,.%.p.l.g.%.2.U.U.U.U.U.U.U.Y.Z H H H H H H H c .   ",
"  3 U.U.U.U.U.U.U.U.U.U.U.U.U.U.b.%.'.{.{.{.{.{.^.[ K.U.U.U.U.U.U.K.f H H H H H H H X   ",
"  E U.U.U.U.U.U.U.U.U.U.U.U.U.U...{.{.{.{.{.{.{.{.{.Z K.,.U.U.U.U.U.B H H H H H H H &   ",
"  } U.U.U.U.U.U.U.U.U.U.U.U.U.<.~.{.{.{.l.2 [.{.{.{.].] } K.U.U.U.U.-.G H H H H H H &   ",
"  >.U.U.U.U.U.U.U.U.U.U.U.U.U.f.{.{.{.{.].i.{.{.{.{.{.j.b.3.U.U.U.U.b.d H H H H H H +   ",
"  <.U.U.U.U.U.U.U.U.U.U.U.U.U.f.{.{.{.{.{.{.{.{.{.{.{.h.b.T U.U.U.U.P.0 H H H H H H .   ",
"  <.U.U.U.U.U.U.U.U.U.U.U.U.U.s.{.{.{.{.{.{.{.{.{.{.{.k.b.b.W U.U.U.U.c H H H H H H o   ",
"  >.U.U.U.U.U.U.U.U.U.U.U.U.U.,.'.{.{.{.{.{.{.{.{.{.{.h.L.U.b.x.U.U.U.P H H H H H H X   ",
"  ) U.U.U.U.U.U.U.U.U.U.U.U.U.Z.h.{.{.{.{.{.{.{.{.{.{.*.U.U.U.U.U.U.U.P H H H H H k .   ",
"  U U.U.U.U.U.U.U.U.U.U.U.U.U.U.] [.{.{.{.{.{.{.{.{.~.8.U.U.U.U.U.U.U.b H H H H H 9     ",
"  F I.Y.U.U.U.U.U.U.U.U.U.U.U.U.P...{.{.{.{.{.{.{.'.=.U.U.U.U.U.U.U.U.g H H H H H +     ",
"  z F.U.U.U.U.U.U.U.U.U.U.U.U.U.U.b.%.'.{.{.{.{.p.=.U.U.U.U.U.U.U.U.A.d H H H H w       ",
"  u N.U.U.U.U.U.U.U.U.U.U.U.U.U.U.U.U.2.X.&.*. .Z.U.U.U.U.U.U.U.U.U.3.S H H H S o       ",
"  < q.U.U.U.U.D.{ U.U.U.U.U.U.U.U.U.U.U.U.U.U.U.U.U.U.U.U.U.U.U.U.U.R j H H G #         ",
"  # 0.V.U.U.8.} Z.U.U.U.U.U.U.K.P.U.U.U.U.U.L.x.4.1.x.U.U.U.U.U.U.U.r q w w : .         ",
"  . ` q.I.U.Q >.O.8.U.U.U.U.U.<.A.U.U.U.Z.s.i.!.[.].H.A z.I.U.} K.O.8 q q 7 o           ",
"    i 0.y.U.L.w.B K.Z.-.} U.U.<.U.U.;.b.u.].{.{.{.{.{.{.k.3.U.,.e.9 q q 7 +             ",
"    X 5.9.B.U.S.` R <.Z.U.U.U.Q U.c.<.[ {.{.{.{.{.{.{.{.{.u.M.( r * * + .               ",
"      < 9.0.N.U.Y.U.I.U.U.U.L.5.Q -.Z.!.{.{.{.{.{.{.{.{.{.].F -                         ",
"      . c 0.0.y.I.U.U.U.U.U.U.t.N.U.1.'.{.{.{.{.{.{.{.{.{.{.M                           ",
"        . F 0.0.q.V.L.U.U.U.U.U.U.U.2.^.{.{.{.{.{.{.{.{.{.{.n                           ",
"          . z 9.0.0.t.n.L.U.U.U.U.U.C.l.{.{.{.{.{.{.{.{.{.{.$                           ",
"              = ` 0.0.0.9.q.t.N.V.S.F.X.{.{.{.{.'.4 ].{.{.A                             ",
"                . u 6.0.0.0.0.0.0.0.0._ ~.{.{.{.'.A [.{.!.O                             ",
"                    @ i ` 0.0.0.0.q.0.7.N g.].{.{.{.].u.%                               ",
"                        . X 1 9 6 - @ . .   . $ 5 4 O                                   ",
"                                                                                        "
};
