/* XPM */
static char *_aab637fb72c466eb721eb9ff14c1c449DakmQ7hF62Lzbdf[] = {
/* columns rows colors chars-per-pixel */
"50 50 176 2 ",
"   c #050F14",
".  c #181A1A",
"X  c #26190D",
"o  c #27231D",
"O  c #38281B",
"+  c #192124",
"@  c #12222A",
"#  c #1C272C",
"$  c #162A34",
"%  c #192A33",
"&  c #132E3C",
"*  c #15303F",
"=  c #1D303A",
"-  c #232525",
";  c #2E2A26",
":  c #37322B",
">  c #262E32",
",  c #263238",
"<  c #383D3F",
"1  c #482A12",
"2  c #553114",
"3  c #55381C",
"4  c #633917",
"5  c #6A3F1B",
"6  c #493626",
"7  c #543D2B",
"8  c #403730",
"9  c #5E4430",
"0  c #594639",
"q  c #6B4624",
"w  c #744C27",
"e  c #714C29",
"r  c #74512F",
"t  c #7F562F",
"y  c #664A33",
"u  c #6E4C33",
"i  c #6E523C",
"p  c #795635",
"a  c #76563C",
"s  c #112F40",
"d  c #143243",
"f  c #173647",
"g  c #163A4E",
"h  c #173D52",
"j  c #183E54",
"k  c #184157",
"l  c #19445B",
"z  c #1C4A64",
"x  c #1D4E6A",
"c  c #1F516D",
"v  c #215674",
"b  c #225C7B",
"n  c #434443",
"m  c #555555",
"M  c #6C5545",
"N  c #765A46",
"B  c #785E46",
"V  c #7E6B5B",
"C  c #6E6E6E",
"Z  c #83562B",
"A  c #87592C",
"S  c #8E5D2E",
"D  c #915E2E",
"F  c #885B3D",
"G  c #8A603B",
"H  c #966231",
"J  c #986432",
"K  c #9B6836",
"L  c #9E6A3A",
"P  c #A06C3D",
"I  c #8D6B4F",
"U  c #986947",
"Y  c #8A6E5A",
"T  c #966F54",
"R  c #8C725B",
"E  c #9E7255",
"W  c #93735C",
"Q  c #A67244",
"!  c #A8774E",
"~  c #AD794B",
"^  c #A87A55",
"/  c #B27D51",
"(  c #8F7A6B",
")  c #9E7D66",
"_  c #9D7E6A",
"`  c #897B72",
"'  c #917F71",
"]  c #A07F69",
"[  c #B48155",
"{  c #B5835B",
"}  c #BA875B",
"|  c #BD8A5E",
" . c #988373",
".. c #9B8A7D",
"X. c #A5836B",
"o. c #AA8468",
"O. c #BF8B60",
"+. c #AB8B74",
"@. c #B18E74",
"#. c #AE907B",
"$. c #B59076",
"%. c #B3927B",
"&. c #BD967B",
"*. c #C9875A",
"=. c #CD895B",
"-. c #D38E5E",
";. c #D79060",
":. c #DF9663",
">. c #C29B7F",
",. c #E19764",
"<. c #E69B67",
"1. c #E89B67",
"2. c #E99D6A",
"3. c #DAA47E",
"4. c #ECA474",
"5. c #EDAA7D",
"6. c #245F80",
"7. c #256284",
"8. c #27678A",
"9. c #27688B",
"0. c #286A8E",
"q. c #296E93",
"w. c #2B7096",
"e. c #2C759D",
"r. c gray55",
"t. c #9F8E83",
"y. c #9A938D",
"u. c #9B9793",
"i. c #AA9484",
"p. c #A9978B",
"a. c #A29994",
"s. c #A49F9B",
"d. c #A8A09C",
"f. c #B5A59A",
"g. c #A7A6A5",
"h. c #ABA5A1",
"j. c #ABAAA9",
"k. c #BAB4AF",
"l. c #B4B4B4",
"z. c gray",
"x. c #CCA284",
"c. c #D1A689",
"v. c #D9AC8D",
"b. c #DDB08F",
"n. c #DEB190",
"m. c #D6B198",
"M. c #F1B184",
"N. c #F3B58A",
"B. c #F5B98F",
"V. c #E2B393",
"C. c #E8B897",
"Z. c #EBBB99",
"A. c #F6BC93",
"S. c #F4BF99",
"D. c #F4C29E",
"F. c #FAC39C",
"G. c #DEC0AB",
"H. c #DEC6B7",
"J. c #EEC9AE",
"K. c #F7C4A0",
"L. c #FCC7A1",
"P. c #FECAA5",
"I. c #FCCDAB",
"U. c #E4CCBC",
"Y. c #FCCFB1",
"T. c #FDD2B4",
"R. c #FDD6BB",
"E. c #C5C5C5",
"W. c #CDCDCD",
"Q. c #DDDDDD",
"!. c #FDE1CE",
"~. c #FFE4D2",
"^. c gray90",
"/. c #EAEAEA",
"(. c #F5F5F5",
"). c #F9F9F9",
/* pixels */
"e.e.e.e.e.e.e.e.e.e.e.e.e.e.e.e.e.e.e.e.e.e.e.e.e.e.e.e.e.e.e.e.e.e.e.e.e.e.e.e.e.e.e.e.e.e.e.e.e.e.",
"e.e.e.e.e.e.e.e.e.e.e.e.e.e.e.e.e.e.e.e.e.e.e.e.e.e.e.e.e.e.e.e.e.e.e.e.e.e.e.e.e.e.e.e.e.e.e.e.e.e.",
"e.e.e.e.e.e.e.e.e.e.e.e.e.e.e.e.e.e.e.e.e.e.e.e.e.e.e.e.e.e.e.e.e.e.e.e.e.e.e.e.e.e.e.e.e.e.e.e.e.e.",
"e.e.e.e.e.e.e.e.e.e.e.e.e.e.e.e.e.e.e.e.e.e.e.e.e.e.e.e.e.e.e.e.e.e.e.e.e.e.e.e.e.e.e.e.e.e.e.e.e.e.",
"e.e.e.e.e.e.e.e.e.e.e.e.e.e.e.e.e.e.e.e.e.e.e.e.e.e.e.e.e.e.e.e.e.e.e.e.e.e.e.e.e.e.e.e.e.e.e.e.e.e.",
"e.e.e.e.e.e.e.e.e.e.e.e.e.e.e.e.e.e.e.e.e.e.e.e.e.e.e.e.e.e.e.e.e.e.e.e.e.e.e.e.e.e.e.e.e.e.e.e.e.e.",
"e.e.e.e.e.e.e.e.e.e.e.e.e.e.e.e.e.e.e.e.7.k * % s h & g v e.e.e.e.e.e.e.e.e.e.e.e.e.e.e.e.e.e.e.e.e.",
"e.e.e.e.e.e.e.e.e.e.e.e.e.e.e.e.e.e.w.& 6 Z H H H Z H A 3 . g q.e.e.e.e.e.e.e.e.e.e.e.e.e.e.e.e.e.e.",
"e.e.e.e.e.e.e.e.e.e.e.e.e.e.e.e.e.k : G J J J J H H J J J J q o v e.e.e.e.e.e.e.e.e.e.e.e.e.e.e.e.e.",
"e.e.e.e.e.e.e.e.e.e.e.e.e.e.e.0.$ y ~ J J J J J K H J J J J H S O j w.e.e.e.e.e.e.e.e.e.e.e.e.e.e.e.",
"e.e.e.e.e.e.e.e.e.e.e.e.e.e.h : ^ ~ J J J J J J H J J J J J H H H 1 . 6.e.e.e.e.e.e.e.e.e.e.e.e.e.e.",
"e.e.e.e.e.e.e.e.e.e.e.e.k > u O.} J J J J J J H J J J J J J J J H 5 2 . q.e.e.e.e.e.e.e.e.e.e.e.e.e.",
"e.e.e.e.e.e.e.e.e.e.e.f a *.O.O.L H K H J J J H J J H S D H J J S 4 4 1 j e.e.e.e.e.e.e.e.e.e.e.e.e.",
"e.e.e.e.e.e.e.e.e.e.v 7 O.O.O.Q K H J J H H w G W X.@.>.&.$.o.I y 2 4 4 % e.e.e.e.e.e.e.e.e.e.e.e.e.",
"e.e.e.e.e.e.e.e.e.e.% ^ O.} Q J J H J J w Y m.P.P.P.P.P.P.P.P.P.P.&.N 2 + e.e.e.e.e.e.e.e.e.e.e.e.e.",
"e.e.e.e.e.e.e.e.e.l a | O.L J J J K A i J.P.P.P.P.P.P.P.P.P.P.P.P.P.L.^ . w.e.e.e.e.e.e.e.e.e.e.e.e.",
"e.e.e.e.e.e.e.e.7.6 | } K J H K J Z ( J.P.P.P.P.P.P.b.D.P.P.P.P.P.F.) o.u $ 9.e.e.e.e.e.e.e.e.e.e.e.",
"e.e.e.e.e.e.e.e.# { | P J J J H A  .T.F.P.P.P.P.P.D.W P.P.P.P.P.P.P.P.P./ M m < f 0.e.e.e.e.e.e.e.e.",
"e.e.e.e.e.e.e.x p | ~ J J J H S  .R.P.P.P.P.P.>.+.) D.P.P.P.P.P.P.P.D...W.).).).E.> 9.e.e.e.e.e.e.e.",
"e.e.e.e.e.e.e.@ { O.K J J J K B !.P.P.P.P.P.c.>.>.$.#.&.F.P.P.P.P.P.' (.).).).).).Q.$ e.e.e.e.e.e.e.",
"e.e.e.e.e.e.w.O O.[ H J J J q H.Y.P.P.P.P.P.b.y.^.).).^.k.#.P.P.P.v.l.).).).).).).).g.x e.e.e.e.e.e.",
"e.e.e.e.e.e.7.9 O.Q J J J J V !.F.P.P.P.P.n.u.).).).).).).Q.#.P.P.$.(.).).).).).r.j./.d e.e.e.e.e.e.",
"e.e.e.e.e.e.b p | K J J J e U.R.P.P.P.P.P.p.).).).).).).).).l.x.P.%.).).).).).).g.W.).f e.e.e.e.e.e.",
"e.e.e.e.e.e.7.y | J J J J R ~.I.P.P.P.P.x.W.).).).).).).).).).i.P.+.(.).).).).).).).).s e.e.e.e.e.e.",
"e.e.e.e.e.e.8.6 [ H H J H p.~.P.P.P.P.P.+.).).).).).).).).).).d.P.V.j.).).).).).).).W.h e.e.e.e.e.e.",
"e.e.e.e.e.e.w.O [ H J J w H.~.P.P.P.P.P.i.).).m C ).).).).).).j.P.P...).).).).).).(.C b e.e.e.e.e.e.",
"e.e.e.e.e.e.e.O [ H J J w ~.!.P.P.P.P.P._ (.).^./.).).).).).).f.P.P.b.s.).).).).(.h.F z e.e.e.e.e.e.",
"e.e.e.e.e.e.e.o [ J J J r ~.!.P.P.P.P.P.x.z.).).).).).).).)./.i.P.P.P.x.( h.j.y.W -.=.h e.e.e.e.e.e.",
"e.e.e.e.e.e.e.- [ H J J r ~.!.P.P.P.P.P.P...).).).).).).).(.t.K.P.P.P.@.) P.P.P.S.1.,.& e.e.e.e.e.e.",
"e.e.e.e.e.e.e.o | J J J r ~.~.P.P.P.P.P.P.C.u.).).).).).W. .K.P.P.P.P.P.>.3.P.P.A.<.<.= e.e.e.e.e.e.",
"e.e.e.e.e.e.e.+ *.L J H q !.~.I.P.P.P.P.P.P.C. .a.u.a.i.x.P.P.P.P.Z.X.o.T ,.D.P.N.1.1., e.e.e.e.e.e.",
"e.e.e.e.e.e.e.g I ~ J H t H.~.T.P.P.P.P.P.P.P.P.P.P.I.L.L.P.P.P.P.P.P.F.S.A.L.L.M.1.1.= e.e.e.e.e.e.",
"e.e.e.e.e.e.e.q.; } K J H f.~.J.P.P.P.P.P.P.P.P.P.P.P.P.P.P.P.P.P.P.P.P.P.P.P.P.4.2.-.f e.e.e.e.e.e.",
"e.e.e.e.e.e.e.e.c 6 ~ H H  .f.@.P.P.P.P.P.P.P.P.P.P.P.P.P.P.P.P.P.P.P.X.P.P.P.F.2.1.U c e.e.e.e.e.e.",
"e.e.e.e.e.e.e.e.e.z y Q H i @.F.P.P.P.P.P.P.P.P.P.P.P.P.P.P.P.P.P.P.P.+.P.P.P.B.1.1.O w.e.e.e.e.e.e.",
"e.e.e.e.e.e.e.e.e.e.@ ! K e P.P.P.P.P.P.P.P.P.P.P.P.P.P.P.P.P.P.P.P.P.] C.P.P.4.1.U g e.e.e.e.e.e.e.",
"e.e.e.e.e.e.e.e.e.e.c 7 H e P.P.P.P.P.P.P.P.P.P.P.P.P.P.P.P.P.P.v.P.Y X.3.P.B.1.:.; q.e.e.e.e.e.e.e.",
"e.e.e.e.e.e.e.e.e.e.e.k . X W P.P.P.P.P.P.P.P.P.P.P.P.P.P.P.P.P.v.>.o./ B.L.2.1.u z e.e.e.e.e.e.e.e.",
"e.e.e.e.e.e.e.e.e.e.e.e.e.8.= @.C.V.c.P.P.P.P.P.P.P.P.P.P.P.P.P.P.X.E F.P.5.1.*.d e.e.e.e.e.e.e.e.e.",
"e.e.e.e.e.e.e.e.e.e.e.e.e.e.q.k   ` T.P.P.P.P.P.P.P.P.P.P.P.I.P.P.P.P.F.M.1.=.; 9.e.e.e.e.e.e.e.e.e.",
"e.e.e.e.e.e.e.e.e.e.e.e.e.e.e.e.0.> G.P.P.P.P.P.P.P.P.P.P.P.P.P.P.P.F.4.<.*.- 8.e.e.e.e.e.e.e.e.e.e.",
"e.e.e.e.e.e.e.e.e.e.e.e.e.e.e.e.e.9.> $.P.P.P.P.P.P.P.P.P.P.P.F.P.N.2.,.F # 8.e.e.e.e.e.e.e.e.e.e.e.",
"e.e.e.e.e.e.e.e.e.e.e.e.e.e.e.e.e.e.w.g M v.P.P.P.P.P.P.P.P.F.5.1.;.F . z e.e.e.e.e.e.e.e.e.e.e.e.e.",
"e.e.e.e.e.e.e.e.e.e.e.e.e.e.e.e.e.e.e.e.8.& n 0 M B M i 9 9 8 > , d v w.e.e.e.e.e.e.e.e.e.e.e.e.e.e.",
"e.e.e.e.e.e.e.e.e.e.e.e.e.e.e.e.e.e.e.e.e.e.e.w.8.b 7.8.e.e.e.e.e.e.e.e.e.e.e.e.e.e.e.e.e.e.e.e.e.e.",
"e.e.e.e.e.e.e.e.e.e.e.e.e.e.e.e.e.e.e.e.e.e.e.e.e.e.e.e.e.e.e.e.e.e.e.e.e.e.e.e.e.e.e.e.e.e.e.e.e.e.",
"e.e.e.e.e.e.e.e.e.e.e.e.e.e.e.e.e.e.e.e.e.e.e.e.e.e.e.e.e.e.e.e.e.e.e.e.e.e.e.e.e.e.e.e.e.e.e.e.e.e.",
"e.e.e.e.e.e.e.e.e.e.e.e.e.e.e.e.e.e.e.e.e.e.e.e.e.e.e.e.e.e.e.e.e.e.e.e.e.e.e.e.e.e.e.e.e.e.e.e.e.e.",
"e.e.e.e.e.e.e.e.e.e.e.e.e.e.e.e.e.e.e.e.e.e.e.e.e.e.e.e.e.e.e.e.e.e.e.e.e.e.e.e.e.e.e.e.e.e.e.e.e.e.",
"e.e.e.e.e.e.e.e.e.e.e.e.e.e.e.e.e.e.e.e.e.e.e.e.e.e.e.e.e.e.e.e.e.e.e.e.e.e.e.e.e.e.e.e.e.e.e.e.e.e."
};
