/* XPM */
static char *f6583881eefc45a2d63322ac48ff804cLQrSEz5jZ0xj6mc3[] = {
/* columns rows colors chars-per-pixel */
"50 50 173 2 ",
"   c #17100A",
".  c #161A1B",
"X  c #2A180A",
"o  c #311C0C",
"O  c #221811",
"+  c #382717",
"@  c #0F1D25",
"#  c #191F22",
"$  c #19252A",
"%  c #122935",
"&  c #132D3C",
"*  c #222321",
"=  c #2C2A24",
"-  c #282D2D",
";  c #332C23",
":  c #342E28",
">  c #3E362F",
",  c #252E32",
"<  c #22323A",
"1  c #2B3439",
"2  c #462D17",
"3  c #48311E",
"4  c #5E3716",
"5  c #54371D",
"6  c #633917",
"7  c #493525",
"8  c #563C27",
"9  c #543C2B",
"0  c #6C411C",
"q  c #58402C",
"w  c #584330",
"e  c #694726",
"r  c #6D4825",
"t  c #64432D",
"y  c #69462F",
"u  c #734C25",
"i  c #75502C",
"p  c #7E532B",
"a  c #654B33",
"s  c #684A32",
"d  c #7B5635",
"f  c #72533A",
"g  c #795739",
"h  c #112F40",
"j  c #153648",
"k  c #143749",
"l  c #173D52",
"z  c #1A455C",
"x  c #1C4A63",
"c  c #1D4E68",
"v  c #1F526E",
"b  c #1F5471",
"n  c #205673",
"m  c #235E7D",
"M  c #5B4C41",
"N  c #414F55",
"B  c #5A5A5A",
"V  c #635347",
"C  c #7A5E47",
"Z  c #6D5D51",
"A  c #786555",
"S  c #5E5F60",
"D  c #6D6D6E",
"F  c #7E7168",
"G  c #747373",
"H  c #81552B",
"J  c #87582C",
"K  c #8B5C2E",
"L  c #905E2E",
"P  c #845A3B",
"I  c #8D633D",
"U  c #956331",
"Y  c #986432",
"T  c #9E6A39",
"R  c #A26F3E",
"E  c #855E41",
"W  c #896345",
"Q  c #976645",
"!  c #9B704E",
"~  c #8C6951",
"^  c #94765D",
"/  c #A57347",
"(  c #AA7647",
")  c #AE7B4D",
"_  c #A27651",
"`  c #A97C57",
"'  c #BE7F55",
"]  c #85766B",
"[  c #927967",
"{  c #9A7A64",
"}  c #937F71",
"|  c #B58155",
" . c #B48359",
".. c #B9855A",
"X. c #BD8A5F",
"o. c #9E8472",
"O. c #AE8366",
"+. c #A5836A",
"@. c #A9846A",
"#. c #B48565",
"$. c #BF8B60",
"%. c #A98972",
"&. c #A08B7B",
"*. c #B38D72",
"=. c #AE937F",
"-. c #B4927B",
";. c #BA9478",
":. c #BB957B",
">. c #D68F60",
",. c #DD9362",
"<. c #D99A6F",
"1. c #C29271",
"2. c #C29A7E",
"3. c #D39F7D",
"4. c #E69B67",
"5. c #E89B67",
"6. c #E79C69",
"7. c #E89D6A",
"8. c #EAA06F",
"9. c #ECA778",
"0. c #256283",
"q. c #266689",
"w. c #296D93",
"e. c #2A7096",
"r. c #2C759D",
"t. c #808080",
"y. c #9A8F88",
"u. c #99928C",
"i. c #969391",
"p. c #A68F80",
"a. c #AB9688",
"s. c #B59884",
"d. c #A89C94",
"f. c #BDA089",
"g. c #BBA596",
"h. c #ABA6A3",
"j. c #ACABAA",
"k. c #B3AEAA",
"l. c #BABABA",
"z. c #CCA283",
"x. c #D6A683",
"c. c #D5A98B",
"v. c #D9AC8D",
"b. c #DEB192",
"n. c #E4AE89",
"m. c #EFB68F",
"M. c #F1B186",
"N. c #F4B78D",
"B. c #E2B493",
"V. c #EEBD9A",
"C. c #F8BF97",
"Z. c #F1BF9B",
"A. c #C9B4A4",
"S. c #F2C19E",
"D. c #FAC49E",
"F. c #C1C1BF",
"G. c #F6C5A1",
"H. c #FBC6A2",
"J. c #FECAA5",
"K. c #F4C9AB",
"L. c #FDCDAB",
"P. c #E5CDBC",
"I. c #FDD5B9",
"U. c #C5C5C5",
"Y. c #D1D1D1",
"T. c #DBDBDA",
"R. c #FDDBC3",
"E. c #FBE1CF",
"W. c #FFE4D2",
"Q. c #E4E4E4",
"!. c #ECEBEB",
"~. c #F5F5F4",
"^. c #F9F9F9",
/* pixels */
"r.r.r.r.r.r.r.r.r.r.r.r.r.r.r.r.r.r.r.r.r.r.r.r.r.r.r.r.r.r.r.r.r.r.r.r.r.r.r.r.r.r.r.r.r.r.r.r.r.r.",
"r.r.r.r.r.r.r.r.r.r.r.r.r.r.r.r.r.r.r.r.r.r.r.r.r.r.r.r.r.r.r.r.r.r.r.r.r.r.r.r.r.r.r.r.r.r.r.r.r.r.",
"r.r.r.r.r.r.r.r.r.r.r.r.r.r.r.r.r.r.r.r.r.r.r.r.r.r.r.r.r.r.r.r.r.r.r.r.r.r.r.r.r.r.r.r.r.r.r.r.r.r.",
"r.r.r.r.r.r.r.r.r.r.r.r.r.r.r.r.r.r.r.r.r.r.r.r.r.r.r.r.r.r.r.r.r.r.r.r.r.r.r.r.r.r.r.r.r.r.r.r.r.r.",
"r.r.r.r.r.r.r.r.r.r.r.r.r.r.r.r.r.r.r.r.r.r.r.r.r.r.r.r.r.r.r.r.r.r.r.r.r.r.r.r.r.r.r.r.r.r.r.r.r.r.",
"r.r.r.r.r.r.r.r.r.r.r.r.r.r.r.r.r.r.r.r.r.r.r.r.r.r.r.r.r.r.r.r.r.r.r.r.r.r.r.r.r.r.r.r.r.r.r.r.r.r.",
"r.r.r.r.r.r.r.r.r.r.r.r.r.r.r.r.r.e.w.m n v c x z l h h h z 0.r.r.r.r.r.r.r.r.r.r.r.r.r.r.r.r.r.r.r.",
"r.r.r.r.r.r.r.r.r.r.r.r.r.r.r.r.r.z ; q a f f g W W _ ` ! W 7 < v r.r.r.r.r.r.r.r.r.r.r.r.r.r.r.r.r.",
"r.r.r.r.r.r.r.r.r.r.r.r.r.r.r.w.$ g $. .) ( / R ( ( | | X.X.X.X.q & w.r.r.r.r.r.r.r.r.r.r.r.r.r.r.r.",
"r.r.r.r.r.r.r.r.r.r.r.r.r.r.q.# ! | T Y Y Y Y Y Y Y Y Y Y R | X.$._ $ m r.r.r.r.r.r.r.r.r.r.r.r.r.r.",
"r.r.r.r.r.r.r.r.r.r.r.r.q.% q _ R U Y Y Y Y Y Y Y Y Y Y Y Y Y T | $._ 8 & q.r.r.r.r.r.r.r.r.r.r.r.r.",
"r.r.r.r.r.r.r.r.r.r.r.r.# I ( T U Y Y Y Y Y Y Y Y Y Y Y Y Y Y Y Y ) X.X._ * m r.r.r.r.r.r.r.r.r.r.r.",
"r.r.r.r.r.r.r.r.r.r.r.m 2 Y Y Y K r g C A A C C g u Y Y Y Y Y Y Y Y | X.X.X., r.r.r.r.r.r.r.r.r.r.r.",
"r.r.r.r.r.r.r.r.r.r.r.x 2 s a Z A.E.W.W.W.W.W.W.W.P.a.w J Y Y Y Y Y Y | $.$.w v r.r.r.r.r.r.r.r.r.r.",
"r.r.r.r.r.r.r.r.r.r.c V V.J.J.c.a.W.W.E.E.I.I.I.E.R.W.W.g.a J Y Y Y Y Y ..$.| , r.r.r.r.r.r.r.r.r.r.",
"r.r.r.r.r.r.r.r.r.r.1 Z.J.J.J.J.%.I.L.D.J.L.L.J.J.J.L.I.R.W.[ p Y Y Y Y T ..X.P l r.r.r.r.r.r.r.r.r.",
"r.r.r.r.r.r.r.r.r.z a J.J.J.J.J.J.J.J.J.J.J.J.J.J.J.J.J.J.L.I.A.0 U U Y Y Y ( X.7 n r.r.r.r.r.r.r.r.",
"r.r.r.r.r.r.r.r.z G &.J.J.J.J.J.J.J.J.J.J.J.J.J.J.J.J.J.J.J.L.L.P.i U Y Y Y Y T | @ r.r.r.r.r.r.r.r.",
"r.r.r.r.r.r.r.c A I.b.S.J.J.J.J.J.J.J.J.J.J.J.J.J.J.J.J.J.J.J.J.L.g.d Y Y Y Y Y T g z r.r.r.r.r.r.r.",
"r.r.r.r.r.r.q.1 J.J.J.J.J.J.J.J.J.J.J.J.J.J.J.J.J.J.J.J.J.J.J.J.J.L.[ K Y Y Y Y Y T = 0.r.r.r.r.r.r.",
"r.r.r.r.r.r.& :.J.J.J.J.J.J.J.J.J.J.J.J.J.J.:.=.&.s.:.L.J.J.J.J.J.J.K.W Y Y Y Y Y Y d j r.r.r.r.r.r.",
"r.r.r.r.r.r.M J.J.J.J.J.J.J.J.J.J.J.J.J.b.y.Q.^.^.^.T.i.v.J.J.J.J.J.J.f.K Y Y Y Y Y T = r.r.r.r.r.r.",
"r.r.r.r.r.r.{ J.J.J.J.J.J.J.J.J.J.J.J.v.h.^.^.^.^.^.^.^.k.c.c.S.J.J.J.G.8 Y Y Y Y Y Y + r.r.r.r.r.r.",
"r.r.r.r.r.r.:.J.J.J.J.J.J.J.J.J.J.J.J.g.^.^.^.Q.B ~.^.^.^.u.z.:.J.J.J.J.^ Y Y Y Y Y Y 2 r.r.r.r.r.r.",
"r.r.r.r.r.r.3.J.J.J.J.J.J.J.J.J.J.J.S.j.^.^.^.!.G ^.^.^.^.^.-.+.J.J.J.J.-.L Y Y Y Y U + r.r.r.r.r.r.",
"r.r.r.r.r.r.z.J.J.J.L.J.J.J.J.J.J.L.B.j.^.^.^.^.^.^.^.^.^.^.=.:.Z.J.J.J.B.H Y Y Y Y Y = r.r.r.r.r.r.",
"r.r.r.r.r.r.x.J.J.J.J.J.J.J.J.J.J.J.D.h.^.^.^.^.^.^.^.^.^.^.s.L.{ c.J.J.Z.r Y Y Y Y Y + r.r.r.r.r.r.",
"r.r.r.r.r.r.3.J.J.J.J.J.J.J.J.J.J.J.L.d.^.^.^.^.^.^.^.^.^.^.:.J.J.z.J.J.H.r Y Y Y Y Y = r.r.r.r.r.r.",
"r.r.r.r.r.r.1.J.J.J.J.J.J.J.J.J.J.J.J.:.!.^.^.^.^.^.^.^.^.l.b.J.J.J.J.J.H.e Y Y Y Y H % r.r.r.r.r.r.",
"r.r.r.r.r.r.O.J.J.J.J.J.J.J.J.J.J.J.J.J.F ^.^.^.^.^.^.^.~.o.J.J.J.J.J.J.S.u Y Y Y Y 5 c r.r.r.r.r.r.",
"r.r.r.r.r.r.Q D.J.J.J.J.J.J.J.J.J.J.J.J.b.u.^.^.^.^.^.Y.o.J.J.J.J.J.J.J.v.p Y Y Y Y . w.r.r.r.r.r.r.",
"r.r.r.r.r.r.d D.J.J.J.J.J.J.J.J.J.J.J.J.J.b.a.k.l.j.d.:.L.J.J.J.J.J.J.J.:.L Y Y Y 5 x r.r.r.r.r.r.r.",
"r.r.r.r.r.r.y M.J.J.J.J.B.V.J.J.J.J.J.J.J.J.J.J.Z.H.J.J.H.J.J.J.J.J.J.J.C L Y Y J @ r.r.r.r.r.r.r.r.",
"r.r.r.r.r.r.9 7.H.J.J.{ 2.H.J.J.J.J.J.J.J.J.J.J.J.J.V.v.B.H.J.J.J.J.J.H.2 6 6 r . w.r.r.r.r.r.r.r.r.",
"r.r.r.r.r.r.$ ,.9.J.n.~ +.*.J.J.J.J.J.@.J.J.J.V.a.d.l.Y.U.k.&.H.J.:.V.@.4 6 6 o n r.r.r.r.r.r.r.r.r.",
"r.r.r.r.r.r.x d 7.D.D.M.E B.c.+.:.J.Z.*.J.c.z.u.!.^.^.^.^.^.T.&.J.{ 3.5 6 6 X l r.r.r.r.r.r.r.r.r.r.",
"r.r.r.r.r.r.r.- 4.7.D.D.<.#.v.H.J.J.m.@.V.{ } ^.^.^.^.^.^.^.^.Y.#.Q 3 X   @ c r.r.r.r.r.r.r.r.r.r.r.",
"r.r.r.r.r.r.r.n t 5.7.D.J.J.J.J.J.J.M.' O.J.h.^.^.^.^.^.^.^.^.^.] O m w.r.r.r.r.r.r.r.r.r.r.r.r.r.r.",
"r.r.r.r.r.r.r.r.j I 5.7.M.H.J.J.J.J.D.N.J.J.j.^.^.^.^.^.^.^.^.^.i.c r.r.r.r.r.r.r.r.r.r.r.r.r.r.r.r.",
"r.r.r.r.r.r.r.r.r.& P 5.7.8.N.D.J.J.J.J.J.J.h.^.^.^.^.^.^.^.^.^.G q.r.r.r.r.r.r.r.r.r.r.r.r.r.r.r.r.",
"r.r.r.r.r.r.r.r.r.r.j 9 >.5.5.5.9.N.C.H.J.J.d.~.^.^.^.T.U.^.^.~., r.r.r.r.r.r.r.r.r.r.r.r.r.r.r.r.r.",
"r.r.r.r.r.r.r.r.r.r.r.q.* Q 5.5.5.5.6.4.5.7.' F.^.^.^.j.B ^.^.t.n r.r.r.r.r.r.r.r.r.r.r.r.r.r.r.r.r.",
"r.r.r.r.r.r.r.r.r.r.r.r.r.x : Q ,.4.6.6.5.6.6.~ l.^.^.^.^.!.D l r.r.r.r.r.r.r.r.r.r.r.r.r.r.r.r.r.r.",
"r.r.r.r.r.r.r.r.r.r.r.r.r.r.q.z < 7 y y t 9 > < % N S D S < b r.r.r.r.r.r.r.r.r.r.r.r.r.r.r.r.r.r.r.",
"r.r.r.r.r.r.r.r.r.r.r.r.r.r.r.r.r.r.e.w.e.r.r.r.r.r.r.w.r.r.r.r.r.r.r.r.r.r.r.r.r.r.r.r.r.r.r.r.r.r.",
"r.r.r.r.r.r.r.r.r.r.r.r.r.r.r.r.r.r.r.r.r.r.r.r.r.r.r.r.r.r.r.r.r.r.r.r.r.r.r.r.r.r.r.r.r.r.r.r.r.r.",
"r.r.r.r.r.r.r.r.r.r.r.r.r.r.r.r.r.r.r.r.r.r.r.r.r.r.r.r.r.r.r.r.r.r.r.r.r.r.r.r.r.r.r.r.r.r.r.r.r.r.",
"r.r.r.r.r.r.r.r.r.r.r.r.r.r.r.r.r.r.r.r.r.r.r.r.r.r.r.r.r.r.r.r.r.r.r.r.r.r.r.r.r.r.r.r.r.r.r.r.r.r.",
"r.r.r.r.r.r.r.r.r.r.r.r.r.r.r.r.r.r.r.r.r.r.r.r.r.r.r.r.r.r.r.r.r.r.r.r.r.r.r.r.r.r.r.r.r.r.r.r.r.r.",
"r.r.r.r.r.r.r.r.r.r.r.r.r.r.r.r.r.r.r.r.r.r.r.r.r.r.r.r.r.r.r.r.r.r.r.r.r.r.r.r.r.r.r.r.r.r.r.r.r.r."
};
