/* XPM */
static char *b2268304ac9e4d61ef3276da17c41ec6T9S0HdKVU4u13tMz[] = {
/* columns rows colors chars-per-pixel */
"50 50 174 2 ",
"   c #17100A",
".  c #151A1B",
"X  c #291909",
"o  c #301C0B",
"O  c #382716",
"+  c #0F1D25",
"@  c #19252A",
"#  c #142934",
"$  c #132D3C",
"%  c #222525",
"&  c #2C2A24",
"*  c #2B2E2E",
"=  c #342B23",
"-  c #342E29",
";  c #3E362F",
":  c #242E33",
">  c #23333A",
",  c #2B3539",
"<  c #452D17",
"1  c #48311E",
"2  c #5F3716",
"3  c #54371D",
"4  c #633917",
"5  c #493525",
"6  c #563C27",
"7  c #553C2B",
"8  c #6C411C",
"9  c #70441E",
"0  c #58402C",
"q  c #594330",
"w  c #6D4825",
"e  c #664329",
"r  c #69462C",
"t  c #744C26",
"y  c #74502D",
"u  c #7E532B",
"i  c #664B33",
"p  c #684932",
"a  c #795739",
"s  c #79573A",
"d  c #133445",
"f  c #153648",
"g  c #163A4E",
"h  c #173D52",
"j  c #1A455D",
"k  c #1B4962",
"l  c #1D4E69",
"z  c #1F526D",
"x  c #20536F",
"c  c #205673",
"v  c #235D7D",
"b  c #414E55",
"n  c #5A5A5A",
"m  c #635347",
"M  c #7A5E47",
"N  c #745E4B",
"B  c #6D5D51",
"V  c #786455",
"C  c #5E5F60",
"Z  c #6D6D6E",
"A  c #7F7168",
"S  c #747474",
"D  c #82552B",
"F  c #87592D",
"G  c #8C5C2E",
"H  c #905E2F",
"J  c #84593B",
"K  c #8C633E",
"L  c #966331",
"P  c #986432",
"I  c #9D6937",
"U  c #9D6A39",
"Y  c #A16D3E",
"T  c #835D41",
"R  c #886344",
"E  c #976646",
"W  c #99704E",
"Q  c #8C6952",
"!  c #94765E",
"~  c #AA7647",
"^  c #AE7A4C",
"/  c #B07C4F",
"(  c #A17652",
")  c #A97C58",
"_  c #B27E52",
"`  c #85756B",
"'  c #937965",
"]  c #9A7A63",
"[  c #937E70",
"{  c #B58155",
"}  c #B48259",
"|  c #B8845B",
" . c #BD8A5F",
".. c #9E8471",
"X. c #AE8366",
"o. c #A5836A",
"O. c #A8846A",
"+. c #B38565",
"@. c #BF8B60",
"#. c #A98973",
"$. c #A08B7C",
"%. c #B38D73",
"&. c #B89377",
"*. c #B7937A",
"=. c #BB957B",
"-. c #D58F5F",
";. c #DC9362",
":. c #D89A6F",
">. c #C09372",
",. c #C19A7E",
"<. c #D09F7E",
"1. c #E59A66",
"2. c #E89B67",
"3. c #E79C69",
"4. c #E89D6A",
"5. c #EAA06E",
"6. c #EDAA7C",
"7. c #256182",
"8. c #266689",
"9. c #296D93",
"0. c #2A7096",
"q. c #2C759D",
"w. c #818181",
"e. c #9A8F88",
"r. c #99928D",
"t. c #979391",
"y. c #AC9483",
"u. c #AA988C",
"i. c #B89A85",
"p. c #A89D94",
"a. c #B19E90",
"s. c #BBA496",
"d. c #ACA7A3",
"f. c #ADABAA",
"g. c #B4AEAA",
"h. c #BABABA",
"j. c #CB9F80",
"k. c #CCA285",
"l. c #D4A584",
"z. c #D5A98B",
"x. c #D9AC8D",
"c. c #DEB192",
"v. c #E4AF89",
"b. c #F0AF82",
"n. c #EEB68E",
"m. c #F1B285",
"M. c #F4B78C",
"N. c #E2B493",
"B. c #EEBD9A",
"V. c #F8BF97",
"C. c #F1BF9C",
"Z. c #C9B3A4",
"A. c #D8BFAD",
"S. c #F9C097",
"D. c #F4C19F",
"F. c #FAC49E",
"G. c #F6C5A1",
"H. c #FBC6A1",
"J. c #FECAA5",
"K. c #F5C9AB",
"L. c #FDCCAA",
"P. c #E4CCBB",
"I. c #FDD4B8",
"U. c #C3C3C3",
"Y. c #D1D1D1",
"T. c #DADADA",
"R. c #FDDAC3",
"E. c #F9DECB",
"W. c #FEE0CB",
"Q. c #FFE4D2",
"!. c #E5E5E5",
"~. c #ECECEC",
"^. c #F4F4F4",
"/. c #F9F9F9",
/* pixels */
"q.q.q.q.q.q.q.q.q.q.q.q.q.q.q.q.q.q.q.q.q.q.q.q.q.q.q.q.q.q.q.q.q.q.q.q.q.q.q.q.q.q.q.q.q.q.q.q.q.q.",
"q.q.q.q.q.q.q.q.q.q.q.q.q.q.q.q.q.q.q.q.q.q.q.q.q.q.q.q.q.q.q.q.q.q.q.q.q.q.q.q.q.q.q.q.q.q.q.q.q.q.",
"q.q.q.q.q.q.q.q.q.q.q.q.q.q.q.q.q.q.q.q.q.q.q.q.q.q.q.q.q.q.q.q.q.q.q.q.q.q.q.q.q.q.q.q.q.q.q.q.q.q.",
"q.q.q.q.q.q.q.q.q.q.q.q.q.q.q.q.q.q.q.q.q.q.q.q.q.q.q.q.q.q.q.q.q.q.q.q.q.q.q.q.q.q.q.q.q.q.q.q.q.q.",
"q.q.q.q.q.q.q.q.q.q.q.q.q.q.q.q.q.q.q.q.q.q.q.q.q.q.q.q.q.q.q.q.q.q.q.q.q.q.q.q.q.q.q.q.q.q.q.q.q.q.",
"q.q.q.q.q.q.q.q.q.q.q.q.q.q.q.q.q.q.q.q.q.q.9.q.q.q.q.q.q.9.9.9.q.q.q.q.q.q.q.q.q.q.q.q.q.q.q.q.q.q.",
"q.q.q.q.q.q.q.q.q.q.q.q.q.q.q.q.q.q.q.c > C Z C b $ > ; 7 e p p 5 : k 8.q.q.q.q.q.q.q.q.q.q.q.q.q.q.",
"q.q.q.q.q.q.q.q.q.q.q.q.q.q.q.q.q.q.g Z ~././././.h.Q 2.2.2.2.2.1.;.E = k q.q.q.q.q.q.q.q.q.q.q.q.q.",
"q.q.q.q.q.q.q.q.q.q.q.q.q.q.q.q.q.x w././.C f./././.U._ 5.3.2.2.2.2.2.2.E % 8.q.q.q.q.q.q.q.q.q.q.q.",
"q.q.q.q.q.q.q.q.q.q.q.q.q.q.q.q.q.: /././.U.T././././.u.J.J.J.V.M.6.2.2.1.-.6 g q.q.q.q.q.q.q.q.q.q.",
"q.q.q.q.q.q.q.q.q.q.q.q.q.q.q.q.8.S /././././././././.d.J.J.J.J.J.J.H.M.4.2.2.J $ q.q.q.q.q.q.q.q.q.",
"q.q.q.q.q.q.q.q.q.q.q.q.q.q.q.q.l t./././././././././.f.J.J.M.V.J.J.J.J.H.m.4.2.K f q.q.q.q.q.q.q.q.",
"q.q.q.q.q.q.q.q.q.q.q.q.q.q.9.v . ` /././././././././.d.J.) | M.J.J.J.J.J.J.V.4.4.e c q.q.q.q.q.q.q.",
"q.q.q.q.q.q.q.q.q.q.q.l +   X 1 E +.Y././././././././.[ ' C.] n.J.J.J.x.+.:.H.F.2.1.* q.q.q.q.q.q.q.",
"q.q.q.q.q.q.q.q.q.q.g o 2 4 3 <.] J.$.T./././././.~.e.j.z.J.=.V.J.=.o.z.N.T b.G.V.2.s j q.q.q.q.q.q.",
"q.q.q.q.q.q.q.q.q.c o 4 4 2 o.B.&.J.D.#.g.U.Y.h.p.y.B.J.J.J.#.J.J.J.J.J.%.O.Q v.J.b.;.@ q.q.q.q.q.q.",
"q.q.q.q.q.q.q.q.9.. 8 9 4 < J.J.J.J.J.J.J.N.x.B.J.J.J.J.J.J.J.J.J.J.J.J.J.=.] J.J.J.5.6 q.q.q.q.q.q.",
"q.q.q.q.q.q.q.q.+ F P P H M J.J.J.J.J.J.J.J.J.J.H.C.J.J.J.J.J.J.J.J.J.J.D.N.J.J.J.J.6.r q.q.q.q.q.q.",
"q.q.q.q.q.q.q.j 3 L L P L &.J.J.J.J.J.J.J.J.i.u.f.h.g.u.c.J.J.J.J.J.J.J.J.J.J.J.J.J.S.s q.q.q.q.q.q.",
"q.q.q.q.q.q.9.@ P L L L u z.J.J.J.J.J.J.H.$.Y./././././.r.c.J.J.J.J.J.J.J.J.J.J.J.J.J.E q.q.q.q.q.q.",
"q.q.q.q.q.q.l 3 P P P P w D.J.J.J.J.J.J...^./././././././.` H.J.J.J.J.J.J.J.J.J.J.J.J.X.q.q.q.q.q.q.",
"q.q.q.q.q.q.# D P P L P w J.J.J.J.J.J.c.h././././././././.~.i.J.J.J.J.J.J.J.J.J.J.J.J.>.q.q.q.q.q.q.",
"q.q.q.q.q.q.= P P P P P w J.J.J.j.J.J.i././././././././././.u.J.J.J.J.J.J.J.J.J.J.J.J.<.q.q.q.q.q.q.",
"q.q.q.q.q.q.O P P P P P w G.J.J.x.] J.y././././././././././.d.G.J.J.J.J.J.J.J.J.J.J.J.l.q.q.q.q.q.q.",
"q.q.q.q.q.q.& P P P P P u N.J.J.J.B.,.y././././././././././.f.N.J.J.J.J.J.J.J.J.J.J.J.k.q.q.q.q.q.q.",
"q.q.q.q.q.q.O P P P P P G &.J.J.J.J.o.*./././././.S ~./././.d.G.J.J.J.J.J.J.J.J.J.J.J.<.q.q.q.q.q.q.",
"q.q.q.q.q.q.< P P P P P P ! J.J.J.J.=.k.r./././.^.n !./././.a.J.J.J.J.J.J.J.J.J.J.J.J.&.q.q.q.q.q.q.",
"q.q.q.q.q.q.O P P P P P P 6 G.J.J.J.B.z.z.g./././././././.d.c.J.J.J.J.J.J.J.J.J.J.J.J.] q.q.q.q.q.q.",
"q.q.q.q.q.q.& P P P P P P H i.J.J.J.J.J.J.x.t.T./././.!.e.c.J.J.J.J.J.J.J.J.J.J.J.J.J.0 q.q.q.q.q.q.",
"q.q.q.q.q.q.f s P P P P P P R K.J.J.J.J.J.J.J.=.i.$.y.,.J.J.J.J.J.J.J.J.J.J.J.J.J.J.i.d q.q.q.q.q.q.",
"q.q.q.q.q.q.8.= U P P P P P G ' L.J.J.J.J.J.J.J.J.J.J.J.J.J.J.J.J.J.J.J.J.J.K.J.J.L.* 8.q.q.q.q.q.q.",
"q.q.q.q.q.q.0.j s I P P P P H u Z.L.J.J.J.J.J.J.J.J.J.J.J.J.J.J.J.J.J.J.J.J.D.c.I.V l q.q.q.q.q.q.q.",
"q.q.q.q.q.q.q.q.. _ U L P P P P y A.L.J.J.J.J.J.J.J.J.J.J.J.J.J.J.J.J.J.J.J.J.r.` j q.q.q.q.q.q.q.q.",
"q.q.q.q.q.q.q.q.v 5  .^ P P P P L e Z.I.L.J.J.J.J.J.J.J.J.J.J.J.J.J.J.J.J.J.F.i j q.q.q.q.q.q.q.q.q.",
"q.q.q.q.q.q.q.q.q.h s  .| I P P P P y ..W.R.I.K.J.J.J.J.J.J.J.L.I.#.J.J.J.J.D., q.q.q.q.q.q.q.q.q.q.",
"q.q.q.q.q.q.q.q.q.q.: } -.| I P P P P F i s.Q.Q.W.W.W.I.I.W.W.Q.Q.a.z.J.J.D.m k q.q.q.q.q.q.q.q.q.q.",
"q.q.q.q.q.q.q.q.q.q.z i | @.{ L P P P P P F i y.P.W.Q.Q.Q.Q.Q.Q.E.Z.B i r 1 j q.q.q.q.q.q.q.q.q.q.q.",
"q.q.q.q.q.q.q.q.q.q.0.: | @.@./ P P P P P P P L t s M N V V M s w F P P L < v q.q.q.q.q.q.q.q.q.q.q.",
"q.q.q.q.q.q.q.q.q.q.q.v @ ( @.@.^ P P P P P P P L P P P L P P P L P I ~ K % q.q.q.q.q.q.q.q.q.q.q.q.",
"q.q.q.q.q.q.q.q.q.q.q.q.8.$ 7 (  .{ I P P P P P P P P P P P P P L Y ( 0 # 8.q.q.q.q.q.q.q.q.q.q.q.q.",
"q.q.q.q.q.q.q.q.q.q.q.q.q.q.7.@ (  .@.{ Y P P P P P P P L L L P _ W @ 8.q.q.q.q.q.q.q.q.q.q.q.q.q.q.",
"q.q.q.q.q.q.q.q.q.q.q.q.q.q.q.9.$ 0 | @.@.@.{ { ^ ~ Y W ~ { } -.a @ 9.q.q.q.q.q.q.q.q.q.q.q.q.q.q.q.",
"q.q.q.q.q.q.q.q.q.q.q.q.q.q.q.q.q.z > 5 R W ( ( R R s s i i 0 - j 0.q.q.q.q.q.q.q.q.q.q.q.q.q.q.q.q.",
"q.q.q.q.q.q.q.q.q.q.q.q.q.q.q.q.q.q.q.v j f $ f g j j z c c v 0.q.q.q.q.q.q.q.q.q.q.q.q.q.q.q.q.q.q.",
"q.q.q.q.q.q.q.q.q.q.q.q.q.q.q.q.q.q.q.q.q.q.q.q.q.q.q.q.q.q.q.q.q.q.q.q.q.q.q.q.q.q.q.q.q.q.q.q.q.q.",
"q.q.q.q.q.q.q.q.q.q.q.q.q.q.q.q.q.q.q.q.q.q.q.q.q.q.q.q.q.q.q.q.q.q.q.q.q.q.q.q.q.q.q.q.q.q.q.q.q.q.",
"q.q.q.q.q.q.q.q.q.q.q.q.q.q.q.q.q.q.q.q.q.q.q.q.q.q.q.q.q.q.q.q.q.q.q.q.q.q.q.q.q.q.q.q.q.q.q.q.q.q.",
"q.q.q.q.q.q.q.q.q.q.q.q.q.q.q.q.q.q.q.q.q.q.q.q.q.q.q.q.q.q.q.q.q.q.q.q.q.q.q.q.q.q.q.q.q.q.q.q.q.q.",
"q.q.q.q.q.q.q.q.q.q.q.q.q.q.q.q.q.q.q.q.q.q.q.q.q.q.q.q.q.q.q.q.q.q.q.q.q.q.q.q.q.q.q.q.q.q.q.q.q.q.",
"q.q.q.q.q.q.q.q.q.q.q.q.q.q.q.q.q.q.q.q.q.q.q.q.q.q.q.q.q.q.q.q.q.q.q.q.q.q.q.q.q.q.q.q.q.q.q.q.q.q."
};
