/* XPM */
static char *b0d17fc703a74413f32010d91c1a1a56nbzQZutt4t5nCjYW[] = {
/* columns rows colors chars-per-pixel */
"38 40 178 2 ",
"   c None",
".  c #020101",
"X  c #0A0603",
"o  c #0D0804",
"O  c #120B05",
"+  c #130D09",
"@  c #180F0A",
"#  c #1B130C",
"$  c #181818",
"%  c #181614",
"&  c #21150C",
"*  c #26190D",
"=  c #251911",
"-  c #2C1F14",
";  c #25211E",
":  c #2F2015",
">  c #332519",
",  c #3B2B1E",
"<  c #392613",
"1  c #272727",
"2  c #3A3A3A",
"3  c #412E1F",
"4  c #482A12",
"5  c #553114",
"6  c #55381C",
"7  c #633917",
"8  c #6A3F1B",
"9  c #473424",
"0  c #4B3828",
"q  c #503927",
"w  c #573D2A",
"e  c #5C4432",
"r  c #6B4624",
"t  c #6B4A2B",
"y  c #744C27",
"u  c #714C29",
"i  c #74512F",
"p  c #7F562F",
"a  c #664A33",
"s  c #6E4C33",
"d  c #6E523C",
"f  c #705030",
"g  c #76563C",
"h  c #7D5937",
"j  c #585858",
"k  c #515151",
"l  c #6E5541",
"z  c #6F5848",
"x  c #645349",
"c  c #765A46",
"v  c #785E46",
"b  c #7E6B5B",
"n  c #676767",
"m  c #747474",
"M  c #83562B",
"N  c #8E5D2E",
"B  c #87592C",
"V  c #915E2E",
"C  c #8B5D3E",
"Z  c #84593C",
"A  c #8A603B",
"S  c #966231",
"D  c #986432",
"F  c #9E6A3A",
"G  c #9B6836",
"H  c #A06C3D",
"J  c #805F41",
"K  c #8D6B4F",
"L  c #996947",
"P  c #8A6E5A",
"I  c #966F54",
"U  c #8C725B",
"Y  c #9E7255",
"T  c #93735C",
"R  c #A67244",
"E  c #A8774E",
"W  c #AD794B",
"Q  c #A87A55",
"!  c #B27D51",
"~  c #8F7A6B",
"^  c #9E7D66",
"/  c #937D6D",
"(  c #9D7E6A",
")  c #967661",
"_  c #897B72",
"`  c #917F71",
"'  c #A07F69",
"]  c #B48155",
"[  c #B5835B",
"{  c #BA875B",
"}  c #BD8A5E",
"|  c #9C8472",
" . c #9B8A7D",
".. c #908176",
"X. c #AC8266",
"o. c #A5836B",
"O. c #A9856A",
"+. c #BF8B60",
"@. c #AD8A71",
"#. c #A88C78",
"$. c #B18E74",
"%. c #AE907B",
"&. c #B3927B",
"*. c #BD967B",
"=. c #B59076",
"-. c #CA875A",
";. c #CE895B",
":. c #D48E5E",
">. c #D79060",
",. c #C29B7F",
"<. c #E19664",
"1. c #E89B67",
"2. c #E99D6A",
"3. c #E39865",
"4. c #DAA47E",
"5. c #EBA16E",
"6. c #ECA474",
"7. c #EDAA7D",
"8. c gray55",
"9. c #9F8E83",
"0. c #9A938D",
"q. c #9B9793",
"w. c #AA9484",
"e. c #A9978B",
"r. c #A29994",
"t. c #A49F9B",
"y. c #B29E91",
"u. c #A8A09C",
"i. c #B5A59A",
"p. c #A4A4A4",
"a. c #ABA5A1",
"s. c #ABAAA9",
"d. c #ADA9A6",
"f. c #BAB4AF",
"g. c #B4B4B4",
"h. c gray",
"j. c #C69E81",
"k. c #C89F82",
"l. c #CCA284",
"z. c #D1A689",
"x. c #D9AC8D",
"c. c #DDB08F",
"v. c #DEB190",
"b. c #D6B198",
"n. c #F3B58A",
"m. c #F5B98F",
"M. c #F1B184",
"N. c #E2B393",
"B. c #E9B997",
"V. c #EBBB99",
"C. c #F6BC93",
"Z. c #F4BF99",
"A. c #E2BEA5",
"S. c #F4C29E",
"D. c #FAC39C",
"F. c #DFC1AC",
"G. c #DFC7B8",
"H. c #DCC5B5",
"J. c #EEC9AE",
"K. c #F7C4A0",
"L. c #FCC7A1",
"P. c #FECAA5",
"I. c #FCCDAB",
"U. c #F4CBAF",
"Y. c #E4CCBC",
"T. c #FCCFB1",
"R. c #FDD2B4",
"E. c #FDD6BB",
"W. c #CDCDCD",
"Q. c #C6C6C6",
"!. c #DADADA",
"~. c #FCDFCB",
"^. c #FDE1CE",
"/. c #FFE4D2",
"(. c #E4E4E4",
"). c #EBEBEB",
"_. c #F5F5F5",
"`. c #F9F9F9",
/* pixels */
"                                                                            ",
"                                X o .   .                                   ",
"                          . 0 p D D S M S M 6 @                             ",
"                        , A D D D D D D D D S D r &                         ",
"                    + a W D D D D D D D D D D S D V <                       ",
"                  , Q W D D D D D D D D D D D D D D D 4 o                   ",
"              > d } { D D D D D D D D D D D D D D D D 8 5 o                 ",
"          . h } +.} F D D D D D D D D D S N N S D D V 7 7 4                 ",
"          w +.+.+.R D D D D D D y J T O.$.j.*.=.o.K a 5 7 7 o               ",
"        + Q +.{ R D D D D D p P b.P.P.P.P.P.P.P.P.P.P.*.g 5 O               ",
"        g } { F D D D D B d A.P.P.P.P.P.P.P.P.P.P.P.P.P.L.Q +               ",
"      9 +.{ F D D D D M ~ U.P.P.P.P.P.P.v.V.P.P.P.P.P.D.^ X.s X             ",
"    # [ } F D D D D B / T.P.P.P.P.P.P.Z.) P.P.P.P.P.P.P.P.P.! x k 2 .       ",
"    c +.W D D D D N ..E.P.P.P.P.P.j.@.^ V.P.P.P.P.P.P.P.K. .W.`.`.`.Q.1     ",
"  X { +.G D D D D v ^.P.P.P.P.P.z.,.*.&.&.*.L.P.P.P.P.P.` `.`.`.`.`.`.(.$   ",
"  > +.! D D D D r G.R.P.P.P.P.P.x.q.(.`.`.).f.%.P.P.P.x.g.`.`.`.`.`.`.`.p.  ",
"  a +.R D D D D b ~.P.P.P.P.P.v.r.`.`.`.`.`.`.!.%.P.P.=._.`.`.`.`.`.8.s.).X ",
"  g +.F D D D u Y.E.P.P.P.P.P.e.`.`.`.`.`.`.`.`.g.j.P.&.`.`.`.`.`.`.p.W.`.$ ",
"  a { D D D D U /.T.P.P.P.P.j.Q.`.`.`.`.`.`.`.`.`.w.P.$._.`.`.`.`.`.`.`.`.X ",
"  0 ] D D D D e./.I.P.P.P.P.#.`.`._.`.`.`.`.`.`.`.t.P.N.p.`.`.`.`.`.`.`.W.  ",
"  , ] D D D y H./.P.P.P.P.P.w.`.`.j m `.`.`.`.`.`.s.P.P. .`.`.`.`.`.`.`.n   ",
"  > ! D D D y /.~.P.P.P.P.P.( `.`.(.).`.`.`.`.`.`.i.P.P.v.u.`.`.`.`._.a.Z   ",
"  : ! D D D f /.~.P.P.P.P.P.l.h.`.`.`.`.`.`.`.`.).w.P.P.P.l.~ p.s.0.T :.;.  ",
"  = ] D D D f /.^.P.P.P.P.P.P. .`.`.`.`.`.`.`._.w.D.P.P.P.$.' P.P.P.C.1.1.. ",
"  # { D S D i /./.P.P.P.P.P.P.B.r.`.`.`.`.`.Q...S.P.P.P.P.P.j.4.P.P.C.1.1.O ",
"  @ -.H D D r ^./.I.P.P.P.P.P.P.V.| q.q.r.%.l.P.P.P.P.B.o.o.I <.D.P.n.1.2.# ",
"  . K W D S p G./.R.P.P.P.P.P.P.P.P.P.P.P.P.P.P.P.P.P.P.P.L.C.m.P.P.7.1.1.+ ",
"    > } D S N i./.J.P.P.P.P.P.P.P.P.P.P.P.P.P.P.P.P.P.P.P.P.P.P.P.P.6.1.:.. ",
"      9 ] D D | i.=.P.P.P.P.P.P.P.P.P.P.P.P.P.P.P.P.P.P.P.o.P.P.P.D.1.1.L   ",
"        a H D g @.P.P.P.P.P.P.P.P.P.P.P.P.P.P.P.P.P.P.P.P.@.P.P.P.m.1.1.:   ",
"        X W D t P.P.P.P.P.P.P.P.P.P.P.P.P.P.P.P.P.P.P.P.L.' B.P.P.6.1.L     ",
"          q D t P.P.P.P.P.P.P.P.P.P.P.P.P.P.P.P.P.P.x.P.P o.z.P.m.1.3.:     ",
"            # * T P.P.P.P.P.P.P.P.P.P.P.P.P.P.P.P.P.x.k.' ! n.L.2.1.s       ",
"                % =.B.N.z.P.P.P.P.P.P.P.P.P.P.P.P.P.P.( Q D.P.7.1.-.X       ",
"                    . _ R.P.P.P.P.P.P.P.P.P.P.P.P.P.P.P.P.L.M.1.;.:         ",
"                      ; F.P.P.P.P.P.P.P.P.P.P.P.P.P.P.P.D.6.1.;.=           ",
"                        1 =.P.P.P.P.P.P.P.P.P.P.P.P.P.M.2.<.J @             ",
"                          . z v.P.I.P.P.P.P.P.L.C.M.2.>.Z #                 ",
"                              . 0 e l c c d e w 3 - # .                     ",
"                                                                            "
};
