/* XPM */
static char *result[] = {
/* columns rows colors chars-per-pixel */
"50 50 3 1 ",
"  c #0B0500",
". c #0C0601",
"X c #FEFEFE",
/* pixels */
"XXXXXXXXXXXXXXXXXXXXXXXXXXXXXXXXXXXXXXXXXXXXXXXXXX",
"XXXXXXXXXXXXXXXXXXXXXXXXXXXXXXXXXXXXXXXXXXXXXXXXXX",
"XXXXXXXXXXXXXXXXXXXXXXXXXXXXXXXXXXXXXXXXXXXXXXXXXX",
"XXXXXXXXXXXXXXXXXXXXXXXXXXXXXXXXXXXXXXXXXXXXXXXXXX",
"XXXX                                         .XXXX",
"XXXX                                         .XXXX",
"XXXX                                         .XXXX",
"XXXX                                         .XXXX",
"XXXX                                         .XXXX",
"XXXX                                         .XXXX",
"XXXX                                         .XXXX",
"XXXX                                         .XXXX",
"XXXX                                         .XXXX",
"XXXX                                         .XXXX",
"XXXX                                         .XXXX",
"XXXX                                         .XXXX",
"XXXX                                         .XXXX",
"XXXX                                         .XXXX",
"XXXX                                         .XXXX",
"XXXX                                         .XXXX",
"XXXX                                         .XXXX",
"XXXX                                         .XXXX",
"XXXX                                         .XXXX",
"XXXX                                         .XXXX",
"XXXX                                         .XXXX",
"XXXX                                         .XXXX",
"XXXX                                         .XXXX",
"XXXX                                         .XXXX",
"XXXX                                         .XXXX",
"XXXX                                         .XXXX",
"XXXX                                         .XXXX",
"XXXX                                         .XXXX",
"XXXX                                         .XXXX",
"XXXX                                         .XXXX",
"XXXX                                         .XXXX",
"XXXX                                         .XXXX",
"XXXX                                         .XXXX",
"XXXX                                         .XXXX",
"XXXX                                         .XXXX",
"XXXX                                         .XXXX",
"XXXX                                         .XXXX",
"XXXX                                         .XXXX",
"XXXX                                         .XXXX",
"XXXX                                         .XXXX",
"XXXX                                         .XXXX",
"XXXX.....................                    .XXXX",
"XXXXXXXXXXXXXXXXXXXXXXXXXXXXXXXXXXXXXXXXXXXXXXXXXX",
"XXXXXXXXXXXXXXXXXXXXXXXXXXXXXXXXXXXXXXXXXXXXXXXXXX",
"XXXXXXXXXXXXXXXXXXXXXXXXXXXXXXXXXXXXXXXXXXXXXXXXXX",
"XXXXXXXXXXXXXXXXXXXXXXXXXXXXXXXXXXXXXXXXXXXXXXXXXX"
};
