/* XPM */
static char *c2a9293d76de4717df985a1f8219b479KsNoRVfdpfKulVVd[] = {
/* columns rows colors chars-per-pixel */
"48 49 171 2 ",
"   c None",
".  c #228F44",
"X  c #229145",
"o  c #2B9545",
"O  c #2E9847",
"+  c #2D9749",
"@  c #2F9848",
"#  c #319746",
"$  c #349947",
"%  c #3C9C47",
"&  c #359B48",
"*  c #3B9E49",
"=  c #3EA04A",
"-  c #409E47",
";  c #419F4A",
":  c #44A34B",
">  c #4AA54B",
",  c #4DA94C",
"<  c #52A74B",
"1  c #54AB4D",
"2  c #5AAF4C",
"3  c #5DB04C",
"4  c #5CAE51",
"5  c #56AA5C",
"6  c #5EB050",
"7  c #62AE4E",
"8  c #63B24D",
"9  c #6BB54E",
"0  c #6EB84F",
"q  c #62AF50",
"w  c #64B252",
"e  c #6BB552",
"r  c #6EB852",
"t  c #66B459",
"y  c #6CB65E",
"u  c #72B754",
"i  c #73BA52",
"p  c #7BBD53",
"a  c #71B95E",
"s  c #7BBD5B",
"d  c #66B461",
"f  c #6EB761",
"g  c #6EB962",
"h  c #74BC67",
"j  c #7ABD65",
"k  c #79BD6C",
"l  c #7EBF72",
"z  c #7FC053",
"x  c #7EC173",
"c  c #82BF54",
"v  c #80BF58",
"b  c #80BE6D",
"n  c #84C155",
"m  c #8BC356",
"M  c #84C158",
"N  c #8CC45A",
"B  c #92C757",
"V  c #96C857",
"C  c #98C857",
"Z  c #92C759",
"A  c #94C959",
"S  c #9CCB5A",
"D  c #A4CE5B",
"F  c #84C161",
"G  c #8EC563",
"H  c #84C36A",
"J  c #8EC66E",
"K  c #93C764",
"L  c #92C860",
"P  c #99CB63",
"I  c #95CA6B",
"U  c #9BCC68",
"Y  c #83C475",
"T  c #89C276",
"R  c #8DC873",
"E  c #86C67A",
"W  c #8FC57C",
"Q  c #8BC879",
"!  c #9ACC72",
"~  c #93CA7A",
"^  c #9FD07D",
"/  c #A5CD62",
"(  c #A8CE63",
")  c #A5CE6B",
"_  c #ABCF6C",
"`  c #A7D066",
"'  c #AAD065",
"]  c #A6D26D",
"[  c #ACD26D",
"{  c #A0CE74",
"}  c #AFCE72",
"|  c #ACD373",
" . c #A3D17A",
".. c #ACD57C",
"X. c #B1D472",
"o. c #B4D67B",
"O. c #B6D97C",
"+. c #7FC090",
"@. c #8ECA83",
"#. c #93CA84",
"$. c #98CE83",
"%. c #96CC89",
"&. c #9BCE8C",
"*. c #9ED18F",
"=. c #9CD090",
"-. c #A5D287",
";. c #A0D08C",
":. c #AAD58A",
">. c #B5D784",
",. c #B8D781",
"<. c #B1D980",
"1. c #BADA83",
"2. c #B1D98D",
"3. c #BEDC8B",
"4. c #A4D396",
"5. c #A5D49A",
"6. c #A8D69B",
"7. c #A9D89F",
"8. c #BEDE93",
"9. c #A3D2A6",
"0. c #AADBA0",
"q. c #B7D7AC",
"w. c #B3DBAA",
"e. c #B9E0AF",
"r. c #C2DF93",
"t. c #C2DE99",
"y. c #C4E194",
"u. c #C4E19B",
"i. c #CAE49F",
"p. c #C9DFA5",
"a. c #C3DDBF",
"s. c #C4E2A1",
"d. c #CCE5A4",
"f. c #C4E5AE",
"g. c #CAE5AB",
"h. c #D1E6AC",
"j. c #D2E8AD",
"k. c #C1E3B7",
"l. c #CDE8B2",
"z. c #C3E2B8",
"x. c #C4E5BB",
"c. c #D3EAB4",
"v. c #D8E7BE",
"b. c #D7EDBF",
"n. c #D7ECBC",
"m. c #DBEEBF",
"M. c #DAEDBB",
"N. c #D3EBC7",
"B. c #DBEDC5",
"V. c #D2EDCA",
"C. c #DCEBCD",
"Z. c #DEF1C3",
"A. c #D9F1D1",
"S. c #E0F2C3",
"D. c #E1F0C9",
"F. c #E2F2CC",
"G. c #E5F3D2",
"H. c #E5F4DB",
"J. c #E2F3D9",
"K. c #E9F6DB",
"L. c #EFF9DE",
"P. c #E7F7E0",
"I. c #EBF7E1",
"U. c #EFF6E7",
"Y. c #ECF4E2",
"T. c #EFF9E5",
"R. c #EEF5EB",
"E. c #F1F9E6",
"W. c #F2F5EB",
"Q. c #F5FAEF",
"!. c #F3FAEA",
/* pixels */
"                                                                                                ",
"                                        } g.[ D D [ r.( (                                       ",
"                                    D S O.m.X.D ' X.F.[ D |                                     ",
"                            [ r.m p a w.a p D O.L.X.r.D D D /                                   ",
"                        / D d.6.2 8  .C.U z 0 0 c.j.[ ' j.o.S -.%.w w                           ",
"                      | D S t.g 3 B B f.~ 8 8 3 Y x 8 m 8.r.D [ 1.c 8 m 1.X.|                   ",
"                    p.D.s t A.E 8 3 3 z m B S 0 2 2 6 4 w u.S D V D S 9 H.M.X.Y.                ",
"                _ D d.z.2 w l 3 3 3 z e 3 1 n A V 0 x.A.2 7 2 9 y 8 c D X.1.[ B.                ",
"              U.s. .i 2 2 g H.t 2 2 e C D w ; ; : i <.:.2 2 2 2 V.h p V ' Z.' Z.>.              ",
"            ( N t 6 2 2 2 2 y 6 > 2 D D D D D c $ o % c B 0 > 1 2 2 y E 9 B D C.y.(             ",
"          ( A 6 2 8 i r 2 2 8 n p S Z c D D c 7 w m m S D S > o * 1 2 E 3 3 B r m [             ",
"          ] %.z m ] ~ 2 2 1 n D A > . . > ; . . . X $ w S D V X . o d %.2 2 3 3 n [ v.          ",
"        a.#.L.y.m.y a i 1 n D p o . . ; Z c S e , > 4 < . 1 c A 2 $ 0.Q.l t 2 2 3 S O.          ",
"        2 i X.{ I.-.V D S p $ X # v Z D c D D D D D D D 9 o & o e 7 5 w.f N.2 2 2 R 2.]         ",
"      / c m S 8 n.1.S S n # X o v A c ; o c D S D D D D < * ; , X u : * 2 l 2 2 5.4.W C.        ",
"      D S e :.D D n $ X . X o e % $ + . ; 4 # o Z p > q > X * 2 * o q . 1 2 2 4 N.J.&.W.        ",
"      d.H 8 b.D z : X X @ z 1 O . . X X X X w S D < % # # X : 2 = X 6 & 2 2 2 2 @.A.*.k         ",
"      d.! 3 A 9 2 + X : n , X X . . X X X & v p 8 S D D V o X * : o : o 4 2 2 2 3 %.5.q.        ",
"      r A 9 B 3 > X o S i X X O > X X @ O o . . . q D D D 1 X X @ = X X : 2 2 2 2 2 3 5.        ",
"    n 3 m z p 2 2 , = S + o : 2 2 = 4 : * & . . . X < D D Z o X & = X = = 1 2 2 2 2 2 2 /       ",
"    / i D S 0 2 2 = , p X = 2 = > : o X # z > m Z : . q D D * X 6 > X o 8 1 1 2 2 2 2 2 A       ",
"    A z D B 3 2 > X e 8 X : : X X @ w e S D m - $ o X X V D e X , 1 + X 1 , > 2 3 2 2 3 0 (     ",
"    N p D p 3 1 X X p $ = 2 = X + B D D D D B N N X . . w D D > & 2 & O O = > 2 1 1 *.Y 8 D     ",
"    m 2 p i 3 : X . 4 & 2 , X X 6 D D S D D $ % A ; . o 7 D c : X 1 & & X O 1 > 3 3 =.%.3 D     ",
"    c x ! i 3 $ X X X , , 2 O X $ B D # * D u < S u . 1 D D v . o 1 O > O : > = 2 3 2 2 1 S     ",
"    p 4.j.9 3 X X = X X O 2 o X . o B # 1 D N $ $ ; . ; D D v . , 1 X > X e = = 2 2 2 2 3 D     ",
"    i Z | 2 1 X = O X X , 2 X X . o 9 s > v D D S C u C D D 1 + 2 1 o = X u o = 2 2 2 8 m D     ",
"    p p m 3 3 & , X X O 2 , X X . & . o X o S D D D < q D e . : 1 2 * X X e o : 2 2 3 p D D     ",
"    S n m 3 3 1 2 X X = 3 , O X . @ + O , X A D M $ 6 u $ . ; > o 3 $ X + w : , 2 3 3 p D       ",
"    ( p S 0 3 2 3 O X X 1 2 , X . X : X 4 = + + X , $ X o & & X : : X : & p 1 2 2 8 n m (       ",
"    ( l.F K i 3 2 > X . , 2 2 1 = X : = X X X . X X X X O = & * > X % < 1 m : 3 3 B M X.[       ",
"      ] Z.B.z 1 2 2 = X o = : 2 , X O 2 6 , X X X & : : & & : * X . + u S > 3 3 ~ D 1.G.        ",
"        N N.q.2 2 2 2 @ X X = 2 2 & X o : 2 1 = 1 , o X & # X . X X ; S > , 2 z T.' ( u.        ",
"          D.L.p 1 2 3 = X X + 2 2 2 O X X O & : : o o e u ; . X * N D < 1 3 R D ' D D           ",
"        [ o.X.S 3 5.y g o o 6 o : : , = X X X X O : O @ . + % e S p 1 u 3 *.T.S 0 n D           ",
"        1.O.D D 3 7.x !.+.O N X X X X O X X 4 z A w X X 1 D v < q n u 3 0 O.!.*.k.G '           ",
"        D S 9 B 2 2 t J.9.X m i X X X O X X X o X o 1 i S e . o $ 8 0 n r. .Y @.H.>.Y.          ",
"        ( D 0 p i 3 3 6 3 , r D 7 X X o = > : @ X & $ # 7 7 2 > N D D D ] 3 2 2 v D o.          ",
"          D U %.S 8 8 0.f 3 8 n S V Z - X X X . X & = > m D D D D D D D D m 3 0 D /             ",
"          ( 1.E.m J N w 2 8 h 1 n D D D C c 2 = u n m A c 9 S D j.D p p D I :.8.(               ",
"            ( t.B y.' S 9 w e.8 2 i p c.g.i 8 3 2 3 9 9 3 3 V ' G.Y 8 _ ] P ,.                  ",
"              W.3.h.g.D D p 2 2 2 %.e %.=.8 p A 3 9 p i 9 3 3 w 5.s / E.j.(                     ",
"                D y.G.i i V S p 7 j S S S D D i 2 2 a %.r 0 2  .!.| D 3.' D                     ",
"                  D D S r 3 u.:.2 5.F.B B t.Z.p m V ' 3.' 0 2 t T V D D D                       ",
"                    ( D D B G h.] p k 2 3 ..M.' S A P !.5.3 9 f.y.D D                           ",
"                          ` ( 1.X.D S i Y L h. .i i B | B S D D D (                             ",
"                                    D [ G.1.D D [ G.8.                                          ",
"                                                                                                ",
"                                                                                                "
};
