/* XPM */
static char *e786717b64414f65f375818a31ae962fF5SAgCCDNWKrsQ0n[] = {
/* columns rows colors chars-per-pixel */
"38 40 183 2 ",
"   c None",
".  c #010100",
"X  c #0A0705",
"o  c #0E0905",
"O  c gray5",
"+  c #120B06",
"@  c #120E0A",
"#  c #17100A",
"$  c #1C130C",
"%  c #1A1007",
"&  c gray11",
"*  c #21150F",
"=  c #25190D",
"-  c #231913",
";  c #261E19",
":  c #2E2116",
">  c #352314",
",  c #342519",
"<  c #3B291C",
"1  c #242220",
"2  c #2A2A2A",
"3  c #3A2D25",
"4  c #323232",
"5  c #472B16",
"6  c #502E13",
"7  c #573214",
"8  c #50351B",
"9  c #623917",
"0  c #673D1A",
"q  c #402F20",
"w  c #4B3624",
"e  c #453323",
"r  c #573F2B",
"t  c #59412C",
"y  c #5F4530",
"u  c #6E4825",
"i  c #6F4C2A",
"p  c #664528",
"a  c #714A25",
"s  c #724E2D",
"d  c #795027",
"f  c #7A522C",
"g  c #674C35",
"h  c #634937",
"j  c #734E33",
"k  c #6E523B",
"l  c #725030",
"z  c #73543B",
"x  c #7E5635",
"c  c gray32",
"v  c #6B5343",
"b  c #67584F",
"n  c #7B5C44",
"m  c #745946",
"M  c #7D624A",
"N  c #7F6653",
"B  c #6F6F6F",
"V  c gray48",
"C  c #84572B",
"Z  c #86592D",
"A  c #8D5C2E",
"S  c #8D5F3F",
"D  c #825833",
"F  c #92602F",
"G  c #956231",
"H  c #986432",
"J  c #9E6A39",
"K  c #A16D3D",
"L  c #976742",
"P  c #8B6E5A",
"I  c #946F52",
"U  c #8A715C",
"Y  c #9C7253",
"T  c #987558",
"R  c #A77343",
"E  c #AB754B",
"W  c #AD7A4C",
"Q  c #A0734B",
"!  c #B0764E",
"~  c #A97956",
"^  c #B17D51",
"/  c #8F7967",
"(  c #8F7969",
")  c #9D7C64",
"_  c #957C69",
"`  c #917E70",
"'  c #A07F68",
"]  c #B58155",
"[  c #B5835B",
"{  c #BA865B",
"}  c #BD8A5E",
"|  c #9E836E",
" . c #95877C",
".. c #988678",
"X. c #9A8779",
"o. c #AB8366",
"O. c #A3826A",
"+. c #A9866D",
"@. c #A68266",
"#. c #BF8B60",
"$. c #A48976",
"%. c #AF8C74",
"&. c #AC8E79",
"*. c #A38775",
"=. c #B28D73",
"-. c #B3917A",
";. c #BB957A",
":. c #B69177",
">. c #CD895B",
",. c #C58357",
"<. c #D28C5D",
"1. c #C18861",
"2. c #DD9462",
"3. c #C29A7F",
"4. c #E69A66",
"5. c #E89B67",
"6. c #E79B68",
"7. c #E89D69",
"8. c #EAA06E",
"9. c #EBA473",
"0. c #EDAA7C",
"q. c #968E8A",
"w. c #9D9690",
"e. c #999999",
"r. c #939190",
"t. c #A59285",
"y. c #A99585",
"u. c #AD998A",
"i. c #B29A89",
"p. c #A59D96",
"a. c #B19E90",
"s. c #A5A09D",
"d. c #ACA29C",
"f. c #BFA899",
"g. c #BAA799",
"h. c #ABA5A1",
"j. c #ADACAB",
"k. c #A2A2A2",
"l. c gray69",
"z. c #BCBCBC",
"x. c #C69E81",
"c. c #C89F83",
"v. c #CCA284",
"b. c #DFA880",
"n. c #D1A788",
"m. c #D6AA8B",
"M. c #DAAE8E",
"N. c #D5A684",
"B. c #DEB190",
"V. c #D6B095",
"C. c #F0AF81",
"Z. c #F4B58B",
"A. c #F4B98E",
"S. c #E7B896",
"D. c #EBBA97",
"F. c #EDBC9A",
"G. c #E0B292",
"H. c #F6BC93",
"J. c #DBBBA5",
"K. c #F3C19E",
"L. c #FBC59F",
"P. c #DBC4B4",
"I. c #FBC6A1",
"U. c #FECAA5",
"Y. c #FDCDAA",
"T. c #F4CCAF",
"R. c #E2CABB",
"E. c #FBCFB0",
"W. c #F2CCB2",
"Q. c #FDD7BC",
"!. c #FCD2B5",
"~. c #C1C1C1",
"^. c gray84",
"/. c #DADADA",
"(. c #EAD1C1",
"). c #FCDFCB",
"_. c #F2D4C0",
"`. c #FCE0CF",
"'. c #FFE4D2",
"]. c #E4E4E4",
"[. c #EDEDED",
"{. c #F6F6F6",
"}. c #F9F9F9",
/* pixels */
"                                                                            ",
"                                  .   . + .                                 ",
"                            % 8 A G C G H H D w .                           ",
"                        = a H H G H H H H H H H L e                         ",
"                      > G H H H H H H H H H H H H R g @                     ",
"                  o 6 H H H H H H H H H H H H H H G ] ] q                   ",
"                o 7 0 H H H H G H H H H H H H H H H H } 1.z -               ",
"                5 9 9 F H H G A A G H H H H H H H H H K 1.1.1.z .           ",
"              X 9 9 6 p I O.=.x.;.;.+.T M i H H H H H H K #.#.#.t           ",
"              # 7 g x.U.U.U.U.U.U.U.U.U.L.V.N i H H H H H R } #.[ o         ",
"              * ~ U.U.U.U.U.U.U.U.U.U.U.U.U.Y.V.M Z G H H H J { #.k         ",
"            o l ' +.I.U.U.U.U.U.K.S.U.U.U.U.U.U.!.| C H H H H J } #.q       ",
"      . 4 c b 1.U.U.U.U.U.U.U.U.I.| L.L.I.U.U.U.U.E...f H H H H J #.{ $     ",
"    2 z.}.}.}./.y.K.U.U.U.U.U.U.U.K.:.+.v.U.U.U.U.I.Q./ Z H H H H W #.z     ",
"  1 /.}.}.}.}.}.[.*.U.U.U.U.U.I.3.:.-.;.n.v.U.U.U.U.U.Q.k H H H H H } [ o   ",
"  k.}.}.}.}.}.}.}.l.B.U.U.U.$.p.].}.}.].q.B.U.U.U.U.Y.E.R.f H H H G ] } <   ",
". [.j.e.}.}.}.}.}.{.%.U.U.$./.}.}.}.}.}.}.e.G.U.U.U.U.U.`.| G G H H R 1.y   ",
"& }.^.e.}.}.}.}.}.}.-.U.n.z.}.}.}.}.}.}.}.}. .U.U.U.U.U.Q.R.d H H H H 1.z   ",
"O {.}.}.}.}.}.}.}.[.;.U.y.}.}.}.}.}.}.}.}.}.~.3.U.U.U.U.E.'.U H H H H { g   ",
"  ^.}.}.}.}.}.}.}.l.B.U.h.}.}.}.}.}.}.{.}.}.}.| U.U.U.U.Y.'.u.G H H H ] w   ",
"  B }.}.}.}.}.}.}.t.U.U.j.}.}.}.}.}.}.V c }.}.i.U.U.U.U.I.`.R.f H H H ] <   ",
"  x h.}.}.}.}.}.s.B.U.U.d.}.}.}.}.}.}.[.].}.}.O.U.U.U.U.Y.`.`.u H H H ^ ,   ",
"  ,.>._ q.j.s...M.U.U.U.$.{.}.}.}.}.}.}.}.}.z.n.U.U.U.U.U.`.'.l H H H ^ :   ",
". 4.5.H.U.U.U.+.v.U.U.U.K. .{.}.}.}.}.}.}.}.d.L.U.U.U.U.U.`.'.l H H H ] ;   ",
"+ 6.5.H.U.U.0.x.Y.U.U.U.U.K.t.^.}.}.}.}.}.w.G.U.U.U.U.U.U.'.'.i H H H { -   ",
"* 6.5.Z.U.H.2.I T =.K.U.U.I.U.m.&.d.r.w.i.K.U.U.U.U.U.U.Y.'.`.u H H J 1.+   ",
"# 5.5.C.U.U.H.F.L.U.U.U.U.U.U.U.Y.U.U.U.L.U.U.U.U.U.U.U.E.'.P.d H H W Y .   ",
". <.5.9.U.U.U.U.U.U.U.U.U.U.U.U.U.U.U.U.U.U.U.U.U.U.U.U.T.'.g.H G J { ,     ",
"  L 5.6.I.U.U.U.;.U.U.U.U.U.U.U.U.U.U.U.U.U.U.U.U.U.U.U.:.f.X.H G ^ w       ",
"  , 5.5.A.U.U.U.O.U.U.U.U.U.U.U.U.U.U.U.U.U.U.U.U.U.U.U.I.+.g H R z         ",
"    E 5.9.I.U.D.| L.U.U.U.U.U.U.U.U.U.U.U.U.U.U.U.U.U.U.U.Y.l H Q @         ",
"    < 5.5.H.U.b.@.U U.M.U.Y.U.U.U.U.U.U.U.U.U.U.U.U.U.U.U.L.i H r           ",
"      j 6.5.I.A.W o.v.m.U.U.U.U.U.U.U.U.U.U.U.U.U.U.U.U.U.) = @             ",
"      o ,.5.0.I.I.~ %.U.U.U.U.U.U.U.U.U.U.U.U.U.U.m.M.S.;.-                 ",
"        : <.5.C.U.U.U.U.U.U.U.U.U.U.U.U.U.U.U.U.U.W. .. .                   ",
"          - >.5.9.I.U.U.U.U.U.U.U.U.U.U.U.U.U.U.U.J.;                       ",
"            * S 6.9.Z.I.U.U.U.U.U.U.U.U.U.U.U.U.i.:                         ",
"                * S <.7.0.H.U.U.U.U.U.U.U.U.S.v .                           ",
"                    . # , 5 w h m m m v h 3 X                               ",
"                                                                            "
};
