/* XPM */
static char *result[] = {
/* columns rows colors chars-per-pixel */
"48 51 2 1 ",
"  c #0B0500",
". c #FEFEFE",
/* pixels */
"................................................",
"................................................",
"................................................",
"................................................",
"....                                        ....",
"....                                        ....",
"....                                        ....",
"....                                        ....",
"....                                        ....",
"....                                        ....",
"....                                        ....",
"....                                        ....",
"....                                        ....",
"....                                        ....",
"....                                        ....",
"....                                        ....",
"....                                        ....",
"....                                        ....",
"....                                        ....",
"....                                        ....",
"....                                        ....",
"....                                        ....",
"....                                        ....",
"....                                        ....",
"....                                        ....",
"....                                        ....",
"....                                        ....",
"....                                        ....",
"....                                        ....",
"....                                        ....",
"....                                        ....",
"....                                        ....",
"....                                        ....",
"....                                        ....",
"....                                        ....",
"....                                        ....",
"....                                        ....",
"....                                        ....",
"....                                        ....",
"....                                        ....",
"....                                        ....",
"....                                        ....",
"....                                        ....",
"....                                        ....",
"....                                        ....",
"....                                        ....",
"....                                        ....",
"................................................",
"................................................",
"................................................",
"................................................"
};
