/* XPM */
static char *_3ca03aeff274ddcd9a7e1f7f577843ep6dIX8OnyrWfVA4V[] = {
/* columns rows colors chars-per-pixel */
"52 54 6 1 ",
"  c None",
". c #0B0500",
"X c #84817F",
"o c #C1C0BE",
"O c #FDFDFD",
"+ c #FEFEFE",
/* pixels */
" OOOOOOOOOOOOOOOOOOOOOOOOOOOOOOOOOOOOOOOOOOOOOOOOOO ",
"OOOOOOOOOOOOOOOOOOOOOOOOOOOOOOOOOOOOOOOOOOOOOOOOOOOO",
"OOOOOOOOOOOOOOOOOOOOOOOOOOOOOOOOOOOOOOOOOOOOOOOOOOOO",
"OOOoXXXXXXXXXXXXXXXXXXXXXXXXXXXXXXXXXXXXXXXXXXXXoOOO",
"OOOX............................................XOOO",
"OOOX............................................XOOO",
"OOOX............................................XOOO",
"OOOX............................................XOOO",
"OOOX............................................XOOO",
"OOOX............................................XOOO",
"OOOX............................................XOOO",
"OOOX............................................XOOO",
"OOOX............................................XOOO",
"OOOX............................................XOOO",
"OOOX............................................XOOO",
"OOOX............................................XOOO",
"OOOX............................................XOOO",
"OOOX............................................XOOO",
"OOOX............................................XOOO",
"OOOX............................................XOOO",
"OOOX............................................XOOO",
"OOOX............................................XOOO",
"OOOX............................................XOOO",
"OOOX............................................XOOO",
"OOOX............................................XOOO",
"OOOX............................................XOOO",
"OOOX............................................XOOO",
"OOOX............................................XOOO",
"OOOX............................................XOOO",
"OOOX............................................XOOO",
"OOOX............................................XOOO",
"OOOX............................................XOOO",
"OOOX............................................XOOO",
"OOOX............................................XOOO",
"OOOX............................................XOOO",
"OOOX............................................XOOO",
"OOOX............................................XOOO",
"OOOX............................................XOOO",
"OOOX............................................XOOO",
"OOOX............................................XOOO",
"OOOX............................................XOOO",
"OOOX............................................XOOO",
"OOOX............................................XOOO",
"OOOX............................................XOOO",
"OOOX............................................XOOO",
"OOOX............................................XOOO",
"OOOX............................................XOOO",
"OOOX............................................XOOO",
"OOOX............................................XOOO",
"OOOX............................................XOOO",
"OOOoXXXXXXXXXXXXXXXXXXXXXXXXXXXXXXXXXXXXXXXXXXXXoOOO",
"OOOOOOOOOOOOOOOOOOOOOOOOOOOOOOOOOOOOOOOOOOOOOOOOOOOO",
"OOOOOOOOOOOOOOOOOOOOOOOOOOOOOOOOOOOOOOOOOOOOOOOOOOOO",
" OOOOOOOOOOOOOOOOOOOOOOOOOOOOOOOOOOOOOOOOOOOOOOOOOO "
};
