/* XPM */
static char *c4b3a5d500544192d9b71628dae5edd1YwlR4W2ZZznvhJ2Y[] = {
/* columns rows colors chars-per-pixel */
"54 54 6 1 ",
"  c None",
". c black",
"X c #3A1838",
"o c #73316F",
"O c #E662DF",
"+ c #E762DF",
/* pixels */
" .................................................... ",
"......................................................",
"......................................................",
"...XooooooooooooooooooooooooooooooooooooooooooooooX...",
"...o++++++++++++++++++++++++++++++++++++++++++++++o...",
"...o++++++++++++++++++++++++++++++++++++++++++++++o...",
"...o++++++++++++++++++++++++++++++++++++++++++++++o...",
"...o++++++++++++++++++++++++++++++++++++++++++++++o...",
"...o++++++++++++++++++++++++++++++++++++++++++++++o...",
"...o++++++++++++++++++++++++++++++++++++++++++++++o...",
"...o++++++++++++++++++++++++++++++++++++++++++++++o...",
"...o++++++++++++++++++++++++++++++++++++++++++++++o...",
"...o++++++++++++++++++++++++++++++++++++++++++++++o...",
"...o++++++++++++++++++++++++++++++++++++++++++++++o...",
"...o++++++++++++++++++++++++++++++++++++++++++++++o...",
"...o++++++++++++++++++++++++++++++++++++++++++++++o...",
"...o++++++++++++++++++++++++++++++++++++++++++++++o...",
"...o++++++++++++++++++++++++++++++++++++++++++++++o...",
"...o++++++++++++++++++++++++++++++++++++++++++++++o...",
"...o++++++++++++++++++++++++++++++++++++++++++++++o...",
"...o++++++++++++++++++++++++++++++++++++++++++++++o...",
"...o++++++++++++++++++++++++++++++++++++++++++++++o...",
"...o++++++++++++++++++++++++++++++++++++++++++++++o...",
"...o++++++++++++++++++++++++++++++++++++++++++++++o...",
"...o++++++++++++++++++++++++++++++++++++++++++++++o...",
"...o++++++++++++++++++++++++++++++++++++++++++++++o...",
"...o++++++++++++++++++++++++++++++++++++++++++++++o...",
"...o++++++++++++++++++++++++++++++++++++++++++++++o...",
"...o++++++++++++++++++++++++++++++++++++++++++++++o...",
"...o++++++++++++++++++++++++++++++++++++++++++++++o...",
"...o++++++++++++++++++++++++++++++++++++++++++++++o...",
"...o++++++++++++++++++++++++++++++++++++++++++++++o...",
"...o++++++++++++++++++++++++++++++++++++++++++++++o...",
"...o++++++++++++++++++++++++++++++++++++++++++++++o...",
"...o++++++++++++++++++++++++++++++++++++++++++++++o...",
"...o++++++++++++++++++++++++++++++++++++++++++++++o...",
"...o++++++++++++++++++++++++++++++++++++++++++++++o...",
"...o++++++++++++++++++++++++++++++++++++++++++++++o...",
"...o++++++++++++++++++++++++++++++++++++++++++++++o...",
"...o++++++++++++++++++++++++++++++++++++++++++++++o...",
"...o++++++++++++++++++++++++++++++++++++++++++++++o...",
"...o++++++++++++++++++++++++++++++++++++++++++++++o...",
"...o++++++++++++++++++++++++++++++++++++++++++++++o...",
"...o++++++++++++++++++++++++++++++++++++++++++++++o...",
"...o++++++++++++++++++++++++++++++++++++++++++++++o...",
"...o++++++++++++++++++++++++++++++++++++++++++++++o...",
"...o++++++++++++++++++++++++++++++++++++++++++++++o...",
"...o++++++++++++++++++++++++++++++++++++++++++++++o...",
"...o++++++++++++++++++++++++++++++++++++++++++++++o...",
"...o++++++++++++++++++++++++++++++++++O+++++O+++++o...",
"...XooooooooooooooooooooooooooooooooooooooooooooooX...",
"......................................................",
"......................................................",
" .................................................... "
};
