/* XPM */
static char *_246ab053189445289e220950885b979i7BUWdqaxNCxji04[] = {
/* columns rows colors chars-per-pixel */
"54 54 7 1 ",
"  c None",
". c #0B0500",
"X c #84817F",
"o c #848180",
"O c #C1C0BE",
"+ c #FDFDFD",
"@ c #FEFEFE",
/* pixels */
" ++++++++++++++++++++++++++++++++++++++++++++++++++++ ",
"++++++++++++++++++++++++++++++++++++++++++++++++++++++",
"++++++++++++++++++++++++++++++++++++++++++++++++++++++",
"+++OooooXoooooooooooXoooooooooooXoooooooooooXoooooO+++",
"+++X..............................................o+++",
"+++o..............................................o+++",
"+++o..............................................o+++",
"+++o..............................................o+++",
"+++o..............................................o+++",
"+++o..............................................o+++",
"+++o..............................................o+++",
"+++o..............................................o+++",
"+++o..............................................o+++",
"+++o..............................................o+++",
"+++o..............................................o+++",
"+++o..............................................X+++",
"+++X..............................................o+++",
"+++o..............................................o+++",
"+++o..............................................o+++",
"+++o..............................................o+++",
"+++o..............................................o+++",
"+++o..............................................o+++",
"+++o..............................................o+++",
"+++o..............................................o+++",
"+++o..............................................o+++",
"+++o..............................................o+++",
"+++o..............................................o+++",
"+++o..............................................X+++",
"+++X..............................................o+++",
"+++o..............................................o+++",
"+++o..............................................o+++",
"+++o..............................................o+++",
"+++o..............................................o+++",
"+++o..............................................X+++",
"+++o..............................................o+++",
"+++o..............................................o+++",
"+++o..............................................o+++",
"+++o..............................................X+++",
"+++o..............................................o+++",
"+++o..............................................o+++",
"+++X..............................................o+++",
"+++o..............................................X+++",
"+++o..............................................o+++",
"+++o..............................................o+++",
"+++o..............................................o+++",
"+++o..............................................X+++",
"+++o..............................................o+++",
"+++o..............................................o+++",
"+++o..............................................o+++",
"+++o..............................................o+++",
"+++OoooooooooooooooooooXooooooooooooooooooooooooooO+++",
"++++++++++++++++++++++++++++++++++++++++++++++++++++++",
"++++++++++++++++++++++++++++++++++++++++++++++++++++++",
" ++++++++++++++++++++++++++++++++++++++++++++++++++++ "
};
