/* XPM */
static char *result[] = {
/* columns rows colors chars-per-pixel */
"50 50 44 1 ",
"  c #0C0606",
". c #0F0808",
"X c #130C0C",
"o c #171010",
"O c #1C1414",
"+ c #241C1C",
"@ c #271F20",
"# c #272223",
"$ c #292324",
"% c #2A2729",
"& c #2B2A2D",
"* c #2B2E31",
"= c #2C3336",
"- c #2C3539",
"; c #2C3A3D",
": c #2C3D42",
"> c #2C4245",
", c #2C454A",
"< c #2C4A4D",
"1 c #2C4750",
"2 c #2C4D52",
"3 c #2C4F58",
"4 c #2C5254",
"5 c #2C5856",
"6 c #2C545A",
"7 c #2C5B5C",
"8 c #2C605F",
"9 c #2C5761",
"0 c #2C5D62",
"q c #2C5E6A",
"w c #2C6264",
"e c #2C636B",
"r c #2C6A6B",
"t c #2C6672",
"y c #2C6B73",
"u c #2C677A",
"i c #2C6C7B",
"p c #2C7274",
"a c #2C727C",
"s c #2C6F83",
"d c #2C7383",
"f c #2C748C",
"g c #2C7594",
"h c #2C759D",
/* pixels */
"hhhhhhhhhhhhhhhhhhhhhhhhhhhhhhhhhhhhhhhhhhhhhhhhhh",
"hhhhhhhhhhhhhhhhhhhhhhhhhhhhhhhhhhhhhhhhhhhhhhhhhh",
"hhhhhhhhhhhhhhhhhhhhhhhhhhhhhhhhhhhhhhhhhhhhhhhhhh",
"hhhhhhhhhhhhhhhhhhhhhhhhhhhhhhhhhhhhhhhhhhhhhhhhhh",
"hhhhhhhhhhhhhhhhhhhhhhhhhhhhhhhhhhhhhhhhhhhhhhhhhh",
"hhhhhhhhhhhhhhhhhhhhhhhhhhhhhhhhhhhhhhhhhhhhhhhhhh",
"hhhhhhhhhhhhhhhhhhhhhhhhhhhhhhhhhhhhhhhhhhhhhhhhhh",
"hhhhhhhhhhhhhhhhhhhhhhhhhhhhhhhhhhhhhhhhhhhhhhhhhh",
"hhhhhhhhhhhhhhhhhhhhhhhhhhhhhhhhhhhhhhhhhhhhhhhhhh",
"hhhhhhhhhhhhhhhhhhhhhhhhhhhhhhhhhhhhhhhhhhhhhhhhhh",
"hhhhhhhhhhhhhhhhhhhhhhhhhhhhhhhhhhhhhhhhhhhhhhhhhh",
"hhhhhhhhhhhhhhhhhhhhggghhghhghhhhhhhhhhhhhhhhhhhhh",
"hhhhhhhhhhhhhhhgffadfpaffayyrefgghhhhhhhhhhhhhhhhh",
"hhhhhhhhhhhhhggdprp00007077<4e0dadfghhhhhhhhhhhhhh",
"hhhhhhhhhhhhgdapeee64<<<<>>>;>077rraghhhhhhhhhhhhh",
"hhhhhhhhhhhhfda04366<3,>>;;;=>2<<7w8afhhhhhhhhhhhh",
"hhhhhhhhhhhhffst4,><1:::*-:@-:::6346eaghhhhhhhhhhh",
"hhhhhhhhhhggtefg6,>2*:*&%::%&::-:246wwrfhhhhhhhhhh",
"hhhhhhhhhhgfadggq,>2-:=*:&-:@&-%;,:>4wtpghhhhhhhhh",
"hhhhhhhhhhfeeisgu22::***%@*&&%:->,;>2eweahhhhhhhhh",
"hhhhhhhhhgaw<4tdgq9=%@@++@@&*%@:,,::2077phhhhhhhhh",
"hhhhhhhhhfy4>1ssq1:%@+oX.X++%%%%;,q:>6ewrhhhhhhhhh",
"hhhhhhhhhgy4<6q03,*$+X    XO@%@*=6t666eywhhhhhhhhh",
"hhhhhhhhhfw46,,,1=%Oo      X@@$=-qsuderewhhhhhhhhh",
"hhhhhhhhhgi5>;;,,=$OX      .o@@::tffdsyeehhhhhhhhh",
"hhhhhhhhhhg4:;>1;*@Oo      .O+@=3tfuitetehhhhhhhhh",
"hhhhhhhhhfiw442>:=+OX      .OO@1quqq0etsahhhhhhhhh",
"hhhhhhhhhdie7<,6:=$+o.     XO@*9,u916tffghhhhhhhhh",
"hhhhhhhhhapt1>:3:=%@+o X  oO+*13,u<,7eghghhhhhhhhh",
"hhhhhhhhhdyw<:,21;=@++OOoO@@=:3t6>,6eifgghhhhhhhhh",
"hhhhhhhhhp85,<:;1::#&*@@@@*=::29,--4tthghhhhhhhhhh",
"hhhhhhhhhr<,<=*::::=%*%**--::,,1,>-,0ighghhhhhhhhh",
"hhhhhhhhhf5,>=;>63,,-*=*=:,:>;=>84>7wyhgghhhhhhhhh",
"hhhhhhhhhhy<>><<,et:1,::;::;>;=;5545wdhhhhhhhhhhhh",
"hhhhhhhhhhfr555<42<,296<;=;=>>=;24<7pdgghhhhhhhhhh",
"hhhhhhhhhhhgaw88722<>066;::;>;;=4457pfghhhhhhhhhhh",
"hhhhhhhhhhhhgddprwee4754>,>:;==;>258pfhhhhhhhhhhhh",
"hhhhhhhhhhhhhhgffpadiw848<><>;;>>48pdfhhhhhhhhhhhh",
"hhhhhhhhhhhhhhhhgfggapprrw4><<5<58rfhhhhhhhhhhhhhh",
"hhhhhhhhhhhhhhhhhhhhgggfaar8888rwafghhhhhhhhhhhhhh",
"hhhhhhhhhhhhhhhhhhhhhhhhhgfffdghfhhhhhhhhhhhhhhhhh",
"hhhhhhhhhhhhhhhhhhhhhhhhhhhhhhhhhhhhhhhhhhhhhhhhhh",
"hhhhhhhhhhhhhhhhhhhhhhhhhhhhhhhhhhhhhhhhhhhhhhhhhh",
"hhhhhhhhhhhhhhhhhhhhhhhhhhhhhhhhhhhhhhhhhhhhhhhhhh",
"hhhhhhhhhhhhhhhhhhhhhhhhhhhhhhhhhhhhhhhhhhhhhhhhhh",
"hhhhhhhhhhhhhhhhhhhhhhhhhhhhhhhhhhhhhhhhhhhhhhhhhh",
"hhhhhhhhhhhhhhhhhhhhhhhhhhhhhhhhhhhhhhhhhhhhhhhhhh",
"hhhhhhhhhhhhhhhhhhhhhhhhhhhhhhhhhhhhhhhhhhhhhhhhhh",
"hhhhhhhhhhhhhhhhhhhhhhhhhhhhhhhhhhhhhhhhhhhhhhhhhh",
"hhhhhhhhhhhhhhhhhhhhhhhhhhhhhhhhhhhhhhhhhhhhhhhhhh"
};
