/* XPM */
static char *result[] = {
/* columns rows colors chars-per-pixel */
"50 50 45 1 ",
"  c #0C0606",
". c #0F0808",
"X c #130C0C",
"o c #171010",
"O c #1C1414",
"+ c #1F191A",
"@ c #231B1B",
"# c #271F20",
"$ c #292325",
"% c #2A2629",
"& c #2B2A2D",
"* c #2B2E31",
"= c #2C3335",
"- c #2B3837",
"; c #2C363A",
": c #2C3A3D",
"> c #2C3D42",
", c #2C4245",
"< c #2C4847",
"1 c #2C454A",
"2 c #2C4B4D",
"3 c #2C504E",
"4 c #2C4C52",
"5 c #2C5254",
"6 c #2C5857",
"7 c #2C545A",
"8 c #2C5B5D",
"9 c #2C605F",
"0 c #2C5761",
"q c #2C5C63",
"w c #2C5E6A",
"e c #2C6264",
"r c #2C6867",
"t c #2C646B",
"y c #2C6B6C",
"u c #2C6471",
"i c #2C6B73",
"p c #2C6D7B",
"a c #2C7175",
"s c #2C727B",
"d c #2C6E82",
"f c #2C7384",
"g c #2C748C",
"h c #2C7594",
"j c #2C759D",
/* pixels */
"jjjjjjjjjjjjjjjjjjjjjjjjjjjjjjjjjjjjjjjjjjjjjjjjjj",
"jjjjjjjjjjjjjjjjjjjjjjjjjjjjjjjjjjjjjjjjjjjjjjjjjj",
"jjjjjjjjjjjjjjjjjjjjjjjjjjjjjjjjjjjjjjjjjjjjjjjjjj",
"jjjjjjjjjjjjjjjjjjjjjjjjjjjjjjjjjjjjjjjjjjjjjjjjjj",
"jjjjjjjjjjjjjjjjjjjjjjjjjjjjjjjjjjjjjjjjjjjjjjjjjj",
"jjjjjjjjjjjjjjjjjjjjjjjjjjjjjjjjjjjjjjjjjjjjjjjjjj",
"jjjjjjjjjjjjjjjjjjjjjjjjjjjjjjjjjjjjjjjjjjjjjjjjjj",
"jjjjjjjjjjjjjjjjjjjjjjjjjjjjjjjjjjjjjjjjjjjjjjjjjj",
"jjjjjjjjjjjjjjjjhggjhffghhgghgfhhjjjjjjjjjjjjjjjjj",
"jjjjjjjjjjjjhhgfssaffypfisiyreryfggjhjjjjjjjjjjjjj",
"jjjjjjjjjjjhgssyya9q8888qq88,<qeefsfffgjjjjjjjjjjj",
"jjjjjjjjjhgffsttte772241224<,,,578ttyyshjjjjjjjjjj",
"jjjjjjjjhhfssy88777547111>:>,--<7725e9tffhjjjjjjjj",
"jjjjjjjjjhgfiw412470>1>1>;:>&&;4>>27568esgjjjjjjjj",
"jjjjjjjjhgddgdw511111:::;;>;$%>1>>44755eiafhjjjjjj",
"jjjjjjjjhseshhq41>4;>***&*>>*$:1:&>,474ee9yfjjjjjj",
"jjjjjjjhgfuhhju1>14>>;*;>&&;>#&;;%=11>>4qtasgjjjjj",
"jjjjjjjhadudggd111>>>;&*;=***&#>>*;>>>>77ieeshjjjj",
"jjjjjjhseq0pdhduw4>;&#%####=*&%%;;>>1>>>4ee8rfjjjj",
"jjjjjhgir2>1dhhu44=%##@+O@##&&*%#*1>7>>17q98rfjjjj",
"jjjjjhge5<,7ddu74*%%#OXX..XO##*%$%=;7w1>27u9eajjjj",
"jjjjjjft844uu001>&##OX  . .XO#%%##;>7u7148eteijjjj",
"jjjjjhgt44427701*&#o..     .XO#%%**>0i0uqwii9ajjjj",
"jjjjjjg8554,>>>:;#Oo.     ..Xo##$=;1idhgpiyteyjjjj",
"jjjjjjhd5<--:1>;=#Oo         X@@#;>4dgggspiteyjjjj",
"jjjjjjjf5>:,12>;*OOo         X@@%*47dhddpuuirsjjjj",
"jjjjjjjyq25421:=*@OX.       .XOO%;wwdu0wwtrspfjjjj",
"jjjjjffieq7224,>&#OoX.      .XO@%104u7707fgggfjjjj",
"jjjjjsspi74110>*=#++oX.  ...XO@$;017w4175ihghgjjjj",
"jjjjjgyii2,,>44*;%#+OXXo..XXO@#>1w>uw4>79ihhjhjjjj",
"jjjjjgsiq2>>>74>>=$##OOooO#+#*>40ww1:>0wpphhjhjjjj",
"jjjjjfa9w171=>4>>;$%*##@@@#&=>>17w4>>>4p0ijhjjjjjj",
"jjjjjf932<,-&-<,>:;#**%&&%%&;;>>441>;=:0pshjhjjjjj",
"jjjjjf9<,2-*==>7>>:*&*#*;;>1>14>>1471;<w9ihhhjjjjj",
"jjjjjhy7<,-->147014;;*;**>>1>1,;*;4w4139tfjjhjjjjj",
"jjjjjjgr3,<,<114pw>111>>;>>1::::=;47q757igjhjjjjjj",
"jjjjjjhsr5544<<452,1774>=*;;=<:,;;265789shhjjjjjjj",
"jjjjjjjhfi9e765442117772>;;;=>,:;;26785asfjjjjjjjj",
"jjjjjjjjhgayrt85287<<q471>,1:,,-::<3335ysghjjjjjjj",
"jjjjjjjjjhhhsapyetut406q11:<::=*--><589rfhjjjjjjjj",
"jjjjjjjjjjjjhghfassgrqe3r3<,<<:-:><<59asfhjjjjjjjj",
"jjjjjjjjjjjjjjhggggfayyre963<<<53<359rshhjjjjjjjjj",
"jjjjjjjjjjjjjjjhjjjhfggsayy953<8399eyshjjjjjjjjjjj",
"jjjjjjjjjjjjjjjjjjjjhhhhhgssr9rrraisfhjjjjjjjjjjjj",
"jjjjjjjjjjjjjjjjjjjjjjjjjhhhjjgghhhhjjjjjjjjjjjjjj",
"jjjjjjjjjjjjjjjjjjjjjjjjjjjjjjjjhjjjjjjjjjjjjjjjjj",
"jjjjjjjjjjjjjjjjjjjjjjjjjjjjjjjjjjjjjjjjjjjjjjjjjj",
"jjjjjjjjjjjjjjjjjjjjjjjjjjjjjjjjjjjjjjjjjjjjjjjjjj",
"jjjjjjjjjjjjjjjjjjjjjjjjjjjjjjjjjjjjjjjjjjjjjjjjjj",
"jjjjjjjjjjjjjjjjjjjjjjjjjjjjjjjjjjjjjjjjjjjjjjjjjj"
};
