/* XPM */
static char *result[] = {
/* columns rows colors chars-per-pixel */
"50 50 40 1 ",
"  c #0C0606",
". c #0E0808",
"X c #120B0B",
"o c #170F10",
"O c #1B1313",
"+ c #231B1C",
"@ c #252122",
"# c #292426",
"$ c #2B2629",
"% c #2A2A2D",
"& c #2B2E31",
"* c #2C3235",
"= c #2C363A",
"- c #2C3A3D",
"; c #2C3D41",
": c #2C4245",
"> c #2C4847",
", c #2C454A",
"< c #2C4A4D",
"1 c #2C4D53",
"2 c #2C5355",
"3 c #2C545A",
"4 c #2C595C",
"5 c #2C605E",
"6 c #2C5660",
"7 c #2C5B63",
"8 c #2C5E6A",
"9 c #2C6263",
"0 c #2C646A",
"q c #2C696C",
"w c #2C6573",
"e c #2C6C74",
"r c #2C6C7B",
"t c #2C7174",
"y c #2C727A",
"u c #2C6D82",
"i c #2C7384",
"p c #2C748C",
"a c #2C7594",
"s c #2C759D",
/* pixels */
"ssssssssssssssssssssssssssssssssssssssssssssssssss",
"ssssssssssssssssssssssssssssssssssssssssssssssssss",
"ssssssssssssssssssssssssssssssssssssssssssssssssss",
"ssssssssssssssssssssssssssssssssssssssssssssssssss",
"ssssssssssssssssssssssssssssssssssssssssssssssssss",
"ssssssssssssssssssssssssssssssssssssssssssssssssss",
"ssssssssssssssssssssssssssssssssssssssssssssssssss",
"ssssssssssssssssssssssssssssssssssssssssssssssssss",
"ssssssssssssssssssssssssssssssssssssssssssssssssss",
"ssssssssssssssssssssssssssssssssssssssssssssssssss",
"ssssssssssssssssssssssssssssssssssssssssssssssssss",
"ssssssssssssssssssssssssssssssssssssssssssssssssss",
"ssssssssssssssssssssssssssssssssssssssssssssssssss",
"ssssssssssssssssssssssssssssssssssssssssssssssssss",
"ssssssssssssssssssssasapaapaaassssssssssssssssssss",
"sssssssssssssssssapetreeeeq49easasssssssssssssssss",
"sssssssssssssssaiiqqw2111<1-:200tyasssssssssssssss",
"sssssssssssssssaie4263,,,;--*1<149ypssssssssssssss",
"sssssssssssssssiuu0,,1;;===#=,;132qypsssssssssssss",
"ssssssssssssssauupw,,;;&*&;&%-&;1,39eassssssssssss",
"sssssssssssssayerpr,,;=&&&&&#=*;,;1w0tssssssssssss",
"ssssssssssssspq21up81%#@++#%&$&;,;1799psssssssssss",
"ssssssssssssai4:7u81%$+oX o+$$%=22:309ysssssssssss",
"sssssssssssssp31161;$OX    o+#&&0w78q9tsssssssssss",
"sssssssssssssp4,;;;;@o     .++=;rpurq0tsssssssssss",
"sssssssssssssa8:;,;*+o.     O+&6uirwe0isssssssssss",
"sssssssssssspp041,;*+o.    Xo@;8r36ruypsssssssssss",
"ssssssssssssptr31,;*#OoX  XX+&6,0,3waaasssssssssss",
"ssssssssssssay0<;;1;&++OOoO@&173,,8rasssssssssssss",
"sssssssssssspq4<1*,;;#$#+@$*;,7;=:wessssssssssssss",
"ssssssssssssp9>>&=,,;&&$&*;;,;,1:-9esassssssssssss",
"ssssssssssssst<,-,188;;==;,;;*=6227issssssssssssss",
"sssssssssssssse24<>31>61==;=>-=2259iasssssssssssss",
"ssssssssssssssayq94<21221;;---=222tissssssssssssss",
"sssssssssssssssspiiqqw344<::==->49tassssssssssssss",
"ssssssssssssssssssapiiqq59<><>><4tpassssssssssssss",
"sssssssssssssssssssssaasiyq4249qtissssssssssssssss",
"sssssssssssssssssssssssssaaaiippasssssssssssssssss",
"ssssssssssssssssssssssssssssssssssssssssssssssssss",
"ssssssssssssssssssssssssssssssssssssssssssssssssss",
"ssssssssssssssssssssssssssssssssssssssssssssssssss",
"ssssssssssssssssssssssssssssssssssssssssssssssssss",
"ssssssssssssssssssssssssssssssssssssssssssssssssss",
"ssssssssssssssssssssssssssssssssssssssssssssssssss",
"ssssssssssssssssssssssssssssssssssssssssssssssssss",
"ssssssssssssssssssssssssssssssssssssssssssssssssss",
"ssssssssssssssssssssssssssssssssssssssssssssssssss",
"ssssssssssssssssssssssssssssssssssssssssssssssssss",
"ssssssssssssssssssssssssssssssssssssssssssssssssss",
"ssssssssssssssssssssssssssssssssssssssssssssssssss"
};
