/* XPM */
static char *result[] = {
/* columns rows colors chars-per-pixel */
"50 50 50 1 ",
"  c #0C0606",
". c #0F0808",
"X c #130C0C",
"o c #171010",
"O c #1B1313",
"+ c #201718",
"@ c #231B1B",
"# c #271F20",
"$ c #281F20",
"% c #272122",
"& c #292324",
"* c #2A2629",
"= c #2B2A2D",
"- c #2B2E31",
"; c #2C3235",
": c #2C363A",
"> c #2C3A3D",
", c #2C403F",
"< c #2C3D42",
"1 c #2C4245",
"2 c #2C4847",
"3 c #2C454A",
"4 c #2C4B4D",
"5 c #2C504F",
"6 c #2C4D53",
"7 c #2C4F59",
"8 c #2C5255",
"9 c #2C5957",
"0 c #2C545B",
"q c #2C5B5D",
"w c #2C605F",
"e c #2C5761",
"r c #2C5C63",
"t c #2C5E6A",
"y c #2C6365",
"u c #2C6867",
"i c #2C646B",
"p c #2C6A6D",
"a c #2C706F",
"s c #2C6672",
"d c #2C6B73",
"f c #2C6778",
"g c #2C6D7B",
"h c #2C7275",
"j c #2C737C",
"k c #2C6E82",
"l c #2C7483",
"z c #2C748C",
"x c #2C7594",
"c c #2C759D",
/* pixels */
"cccccccccccccccccccccccccccccccccccccccccccccccccc",
"cccccccccccccccccccccccccccccccccccccccccccccccccc",
"cccccccccccccccccccccccccccccccccccccccccccccccccc",
"cccccccccccccccccccccccccccccccccccccccccccccccccc",
"ccccccccccccccccccxxxzzxxxzxccxxcccccccccccccccccc",
"cccccccccccxxxzllzczjjzzzljlzladhzcxcccccccccccccc",
"cccccccccxczljhdhppduudpupuuq9qyudllzzxxcccccccccc",
"cccccccczzlhhuijpq08q9q80rq02140qrijhjjjxccccccccc",
"ccccccclljlhyidey60644664333>3>1460ruuauhlzccccccc",
"cccccxxljjdiqq0r0043044321>1:1::37886eruyuzlcccccc",
"cccccxzxjlsq834670e363<31>>:>-;:3633388qwwljzccccc",
"cccccczzzzgge63634e<<<:<:;:>===>6<;36008qquhlxcccc",
"cccccczudkxkt06<36:<<;;;:;<<;&=13<;<46qe8yrdpdlccc",
"cccccxjudzxze33333-:---===><:&&=;<=;<16834qrqpjxcc",
"ccccxzlszxxzs6<333<<<<-:<;=;>;#*-<=*;341136uuialcc",
"cccczdkskzzzz736<<<:;-;-:;=;->*%;<;=<31:>68rguuuxc",
"cccxhyqrskzzzt776<<;=***$**==*=$=-<;<64;<<36ieqwhz",
"ccxldy927tkkxkse<:=####+O##*--;**#-<3:63<<0eiy0waz",
"ccxlp02>3rxxke36:-$*#OooooO@*$*;**$:<<776140qtyrpl",
"ccxh94430sks767:$$##OO.....oO#$=$*$-:<7te<14eiuyuh",
"ccxhr063etste33--#OoX.      o+##-*$;-<rir606qiduyh",
"cxxlq96833e6r3<-##oX.       .O##*$*-;<tffrdeussiua",
"ccxj94883>:3<<--#OOX         XO#$$;-:6fgxkzdgsuuya",
"ccxzs43<::<33::=OOX.         .o@+#;:<7gkzzkglddryp",
"cxxxk8,>:>44<--&OOo.         .o++&*:60kxlgzggddyuz",
"xcccs4,13146<;-#OOX.         .o++&=<0ekxkssdiygipl",
"xxzzyiq8766<<;:$OOXX         XOO+$-7ttkt0tqrddzgjl",
"xjlziry86446<::*@@oX        .oOO@-:re6k0070ekxzxzz",
"xllplir40<603-:=$+OoX..    .XXO@*-60<ts63307gxxxlz",
"czhygf84<<463-:-$@++oXX...Xooo+@-106<fi6>4rrkxxxxx",
"xxlhpr61<<366:<:*##+OOoXXXoo+#-:30seee43360sgzxxxx",
"xzldui8443<37<4;-&&#$@@OO+$&-;:<77et7::<rsgsgxxcxc",
"cljy5y1261;;333::$=-*&$#$@$=;<<<<7e73<;>30grgxcxcc",
"clu5525>;;;>31><<-**:&==---*;<:<<3731<<-:3ikgxcccc",
"czu8228>;;;>473<;:;=:-*-:;<33<<4<<<66e4:>erydxxxcc",
"czhy811,:>11606673--=::*;;<<<336<;:6re814rrplcxxcc",
"cxxh92,1,21866gg73<4<;:1;<<<<:>;:-;10qq688qszxcxcc",
"ccczu9282013<4te134766<>;<<4;<<1<;;,00080qulzccccc",
"ccczlpy988634604<4400041:;;;<;4<<:::60888rhjzxxccc",
"ccccxzhpyuqq0864443700t<<:<<:><<;;::50qq8yhjzxcccc",
"ccccccxlpuuuq088i861y08e1112,>1>,,>>44458walzxcccc",
"ccccccxczzjhjiyqigr4eqq8211,,,,>-::,,459wyhlxccccc",
"cccccccccxzlzjhjdjzuur88q42114,>;,,,,59quhhlcccccc",
"cccccccccccxxzlllzjauyq9yw85,2,2,,,2258qulzxcccccc",
"cccccccccccccxzxxxxhhjhaupu951259955qwuplxcccccccc",
"ccccccccccccccccccxxzxzljhhu9889w9wwuhdjzccccccccc",
"cccccccccccccccccccccxcxxzljjddipphjjllxcccccccccc",
"ccccccccccccccccccccccccccxxxcxcjzxxzxxccccccccccc",
"cccccccccccccccccccccccccccccccccccccccccccccccccc",
"cccccccccccccccccccccccccccccccccccccccccccccccccc"
};
