/* XPM */
static char *result[] = {
/* columns rows colors chars-per-pixel */
"50 50 124 2 ",
"   c #239145",
".  c #2A9546",
"X  c #2E9947",
"o  c #2E9748",
"O  c #319745",
"+  c #339947",
"@  c #3E9D47",
"#  c #359C48",
"$  c #3A9D49",
"%  c #3EA14A",
"&  c #43A24B",
"*  c #4CA64C",
"=  c #4EA94B",
"-  c #50A74E",
";  c #53AB4D",
":  c #5AAE4D",
">  c #5EB14D",
",  c #48A650",
"<  c #5DAE51",
"1  c #5FB151",
"2  c #5FB15D",
"3  c #62AF4F",
"4  c #63B24D",
"5  c #6BB64F",
"6  c #6FB84F",
"7  c #62AF50",
"8  c #64B252",
"9  c #6CB552",
"0  c #6BB857",
"q  c #6BB75D",
"w  c #6EB95D",
"e  c #73B754",
"r  c #73B953",
"t  c #7DBD53",
"y  c #75BA5B",
"u  c #7DBE5C",
"i  c #70B260",
"p  c #72BB64",
"a  c #7BBF63",
"s  c #78BD6C",
"d  c #6FA57B",
"f  c #75AD72",
"g  c #7BAE77",
"h  c #76B372",
"j  c #7BBE70",
"k  c #7EC156",
"l  c #82BF55",
"z  c #8CBA6E",
"x  c #82B474",
"c  c #85C155",
"v  c #8BC355",
"b  c #86C65D",
"n  c #8DC459",
"m  c #92C557",
"M  c #98C957",
"N  c #93C65A",
"B  c #9CCA5A",
"V  c #A3CD59",
"C  c #85C262",
"Z  c #8DC563",
"A  c #81C16B",
"S  c #8BC56C",
"D  c #8FCA69",
"F  c #90C761",
"G  c #94C964",
"H  c #9ACA64",
"J  c #91C76B",
"K  c #9DCC6E",
"L  c #82C374",
"P  c #84C47D",
"I  c #97C973",
"U  c #9CCC74",
"Y  c #9ACD79",
"T  c #AAD164",
"R  c #B0D66D",
"E  c #A4CB76",
"W  c #A3D273",
"Q  c #AAD373",
"!  c #A5D07C",
"~  c #A9D37A",
"^  c #B2D67C",
"/  c #B7D87B",
"(  c #2C759D",
")  c #3B7F97",
"_  c #357B9B",
"`  c #3B8093",
"'  c #3F829B",
"]  c #4D8D8D",
"[  c #589487",
"{  c #5E9889",
"}  c #418492",
"|  c #478892",
" . c #4C8E95",
".. c #498A9C",
"X. c #679F8C",
"o. c #6BA280",
"O. c #79AA8B",
"+. c #73A69D",
"@. c #659BAB",
"#. c #8CB88D",
"$. c #83B295",
"%. c #88B5A2",
"&. c #86C382",
"*. c #8BC880",
"=. c #95CB80",
"-. c #9FCB81",
";. c #90C08B",
":. c #98CE88",
">. c #A5D181",
",. c #AED78B",
"<. c #B6D883",
"1. c #B9DA83",
"2. c #B6DA8C",
"3. c #BADB8B",
"4. c #ACCC9F",
"5. c #ACD693",
"6. c #AFD998",
"7. c #B1D591",
"8. c #B6DA95",
"9. c #BFDF97",
"0. c #B3DAA9",
"q. c #BFDDB0",
"w. c #C3DF93",
"e. c #D3E9BA",
/* pixels */
"( ( ( ( ( ( ( ( ( ( ( ( ( ( ( ( ( ( ( ( ( ( ( ( ( ( ( ( ( ( ( ( ( ( ( ( ( ( ( ( ( ( ( ( ( ( ( ( ( ( ",
"( ( ( ( ( ( ( ( ( ( ( ( ( ( ( ( ( ( ( ( ( ( ( ( ( ( ( ( ( ( ( ( ( ( ( ( ( ( ( ( ( ( ( ( ( ( ( ( ( ( ",
"( ( ( ( ( ( ( ( ( ( ( ( ( ( ( ( ( ( ( ( ( ( ( ( ( ( ( ( ( ( ( ( ( ( ( ( ( ( ( ( ( ( ( ( ( ( ( ( ( ( ",
"( ( ( ( ( ( ( ( ( ( ( ( ( ( ( ( ( ( ( ( ( ( ( ( ( ( ( ( ( ( ( ( ( ( ( ( ( ( ( ( ( ( ( ( ( ( ( ( ( ( ",
"( ( ( ( ( ( ( ( ( ( ( ( ( ( ( ( ( ( ( ( ( ( ( ( ( ( ( ( ( ( ( ( ( ( ( ( ( ( ( ( ( ( ( ( ( ( ( ( ( ( ",
"( ( ( ( ( ( ( ( ( ( ( ( ( ( ( ( ( ( ( ( ( ( ( ( ( ( ( ( ( ( ( ( ( ( ( ( ( ( ( ( ( ( ( ( ( ( ( ( ( ( ",
"( ( ( ( ( ( ( ( ( ( ( ( ( ( ( ( ( ( ( ( ( ( ( ( ( ( ( ( ( ( ( ( ( ( ( ( ( ( ( ( ( ( ( ( ( ( ( ( ( ( ",
"( ( ( ( ( ( ( ( ( ( ( ( ( ( ( ( ( ( ( ( ( ( ( ( ( ( ( ( ( ( ( ( ( ( ( ( ( ( ( ( ( ( ( ( ( ( ( ( ( ( ",
"( ( ( ( ( ( ( ( ( ( ( ( ( ( ( ( ( ( ( ( ( ( ( ( ( ( ( ( ( ( ( ( ( ( ( ( ( ( ( ( ( ( ( ( ( ( ( ( ( ( ",
"( ( ( ( ( ( ( ( ( ( ( ( ( ( ( ( ( ( ( ( ( ( ( ( ( ( ( ( ( ( ( ( ( ( ( ( ( ( ( ( ( ( ( ( ( ( ( ( ( ( ",
"( ( ( ( ( ( ( ( ( ( ( ( ( ( ( ( ( ( ( ( ( ( ( ( ( ( ( ( ( ( ( ( ( ( ( ( ( ( ( ( ( ( ( ( ( ( ( ( ( ( ",
"( ( ( ( ( ( ( ( ( ( ( ( ( ( ( ( ( ( ( ( ( ( ( ( ( ( ( ( ( ( ( ( ( ( ( ( ( ( ( ( ( ( ( ( ( ( ( ( ( ( ",
"( ( ( ( ( ( ( ( ( ( ( ( ( ( ( ( ( ( ( ( ( ( ( ( ( ( ( ( ( ( ( ( ( ( ( ( ( ( ( ( ( ( ( ( ( ( ( ( ( ( ",
"( ( ( ( ( ( ( ( ( ( ( ( ( ( ( ( ( ( ( ( ( ( ( ( ( ( ( ( ( ( ( ( ( ( ( ( ( ( ( ( ( ( ( ( ( ( ( ( ( ( ",
"( ( ( ( ( ( ( ( ( ( ( ( ( ( ( ( ( ( ( ( ( ( ( ( ( ( ( ( ( ( ( ( ( ( ( ( ( ( ( ( ( ( ( ( ( ( ( ( ( ( ",
"( ( ( ( ( ( ( ( ( ( ( ( ( ( ( ( ( ( ( ( o.! u 5.b 3.1.T x  .` ( ( ( ( ( ( ( ( ( ( ( ( ( ( ( ( ( ( ( ",
"( ( ( ( ( ( ( ( ( ( ( ( ( ( ( ( ( ( _ $.K L t I k p y I R Q t 7.O.( ( ( ( ( ( ( ( ( ( ( ( ( ( ( ( ( ",
"( ( ( ( ( ( ( ( ( ( ( ( ( ( ( ( ( @.U :.s p 4 t 4 5 Y L 0 L c <.w.+.( ( ( ( ( ( ( ( ( ( ( ( ( ( ( ( ",
"( ( ( ( ( ( ( ( ( ( ( ( ( ( ( ( ] C 0 3 < y l V B 8 8 M ; ; q 9 H >.' ( ( ( ( ( ( ( ( ( ( ( ( ( ( ( ",
"( ( ( ( ( ( ( ( ( ( ( ( ( ( ( ( ;.7.Y 8 e l O * 3 @ @ 3 t & &.L 1 k ;.( ( ( ( ( ( ( ( ( ( ( ( ( ( ( ",
"( ( ( ( ( ( ( ( ( ( ( ( ( ( (  .t K 9.M ; + c 8 l V V t $ & 2 s 8 P :.( ( ( ( ( ( ( ( ( ( ( ( ( ( ( ",
"( ( ( ( ( ( ( ( ( ( ( ( ( ( ( #.y ^ :   * ,   . & l < % # & % ; : 0.4.( ( ( ( ( ( ( ( ( ( ( ( ( ( ( ",
"( ( ( ( ( ( ( ( ( ( ( ( ( ( ( h k 6 # 9 + O . X & @ N B . O o & : 1 L ..( ( ( ( ( ( ( ( ( ( ( ( ( ( ",
"( ( ( ( ( ( ( ( ( ( ( ( ( ( ( i M > & 9 $ & @ # 7 7 O m : * . * : : > f ( ( ( ( ( ( ( ( ( ( ( ( ( ( ",
"( ( ( ( ( ( ( ( ( ( ( ( ( ( ( l c = . ; *   v B N 3   ; N $ @ o = : j t _ ( ( ( ( ( ( ( ( ( ( ( ( ( ",
"( ( ( ( ( ( ( ( ( ( ( ( ( ( | a k % . % * . l * n 7 @ r l O @ & % > q r } ( ( ( ( ( ( ( ( ( ( ( ( ( ",
"( ( ( ( ( ( ( ( ( ( ( ( ( ( | Z k # + . *   + - l N e N 8 * @ # @ : 3 N _ ( ( ( ( ( ( ( ( ( ( ( ( ( ",
"( ( ( ( ( ( ( ( ( ( ( ( ( ( ` N r ; $ + =   X % - e ; * $ $ $ o > : e x ( ( ( ( ( ( ( ( ( ( ( ( ( ( ",
"( ( ( ( ( ( ( ( ( ( ( ( ( ( ( ;.~ > *   ; = . & .   . o $ $ $ e ; r ~ { ( ( ( ( ( ( ( ( ( ( ( ( ( ( ",
"( ( ( ( ( ( ( ( ( ( ( ( ( ( ( ` q.L > %   ; & . & & # *   o 9 ; 9 1.I _ ( ( ( ( ( ( ( ( ( ( ( ( ( ( ",
"( ( ( ( ( ( ( ( ( ( ( ( ( ( ( _ ^ H j &.& O # o . : @ # 7 e 9 e e.S z ( ( ( ( ( ( ( ( ( ( ( ( ( ( ( ",
"( ( ( ( ( ( ( ( ( ( ( ( ( ( ( _ B k > *.* t   o # . # 8 - < v W w ,.%.( ( ( ( ( ( ( ( ( ( ( ( ( ( ( ",
"( ( ( ( ( ( ( ( ( ( ( ( ( ( ( ( d 8.J A 8 t B e * & 7 t M / n B I g _ ( ( ( ( ( ( ( ( ( ( ( ( ( ( ( ",
"( ( ( ( ( ( ( ( ( ( ( ( ( ( ( ( _ 4.1.H C 8 a 6.r 5 5 4 9 7.D 1.X.( ( ( ( ( ( ( ( ( ( ( ( ( ( ( ( ( ",
"( ( ( ( ( ( ( ( ( ( ( ( ( ( ( ( ( ) =.G C I Y N <.c F ! 8 5.V z _ ( ( ( ( ( ( ( ( ( ( ( ( ( ( ( ( ( ",
"( ( ( ( ( ( ( ( ( ( ( ( ( ( ( ( ( ( ( [ h ;.F a 2.H U -.n E d ( ( ( ( ( ( ( ( ( ( ( ( ( ( ( ( ( ( ( ",
"( ( ( ( ( ( ( ( ( ( ( ( ( ( ( ( ( ( ( ( ( ( ( ( ( ( ( ( ( ( ( ( ( ( ( ( ( ( ( ( ( ( ( ( ( ( ( ( ( ( ",
"( ( ( ( ( ( ( ( ( ( ( ( ( ( ( ( ( ( ( ( ( ( ( ( ( ( ( ( ( ( ( ( ( ( ( ( ( ( ( ( ( ( ( ( ( ( ( ( ( ( ",
"( ( ( ( ( ( ( ( ( ( ( ( ( ( ( ( ( ( ( ( ( ( ( ( ( ( ( ( ( ( ( ( ( ( ( ( ( ( ( ( ( ( ( ( ( ( ( ( ( ( ",
"( ( ( ( ( ( ( ( ( ( ( ( ( ( ( ( ( ( ( ( ( ( ( ( ( ( ( ( ( ( ( ( ( ( ( ( ( ( ( ( ( ( ( ( ( ( ( ( ( ( ",
"( ( ( ( ( ( ( ( ( ( ( ( ( ( ( ( ( ( ( ( ( ( ( ( ( ( ( ( ( ( ( ( ( ( ( ( ( ( ( ( ( ( ( ( ( ( ( ( ( ( ",
"( ( ( ( ( ( ( ( ( ( ( ( ( ( ( ( ( ( ( ( ( ( ( ( ( ( ( ( ( ( ( ( ( ( ( ( ( ( ( ( ( ( ( ( ( ( ( ( ( ( ",
"( ( ( ( ( ( ( ( ( ( ( ( ( ( ( ( ( ( ( ( ( ( ( ( ( ( ( ( ( ( ( ( ( ( ( ( ( ( ( ( ( ( ( ( ( ( ( ( ( ( ",
"( ( ( ( ( ( ( ( ( ( ( ( ( ( ( ( ( ( ( ( ( ( ( ( ( ( ( ( ( ( ( ( ( ( ( ( ( ( ( ( ( ( ( ( ( ( ( ( ( ( ",
"( ( ( ( ( ( ( ( ( ( ( ( ( ( ( ( ( ( ( ( ( ( ( ( ( ( ( ( ( ( ( ( ( ( ( ( ( ( ( ( ( ( ( ( ( ( ( ( ( ( ",
"( ( ( ( ( ( ( ( ( ( ( ( ( ( ( ( ( ( ( ( ( ( ( ( ( ( ( ( ( ( ( ( ( ( ( ( ( ( ( ( ( ( ( ( ( ( ( ( ( ( ",
"( ( ( ( ( ( ( ( ( ( ( ( ( ( ( ( ( ( ( ( ( ( ( ( ( ( ( ( ( ( ( ( ( ( ( ( ( ( ( ( ( ( ( ( ( ( ( ( ( ( ",
"( ( ( ( ( ( ( ( ( ( ( ( ( ( ( ( ( ( ( ( ( ( ( ( ( ( ( ( ( ( ( ( ( ( ( ( ( ( ( ( ( ( ( ( ( ( ( ( ( ( ",
"( ( ( ( ( ( ( ( ( ( ( ( ( ( ( ( ( ( ( ( ( ( ( ( ( ( ( ( ( ( ( ( ( ( ( ( ( ( ( ( ( ( ( ( ( ( ( ( ( ( ",
"( ( ( ( ( ( ( ( ( ( ( ( ( ( ( ( ( ( ( ( ( ( ( ( ( ( ( ( ( ( ( ( ( ( ( ( ( ( ( ( ( ( ( ( ( ( ( ( ( ( "
};
