/* XPM */
static char *result[] = {
/* columns rows colors chars-per-pixel */
"50 50 182 2 ",
"   c #228F44",
".  c #229145",
"X  c #2A9546",
"o  c #2E9847",
"O  c #2D9748",
"+  c #2F9848",
"@  c #309746",
"#  c #339947",
"$  c #3B9C47",
"%  c #349B48",
"&  c #3B9E49",
"*  c #3C9D5B",
"=  c #3EA149",
"-  c #449F47",
";  c #419F49",
":  c #44A24B",
">  c #4AA54B",
",  c #4DA94B",
"<  c #51A74C",
"1  c #54AB4C",
"2  c #5AAF4C",
"3  c #5DB04D",
"4  c #55AB50",
"5  c #5CAE51",
"6  c #58A65F",
"7  c #59AD5F",
"8  c #5EB050",
"9  c #61AE4F",
"0  c #63B34E",
"q  c #6AB54E",
"w  c #6EB84E",
"e  c #71B94F",
"r  c #64B252",
"t  c #6CB552",
"y  c #6EB851",
"u  c #67B65A",
"i  c #6AB75D",
"p  c #72B652",
"a  c #75BA52",
"s  c #7BBC53",
"d  c #72BA5B",
"f  c #7DBD5C",
"g  c #6BAD65",
"h  c #6FB962",
"j  c #72BB65",
"k  c #79BD65",
"l  c #6EA57D",
"z  c #7BAE76",
"x  c #71A77C",
"c  c #75AA78",
"v  c #7BAD7B",
"b  c #7EC164",
"n  c #7FC272",
"m  c #82BF54",
"M  c #84B56F",
"N  c #86B86F",
"B  c #8EBD6B",
"V  c #91BE6B",
"C  c #84B472",
"Z  c #85BC70",
"A  c #84C154",
"S  c #8BC356",
"D  c #83C25B",
"F  c #8BC55B",
"G  c #93C757",
"H  c #96C857",
"J  c #93C659",
"K  c #99C75E",
"L  c #96C959",
"P  c #9CCB5A",
"I  c #A4CE5B",
"U  c #83C262",
"Y  c #89C667",
"T  c #8DC56E",
"R  c #94C364",
"E  c #99C464",
"W  c #95CA65",
"Q  c #9DCD62",
"!  c #96C86A",
"~  c #82C273",
"^  c #8BC673",
"/  c #85C57A",
"(  c #8CC77D",
")  c #90C977",
"_  c #9ACA77",
"`  c #9BCF7C",
"'  c #A1CE63",
"]  c #A9CF69",
"[  c #AAD163",
"{  c #A2D168",
"}  c #ADD36B",
"|  c #B1D56F",
" . c #A3CE73",
".. c #A9CE7B",
"X. c #A4D070",
"o. c #ACD375",
"O. c #A3D17D",
"+. c #ADD47D",
"@. c #B3D675",
"#. c #B3D67B",
"$. c #B6D87A",
"%. c #2C759D",
"&. c #367C97",
"*. c #337A9B",
"=. c #397D9C",
"-. c #377CA0",
";. c #3D8196",
":. c #3E80A4",
">. c #4D8C8E",
",. c #518F8D",
"<. c #589487",
"1. c #5E9984",
"2. c #55928B",
"3. c #5B968A",
"4. c #448594",
"5. c #4A8A91",
"6. c #42849A",
"7. c #518E93",
"8. c #528E9A",
"9. c #659E84",
"0. c #639C88",
"q. c #73A685",
"w. c #74AC90",
"e. c #5A93A8",
"r. c #6A9DAB",
"t. c #78A9B9",
"y. c #89B781",
"u. c #82AEB9",
"i. c #95BBBE",
"p. c #8ECA82",
"a. c #94CC83",
"s. c #99C885",
"d. c #9BCE86",
"f. c #9ACE8A",
"g. c #9ED084",
"h. c #96D08B",
"j. c #9FD08A",
"k. c #98C990",
"l. c #9ED293",
"z. c #A0C68C",
"x. c #A0D088",
"c. c #AFD28F",
"v. c #B4D683",
"b. c #B7D983",
"n. c #BDDD83",
"m. c #B5D98C",
"M. c #A6CA97",
"N. c #A2D294",
"B. c #AED996",
"V. c #A8D59C",
"C. c #B3DA93",
"Z. c #BCDB91",
"A. c #B9D7A3",
"S. c #B4DBA4",
"D. c #B9DEA5",
"F. c #BBDEAB",
"G. c #A7C6BA",
"H. c #B5D9B7",
"J. c #B8E1AE",
"K. c #C1DE8F",
"L. c #C4DE96",
"P. c #C4E093",
"I. c #C6E19E",
"U. c #C0DBB0",
"Y. c #C7DEBB",
"T. c #C6E3A7",
"R. c #CCE4A5",
"E. c #CFE8A6",
"W. c #D1E7AA",
"Q. c #D2E8AD",
"!. c #C9E6B7",
"~. c #C6E5BC",
"^. c #D0E5B1",
"/. c #D7EBB7",
"(. c #DAECC4",
"). c #D9EED1",
"_. c #DFF1D3",
"`. c #E0F1C2",
"'. c #E4F4CC",
"]. c #E6F4D6",
"[. c #E5F4E0",
"{. c #EFF9E6",
/* pixels */
"%.%.%.%.%.%.%.%.%.%.%.%.%.%.%.%.%.%.%.%.%.%.%.%.%.%.%.%.%.%.%.%.%.%.%.%.%.%.%.%.%.%.%.%.%.%.%.%.%.%.",
"%.%.%.%.%.%.%.%.%.%.%.%.%.%.%.%.%.%.%.%.%.%.%.%.%.%.%.%.%.%.%.%.%.%.%.%.%.%.%.%.%.%.%.%.%.%.%.%.%.%.",
"%.%.%.%.%.%.%.%.%.%.%.%.%.%.%.%.%.%.%.%.%.%.%.%.%.%.%.%.%.%.%.%.%.%.%.%.%.%.%.%.%.%.%.%.%.%.%.%.%.%.",
"%.%.%.%.%.%.%.%.%.%.%.%.%.%.%.%.%.%.%.%.%.%.%.%.%.%.%.%.%.%.%.%.%.%.%.%.%.%.%.%.%.%.%.%.%.%.%.%.%.%.",
"%.%.%.%.%.%.%.%.%.%.%.%.%.%.%.%.%.%.%.%.%.%.%.%.%.%.%.%.%.%.%.%.%.%.%.%.%.%.%.%.%.%.%.%.%.%.%.%.%.%.",
"%.%.%.%.%.%.%.%.%.%.%.%.%.%.%.%.%.%.%.%.%.%.%.*.%.%.%.%.%.%.%.%.%.%.%.%.%.%.%.%.%.%.%.%.%.%.%.%.%.%.",
"%.%.%.%.%.%.%.%.%.%.%.%.%.%.%.%.%.%.%.%.%.*.5.8.1.c z q.3.;.%.%.%.%.%.%.%.%.%.%.%.%.%.%.%.%.%.%.%.%.",
"%.%.%.%.%.%.%.%.%.%.%.%.%.%.%.%.%.%.>.2.1.R @.'.} I | ].[ ] 6.%.%.%.%.%.%.%.%.%.%.%.%.%.%.%.%.%.%.%.",
"%.%.%.%.%.%.%.%.%.%.%.%.%.%.%.*.4.C Z.m a N.^ A I W.P.n.[ I R &.=.*.%.%.%.%.%.%.%.%.%.%.%.%.%.%.%.%.",
"%.%.%.%.%.%.%.%.%.%.%.%.%.%.%.5.' } d.2 A Z.+.s 0 ) !.S | `.I O.j.8 g c 3.*.%.%.%.%.%.%.%.%.%.%.%.%.",
"%.%.%.%.%.%.%.%.%.%.%.%.%.*.8.c.m F.l.w e k T m s 3 3 3 w O.[ I I L y T.P.s.:.%.%.%.%.%.%.%.%.%.%.%.",
"%.%.%.%.%.%.%.%.%.%.%.%.;.V I.~.3 Z i 3 0 a p e L A w h.h.h d m y A L v.L.L.G.%.%.%.%.%.%.%.%.%.%.%.",
"%.%.%.%.%.%.%.%.%.%.%.r.A.m.a 3 2 F.n 2 2 m G 2 < - t  .` 2 2 2 F.3 A I E.| R.2.%.%.%.%.%.%.%.%.%.%.",
"%.%.%.%.%.%.%.%.%.%.<.K r 8 3 0 2 2 r : J I I I I d > : m P ; > 2 2 h.u m ' D.E :.%.%.%.%.%.%.%.%.%.",
"%.%.%.%.%.%.%.%.%.-.E p 3 e F 0 3 3 L Q m < m m < X 5 s P I J + O 1 8 2 2 s t [ i.%.%.%.%.%.%.%.%.%.",
"%.%.%.%.%.%.%.%.%.t.d.].b.T p.q 1 S H :     9 9 9 & O $ ; 9 J a % : ).( 2 2 2 J v.5.%.%.%.%.%.%.%.%.",
"%.%.%.%.%.%.%.%.%.6 m @.T.S.S I S < X $ m S S L I I I I H - & % y : k.n J.2 2 k C.9.%.%.%.%.%.%.%.%.",
"%.%.%.%.%.%.%.%.,.J S S ` K.L A 1   O s L , X S L L I I m > X < . A O 2 u 2 n ~.( u.%.%.%.%.%.%.%.%.",
"%.%.%.%.%.%.%.%.v Q 0 T.I a X   O < 5   . . # % $ p p @ > . + 2 = o = , 2 2 n {.Y u.%.%.%.%.%.%.%.%.",
"%.%.%.%.%.%.%.%.f.B.0 o.w : . @ f % O     . . % K J m G m > . > : . : 1 2 2 2 V.D.w.%.%.%.%.%.%.%.%.",
"%.%.%.%.%.%.%.%.k J t m 2 . . I >   . = . . . X     2 I I m   X o o . : 2 3 3 3 2 H.=.%.%.%.%.%.%.%.",
"%.%.%.%.%.%.%.&.r m A a 2 , : A   & 2 1 , , = #   X   > I I >   % = . , 1 3 1 3 3 0 9.%.%.%.%.%.%.%.",
"%.%.%.%.%.%.%.&.m I P 2 3 & > 3 . 2 % = O . 1 G p s 1   r I a   1 : . 1 1 1 3 1 2 3 R %.%.%.%.%.%.%.",
"%.%.%.%.%.%.%.&.a I s 2 : . r = : 2 . X S L I I s a @ . X K I - : 1 . = : , 3 1 j r A ,.%.%.%.%.%.%.",
"%.%.%.%.%.%.%.3.w s a 3 o . 8 = 2 #   9 I I I P - s ;     m I 5 O 2 % . = > 3 2 l./ A 9.%.%.%.%.%.%.",
"%.%.%.%.%.%.%.C i O.e 2 . . . > , :   : H t $ I 4 f m   9 I I   % , % O = > , 2 2 3 e C %.%.%.%.%.%.",
"%.%.%.%.%.%.%.N d Q.3 , . = . . , =     < a > I m 4 9 @ p I I   1 = % X 8 O 1 2 2 2 A z %.%.%.%.%.%.",
"%.%.%.%.%.%.%.N q P 3 , o = . O 3 %     X 2 & 5 I I I m m I 9 O 2 1 % . t . 1 3 2 s I ,.%.%.%.%.%.%.",
"%.%.%.%.%.%.%.z a L 3 2 > = . = 2 O . . % . = O I I t ; s - X > = 3 . . y # 2 3 3 A E *.%.%.%.%.%.%.",
"%.%.%.%.%.%.%.,.J L a 3 1 = . o 2 2 . . % % > O ; + & :   + & X : & X = A , 2 3 s H l %.%.%.%.%.%.%.",
"%.%.%.%.%.%.%.*.B.g.{ 0 2 1 X . 2 1 2 = . , O . . . . . X & & = & . 4 2 a , 3 S J #.7.%.%.%.%.%.%.%.",
"%.%.%.%.%.%.%.%.3.C.(.b 2 2 , . o o 1 , . % 2 1 # . = : O % = O     1 J , 2 ( $.#.U.*.%.%.%.%.%.%.%.",
"%.%.%.%.%.%.%.%.%.1._.T.5 2 2 #   . 2 2 = . . = , 1 = . > 1     + p A > 2 d $.} I 6.%.%.%.%.%.%.%.%.",
"%.%.%.%.%.%.%.%.%.v #.@.a ( h 1   2 X > , : . . . . O O & . . 1 K p 9 t V./.S s I 4.%.%.%.%.%.%.%.%.",
"%.%.%.%.%.%.%.%.%.y.@.I s p./ [.* p = . . X X X 2 f r O X m S 2 q a q q b.].N.O.@.3.%.%.%.%.%.%.%.%.",
"%.%.%.%.%.%.%.%.%.M L q s 5 8 S.7 , J O . X = + % . # 1 p q X . 1 s S b.^ u N.+.Y.*.%.%.%.%.%.%.%.%.",
"%.%.%.%.%.%.%.%.%.<.I f F 0 r / 3 3 G A t & . X . . . . X P Q S I I I I a 3 a I 0.%.%.%.%.%.%.%.%.%.",
"%.%.%.%.%.%.%.%.%.*.B R.C.U s n 3 u 3 G I P p 5 & : a S L A L I K.P m I W ^ _ 1.%.%.%.%.%.%.%.%.%.%.",
"%.%.%.%.%.%.%.%.%.%.4...#.m.[ L 0 l.h 0 s O.Q.a 0 3 0 p w 0 s ' !.t F #.X.z.-.%.%.%.%.%.%.%.%.%.%.%.",
"%.%.%.%.%.%.%.%.%.%.%.e.^.P.'.L L s 3 3 x.U ` s J a 3 q 0 3 3 d J.H R.W.V *.%.%.%.%.%.%.%.%.%.%.%.%.",
"%.%.%.%.%.%.%.%.%.%.%.%.l [ I.a r { ! 3 d.} I | X.0 w Y C.S 0 f F.P I I z %.%.%.%.%.%.%.%.%.%.%.%.%.",
"%.%.%.%.%.%.%.%.%.%.%.%.%.>.B I S m I.D j.~ 0 P.Q.I I K (.b 3 a.m.I E >.*.%.%.%.%.%.%.%.%.%.%.%.%.%.",
"%.%.%.%.%.%.%.%.%.%.%.%.%.%.*.>.x C k._ I A n _ Q.A b W +.G P [ I z 2.%.%.%.%.%.%.%.%.%.%.%.%.%.%.%.",
"%.%.%.%.%.%.%.%.%.%.%.%.%.%.%.%.%.%.%.*.<.C Y.#.I E Y.M.5.>.>.5.&.%.%.%.%.%.%.%.%.%.%.%.%.%.%.%.%.%.",
"%.%.%.%.%.%.%.%.%.%.%.%.%.%.%.%.%.%.%.%.%.%.*.&.4.%.%.%.%.%.%.%.%.%.%.%.%.%.%.%.%.%.%.%.%.%.%.%.%.%.",
"%.%.%.%.%.%.%.%.%.%.%.%.%.%.%.%.%.%.%.%.%.%.%.%.%.%.%.%.%.%.%.%.%.%.%.%.%.%.%.%.%.%.%.%.%.%.%.%.%.%.",
"%.%.%.%.%.%.%.%.%.%.%.%.%.%.%.%.%.%.%.%.%.%.%.%.%.%.%.%.%.%.%.%.%.%.%.%.%.%.%.%.%.%.%.%.%.%.%.%.%.%.",
"%.%.%.%.%.%.%.%.%.%.%.%.%.%.%.%.%.%.%.%.%.%.%.%.%.%.%.%.%.%.%.%.%.%.%.%.%.%.%.%.%.%.%.%.%.%.%.%.%.%.",
"%.%.%.%.%.%.%.%.%.%.%.%.%.%.%.%.%.%.%.%.%.%.%.%.%.%.%.%.%.%.%.%.%.%.%.%.%.%.%.%.%.%.%.%.%.%.%.%.%.%.",
"%.%.%.%.%.%.%.%.%.%.%.%.%.%.%.%.%.%.%.%.%.%.%.%.%.%.%.%.%.%.%.%.%.%.%.%.%.%.%.%.%.%.%.%.%.%.%.%.%.%."
};
