/* XPM */
static char *result[] = {
/* columns rows colors chars-per-pixel */
"50 50 194 2 ",
"   c #228F44",
".  c #229145",
"X  c #2B9545",
"o  c #2E9847",
"O  c #2D9749",
"+  c #2F9848",
"@  c #319746",
"#  c #349947",
"$  c #3C9C47",
"%  c #359B48",
"&  c #3B9E49",
"*  c #3EA04A",
"=  c #409E47",
"-  c #419F4A",
";  c #44A34B",
":  c #4AA54B",
">  c #4DA94C",
",  c #52A74B",
"<  c #54AB4D",
"1  c #5AAF4C",
"2  c #5DB04C",
"3  c #5CAE51",
"4  c #5BAC5C",
"5  c #5EB050",
"6  c #62AE4E",
"7  c #63B24D",
"8  c #6BB54E",
"9  c #6EB84F",
"0  c #62AF50",
"q  c #64B252",
"w  c #6BB552",
"e  c #6EB852",
"r  c #66B459",
"t  c #6CB65E",
"y  c #72B754",
"u  c #73BA52",
"i  c #7BBD53",
"p  c #71B95E",
"a  c #7BBD5B",
"s  c #519D6C",
"d  c #589879",
"f  c #639E7F",
"g  c #66B461",
"h  c #6EB761",
"j  c #6EB962",
"k  c #74BC67",
"l  c #7ABD65",
"z  c #79BD6C",
"x  c #69A576",
"c  c #76AD74",
"v  c #7AAD77",
"b  c #75A97D",
"n  c #7FC053",
"m  c #7EC173",
"M  c #82BF54",
"N  c #83BF5A",
"B  c #88B76F",
"V  c #8ABA6E",
"C  c #93BF67",
"Z  c #92BE6B",
"A  c #84B472",
"S  c #85B579",
"D  c #90BC7C",
"F  c #84C155",
"G  c #8BC356",
"H  c #84C159",
"J  c #8CC559",
"K  c #92C757",
"L  c #96C857",
"P  c #92C759",
"I  c #94C959",
"U  c #9CCB5A",
"Y  c #A4CE5B",
"T  c #84C161",
"R  c #8EC563",
"E  c #89C56C",
"W  c #94C664",
"Q  c #9BC564",
"!  c #94C966",
"~  c #9DC962",
"^  c #94C169",
"/  c #9DC66D",
"(  c #9BCC68",
")  c #83C475",
"_  c #86C67A",
"`  c #8CC678",
"'  c #9CC873",
"]  c #93CA7A",
"[  c #9FD07D",
"{  c #A3CC61",
"}  c #A9CF63",
"|  c #A4CC6A",
" . c #A8CF6C",
".. c #A7D066",
"X. c #AAD165",
"o. c #A6D26D",
"O. c #ADD26D",
"+. c #A0CE74",
"@. c #A9CE75",
"#. c #ACD373",
"$. c #A3D17A",
"%. c #ACD57C",
"&. c #B2D573",
"*. c #B4D779",
"=. c #B6D97C",
"-. c #2C759D",
";. c #397E95",
":. c #30779C",
">. c #347A9B",
",. c #397E98",
"<. c #347AA0",
"1. c #3C8197",
"2. c #3F829B",
"3. c #4A8B8E",
"4. c #518F8C",
"5. c #5B9787",
"6. c #5F9984",
"7. c #55928A",
"8. c #599589",
"9. c #5E9889",
"0. c #408296",
"q. c #4A8A92",
"w. c #48879C",
"e. c #58939C",
"r. c #639C83",
"t. c #61998B",
"y. c #6A9F91",
"u. c #6BA181",
"i. c #73A785",
"p. c #79AB82",
"a. c #6EA296",
"s. c #629AA6",
"d. c #7FC090",
"f. c #88B584",
"g. c #8DB6A4",
"h. c #97BEB7",
"j. c #8ECA83",
"k. c #93CA84",
"l. c #96C788",
"z. c #95CD89",
"x. c #9BCE8C",
"c. c #9ED18F",
"v. c #9CD090",
"b. c #ACCF87",
"n. c #A6D187",
"m. c #AAD58A",
"M. c #B3D583",
"N. c #BADA83",
"B. c #B2D789",
"V. c #BEDC8A",
"C. c #A3C899",
"Z. c #A4D396",
"A. c #A5D49A",
"S. c #A8D69B",
"D. c #A9D89F",
"F. c #B3D595",
"G. c #BEDE93",
"H. c #A8D4A6",
"J. c #B3DBAA",
"K. c #BAD3B8",
"L. c #B9E0AF",
"P. c #C3DF92",
"I. c #C2DE99",
"U. c #C4E194",
"Y. c #C4E29C",
"T. c #CAE49F",
"R. c #C5E3A7",
"E. c #CCE5A4",
"W. c #D1E7AC",
"Q. c #D2E8AD",
"!. c #C5E4B7",
"~. c #D3EAB4",
"^. c #D7ECBD",
"/. c #DAEDBC",
"(. c #A8C6CA",
"). c #B4D0D4",
"_. c #D3EBC7",
"`. c #DBEDC5",
"'. c #D2EDCA",
"]. c #DAECCF",
"[. c #DEF1C3",
"{. c #D7E5DD",
"}. c #D9F1D0",
"|. c #E0F2C3",
" X c #E2F2CB",
".X c #E3F2D2",
"XX c #E2F3D9",
"oX c #E9F6DB",
"OX c #EFF9DE",
"+X c #E0EAE4",
"@X c #E7F7E0",
"#X c #EFF9E4",
"$X c #F1F9E6",
"%X c #F3FAEB",
/* pixels */
"-.-.-.-.-.-.-.-.-.-.-.-.-.-.-.-.-.-.-.-.-.-.-.-.-.-.-.-.-.-.-.-.-.-.-.-.-.-.-.-.-.-.-.-.-.-.-.-.-.-.",
"-.-.-.-.-.-.-.-.-.-.-.-.-.-.-.-.-.-.-.-.-.-.-.-.:.:.:.:.-.-.-.-.-.-.-.-.-.-.-.-.-.-.-.-.-.-.-.-.-.-.",
"-.-.-.-.-.-.-.-.-.-.-.-.-.-.-.-.-.-.-.-.9.p.g.S W { | m.A b w.-.-.-.-.-.-.-.-.-.-.-.-.-.-.-.-.-.-.-.",
"-.-.-.-.-.-.-.-.-.-.-.-.-.-.-.>.r.r.f V U *./.&.X.X.&. XO.Y D :.-.-.-.-.-.-.-.-.-.-.-.-.-.-.-.-.-.-.",
"-.-.-.-.-.-.-.-.-.-.-.-.-.-.8.+.P.G u p J.p i Y =.oX&.V.Y Y Y b -.:.-.-.-.-.-.-.-.-.-.-.-.-.-.-.-.-.",
"-.-.-.-.-.-.-.-.-.-.-.-.:.v Y E.Z.1 7 $.|.( n 9 9 ^.Q.O.X.W.*.L l.l.r s r.7.:.-.-.-.-.-.-.-.-.-.-.-.",
"-.-.-.-.-.-.-.-.-.-.-.:.i.Y U I.t 2 I K W.` 7 7 1 ) k 7 J G.P.Y O.=.F 7 G N.#.i.-.-.-.-.-.-.-.-.-.-.",
"-.-.-.-.-.-.-.-.-.:.8.g.`.l r XX` 7 7 2 a G K U 9 1 1 q 3 0 I.Y U I Y L w XX/.&.(.<.-.-.-.-.-.-.-.-.",
"-.-.-.-.-.-.-.-.<.p.Y T.L.5 5 z 1 1 2 i 8 1 1 G L L u !.}.1 5 2 w h 7 F Y O.N.O.`.y.-.-.-.-.-.-.-.-.",
"-.-.-.-.-.-.-.w.{.E.$.u 2 1 j @Xr 2 1 8 L U 6 - $ ; u M.m.1 1 2 3 '.k i L X.[.../.b.1.-.-.-.-.-.-.-.",
"-.-.-.-.-.-.1.^ J r 2 1 1 1 2 t 5 : 6 Y Y Y Y Y G % X $ F I w : 1 1 1 t _ 9 P Y `.U.A -.-.-.-.-.-.-.",
"-.-.-.-.-.:.A I 1 1 7 u 9 1 1 7 F i L P M Y Y N 0 q F J L Y L : . & 1 1 _ 2 2 P u G @.s.-.-.-.-.-.-.",
"-.-.-.-.-.s.| k.T J o.] 2 2 > F Y I : .   : : X       # q L Y L X   X g z.1 2 2 2 F o.K.>.-.-.-.-.-.",
"-.-.-.-.-.h.k.OXU.`.t p u < F Y i X .   - K N L q , : 6 , X < M I 0 % D.%Xm r 1 1 2 Y =.r.-.-.-.-.-.",
"-.-.-.-.;.1 u &.' @Xm.L Y U i @   @ a L Y N U Y Y Y Y Y Y w O & . q 6 4 J.g '.3 1 1 ` B.p.-.-.-.-.-.",
"-.-.-.-.b i G U 7 ^.N.U L F @ . X H L M - X M Y U Y Y Y Y , % ; > . y - & 1 z 1 1 Z.Z.j.h.-.-.-.-.-.",
"-.-.-.>.~ U 7 B.U Y F @ . . . o w % # X   ; 5 O . K i : 6 ;   & 1 * . 5 . 3 1 1 1 '.}.v.).-.-.-.-.-.",
"-.-.-.4.T.E 7 ^.Y i ; . . % n < % . . .   . . q Y Y , $ @ @   ; 3 ; . 3 * 1 1 1 1 j.].x.c -.-.-.-.-.",
"-.-.-.6.E.' 7 L e 2 %   ; M : . . . . . . . & F u 7 Y Y Y I X . * * X ; . 1 1 1 1 1 x.S.H.<.-.-.-.-.",
"-.-.-.d e I 7 I 2 > . X U y . . X : . . o O X .     0 Y Y Y <   . O * . . ; 1 1 1 2 1 1 A.s.-.-.-.-.",
"-.-.-.x 2 G n n 1 < > ; U O . ; 5 < * 1 ; * % .     . > Y Y L X . & * . * * 1 1 1 1 1 1 1 E :.-.-.-.",
"-.-.-.x u Y U 8 1 1 & , n . * 1 * : ; X . @ i : J R ; . 0 Y Y - . 5 : . X q < < 1 1 1 < 2 L 5.-.-.-.",
"-.-.-.c n Y P 1 1 : . w 2 . * > . . % q e U Y G $ # X . X I Y w . < < X . < > : 1 1 1 1 2 9 A -.-.-.",
"-.-.-.k i U n 1 < . . i * * 1 * . X J Y Y Y Y L J J   .   0 Y Y ; % < & X o * : 1 1 1 v.m 7 ~ ;.-.-.",
"-.-.1.H 1 i i 2 ; . . 5 + 1 > X   6 Y Y L Y Y $ $ L -   . 0 Y M ; . < & * . O > : 1 2 Z.z.6 Y 0.-.-.",
"-.-.5.F m ' u < + . . . : < < o . % K U @ & Y y 3 L y   3 Y Y M   X > o ; X * : ; 1 1 1 1 1 L 7.-.-.",
"-.-.5.i Z.Q.8 2 . X % . . o 2 X . . @ L @ , Y H # @ -   = Y Y N . > < . : . e * & 1 1 1 1 1 Y 7.-.-.",
"-.-.5.u P #.2 < . * o . . : 1 X . . X q a ; M Y Y L U y L Y Y 3 X 2 < X * . u X * < 1 1 7 G U 1.-.-.",
"-.-.8.i n G 2 2 * > . . * 1 > .   . O . X . O U Y Y U < 6 Y 6   : < 2 * . . w O ; 1 1 1 i Y A -.-.-.",
"-.-.q.I F G 2 < < 1 X . o 1 > +     O X + > . U Y N % 3 y $   = ; @ 1 @   O q ; , 2 2 2 M Y 8.-.-.-.",
"-.-.>.^ i U 9 7 1 1 + . . < 1 > .   . : . 3 ; X @ . > % . X & % . ; ; . & $ n < 1 1 7 n G ~ :.-.-.-.",
"-.-.-.x ~.T P u 1 1 ; . . > 1 1 > * . ; *     . .   . . . O & % & ;   & < < F : 1 2 K F *.S -.-.-.-.",
"-.-.-.,.Q [.`.n 5 3 1 * . O * ; 1 > . X < 1 > . . . o ; ; % % : $ . . O w U : 1 1 ] Y N. X9.-.-.-.-.",
"-.-.-.-.4.B _.J.2 1 1 1 + . . * 1 1 *   . ; 1 < * < > o . % % . . . . $ Y : : 2 n OXX.X.C.>.-.-.-.-.",
"-.-.-.-.-.f  XoXu 2 2 1 * . . o 1 1 1 @ . . o o ; ; X X w t -   . $ I U , 1 2 ` Y X.Y ~ >.-.-.-.-.-.",
"-.-.-.-.:./ *.&.U 2 A.t j X X 5 X * : < * . . . . o ; o @   X $ w Y i < u 7 c.#X~ e n Y 8.-.-.-.-.-.",
"-.-.-.-.-.b.=.Y U 2 D.m %Xd.O J . . . . + X . 3 F I 7 X . < Y M , 1 i u 2 8 *.%XZ.L.W X.u.-.-.-.-.-.",
"-.-.-.-.>.{ U 8 K 1 1 r }.H.X H y . . . + . . . X . X > u U 8   X % 6 9 F P.[ ) j.XXN.+X2.-.-.-.-.-.",
"-.-.-.-.-.B Y u n n 2 2 5 2 > e Y 6 . . X * ; ; o . o # O 6 6 1 ; P Y Y Y X.2 2 2 n { f.-.-.-.-.-.-.",
"-.-.-.-.-.4.Y ( k.I 2 7 H.j 2 2 F Y L P & . . . . X o * : G Y Y Y Y Y Y Y U K 2 w U Z 2.-.-.-.-.-.-.",
"-.-.-.-.-.-.v N.#XJ E P e 2 5 k 1 n Y Y Y L M 1 * e F K L F 7 Y X.~.U i M Y ( n.F.v ,.-.-.-.-.-.-.-.",
"-.-.-.-.-.-.;./ G.P U.X.L 8 r L.5 1 u i ~.R.i 7 2 2 2 7 8 2 7 L } }.` 7 O.O.! b.e.-.-.-.-.-.-.-.-.-.",
"-.-.-.-.-.-.-.w.+XV.E.W.Y Y i 2 2 2 z.r x.v.7 i K 2 8 n 9 8 2 1 w S.a { #XW.~ ,.-.-.-.-.-.-.-.-.-.-.",
"-.-.-.-.-.-.-.-.a.Y U..Xu u U L u 7 l { U L Y Y u 1 2 p z.9 u 1 $.#X#.Y N.X.W >.-.-.-.-.-.-.-.-.-.-.",
"-.-.-.-.-.-.-.-.-.5.~ Y U w 7 R.m.6 Z. XJ L I.|.n G L ..V.| u 1 r ) L Y Y ^ 4.-.-.-.-.-.-.-.-.-.-.-.",
"-.-.-.-.-.-.-.-.-.-.;.v Y Y K R W. .u l 1 1 %./...U L ! $XZ.1 8 R.Y.Y Y r.-.-.-.-.-.-.-.-.-.-.-.-.-.",
"-.-.-.-.-.-.-.-.-.-.-.-.1.6.c V l.@.Y U u ) W W.$.u i J #.K U Y Y Y C r.>.-.-.-.-.-.-.-.-.-.-.-.-.-.",
"-.-.-.-.-.-.-.-.-.-.-.-.-.-.-.:.:.>.8.A / .X=.Y Y o.].F.t.7.5.r.8.3.>.:.-.-.-.-.-.-.-.-.-.-.-.-.-.-.",
"-.-.-.-.-.-.-.-.-.-.-.-.-.-.-.-.-.-.-.-.-.w.q.r.3.>.>.>.-.-.-.-.-.-.-.-.-.-.-.-.-.-.-.-.-.-.-.-.-.-.",
"-.-.-.-.-.-.-.-.-.-.-.-.-.-.-.-.-.-.-.-.-.-.-.-.-.-.-.-.-.-.-.-.-.-.-.-.-.-.-.-.-.-.-.-.-.-.-.-.-.-."
};
