/* XPM */
static char *result[] = {
/* columns rows colors chars-per-pixel */
"50 50 160 2 ",
"   c #228F43",
".  c #239145",
"X  c #2B9546",
"o  c #2F9847",
"O  c #2D9748",
"+  c #329947",
"@  c #3C9C47",
"#  c #349A48",
"$  c #3B9E49",
"%  c #3EA149",
"&  c #439E47",
"*  c #419F4A",
"=  c #44A24A",
"-  c #4BA54B",
";  c #4EA94B",
":  c #51A74D",
">  c #53AB4C",
",  c #5AAF4C",
"<  c #5DB04D",
"1  c #5BAD50",
"2  c #57AB5B",
"3  c #5EB151",
"4  c #63AE4E",
"5  c #63B24E",
"6  c #69B44E",
"7  c #6EB84F",
"8  c #60AF50",
"9  c #63B354",
"0  c #6CB451",
"q  c #6EB856",
"w  c #6BB75C",
"e  c #6EB859",
"r  c #73B751",
"t  c #73B951",
"y  c #7BBD54",
"u  c #72BA5D",
"i  c #7BBD5C",
"p  c #669F7E",
"a  c #56AA6B",
"s  c #6FB961",
"d  c #73BB63",
"f  c #77B06A",
"g  c #77BD69",
"h  c #67A572",
"j  c #6CA37F",
"k  c #76AA7C",
"l  c #7BAD7D",
"z  c #7FB172",
"x  c #77BE77",
"c  c #7CC054",
"v  c #7EC271",
"b  c #82BF55",
"n  c #87B76F",
"m  c #82BA68",
"M  c #8AB96D",
"N  c #90BD6B",
"B  c #84B573",
"V  c #84C155",
"C  c #8CC456",
"Z  c #84C15C",
"A  c #8BC45A",
"S  c #94C657",
"D  c #92C857",
"F  c #93C65A",
"G  c #96C959",
"H  c #9CCB5A",
"J  c #A4CE5B",
"K  c #86C364",
"L  c #8DC562",
"P  c #8CC66D",
"I  c #94C265",
"U  c #90C864",
"Y  c #9DCB63",
"T  c #96C168",
"R  c #9FCF6D",
"E  c #86C57A",
"W  c #8EC77A",
"Q  c #8DC87C",
"!  c #95CB74",
"~  c #9ACC73",
"^  c #91C878",
"/  c #99CC7C",
"(  c #A2CD62",
")  c #A6D063",
"_  c #AED36D",
"`  c #B1D56E",
"'  c #A3CB76",
"]  c #ABD475",
"[  c #A5D27E",
"{  c #AAD47B",
"}  c #B3D676",
"|  c #B2D579",
" . c #2C759D",
".. c #3A7E97",
"X. c #30779B",
"o. c #337A9B",
"O. c #3A7E9A",
"+. c #377CA1",
"@. c #3C8196",
"#. c #498D87",
"$. c #4B8B8E",
"%. c #5C9985",
"&. c #599589",
"*. c #448693",
"=. c #478992",
"-. c #4A8A93",
";. c #5A9596",
":. c #629B85",
">. c #679E92",
",. c #60999C",
"<. c #6BA281",
"1. c #69A18A",
"2. c #74A78A",
"3. c #7AA99C",
"4. c #4888A8",
"5. c #538EAB",
"6. c #5E99A1",
"7. c #7FC082",
"8. c #83B383",
"9. c #8FBA85",
"0. c #80B08E",
"q. c #9ABEAC",
"w. c #8EC983",
"e. c #93CB83",
"r. c #9BCB84",
"t. c #9DD08C",
"y. c #9DCD91",
"u. c #A6CB8A",
"i. c #ACD486",
"p. c #BCDB86",
"a. c #B3DA8A",
"s. c #BBDB8D",
"d. c #A3D392",
"f. c #A5D49A",
"g. c #B5DA93",
"h. c #B5D498",
"j. c #B4DB99",
"k. c #BDDE98",
"l. c #9FCAA1",
"z. c #9CC1AE",
"x. c #ACD7A3",
"c. c #B7D4A5",
"v. c #B4DBA0",
"b. c #B8DBA7",
"n. c #BADFAE",
"m. c #AED1B1",
"M. c #C2DE91",
"N. c #C2DF9D",
"B. c #C5E197",
"V. c #C0E19F",
"C. c #CBE4A5",
"Z. c #D3E9AD",
"A. c #C4E4B5",
"S. c #CEE8BB",
"D. c #D3E9B4",
"F. c #D5EABB",
"G. c #D1ECC1",
"H. c #DFF0D8",
"J. c #E1F1C9",
"K. c #ECF7DD",
/* pixels */
" . . . . . . . . . . . . . . . . . . . . . . . . . . . . . . . . . . . . . . . . . . . . . . . . . .",
" . . . . . . . . . . . . . . . . . . . . . . . . . . . . . . . . . . . . . . . . . . . . . . . . . .",
" . . . . . . . . . . . . . . . . . . . . . . . . . . . . . . . . . . . . . . . . . . . . . . . . . .",
" . . . . . . . . . . . . . . . . . . . . . . . . . . . . . . . . . . . . . . . . . . . . . . . . . .",
" . . . . . . . . . . . . . . . . . . . . . . . . . . . . . . . . . . . . . . . . . . . . . . . . . .",
" . . . . . . . . . . . . . . . . . . . . . . . . . . . . . . . . . . . . . . . . . . . . . . . . . .",
" . . . . . . . . . . . . . . . . . . . . . . . . . . . . . . . . . . . . . . . . . . . . . . . . . .",
" . . . . . . . . . . . . . . . . . . . . . . . . . . . . . . . . . . . . . . . . . . . . . . . . . .",
" . . . . . . . . . . . . . . . . . . . . . . . . . . . . . . . . . . . . . . . . . . . . . . . . . .",
" . . . . . . . . . . . . . . . . . . . . . . . . . . . . . . . . . . . . . . . . . . . . . . . . . .",
" . . . . . . . . . . . . . . . . . . .X. .$.8.z.T ( h.B &. . . . . . . . . . . . . . . . . . . . . .",
" . . . . . . . . . . . . . . . . . .:.' i K P R _ C.p.J Y -. . . . . . . . . . . . . . . . . . . . .",
" . . . . . . . . . . . . . . . .O.n ` Q 5 a.g.t 5 S.Y } B.F y.2 h :.@. . . . . . . . . . . . . . . .",
" . . . . . . . . . . . . . . .=.q.L v.B t t ! V t , < 0 i.J J H i J.' 5. . . . . . . . . . . . . . .",
" . . . . . . . . . . . . .X.3._ v.3 w.9 , 7 0 , t V d.d.< 9 B q J p.} c.X. . . . . . . . . . . . . .",
" . . . . . . . . . . . . .8.^ d , , g w , G J S y # : A 6 ; s < P U _ F.j  . . . . . . . . . . . . .",
" . . . . . . . . . . . .1.V < y q < < D A 0 y b : 1 r H J - o > s , y 0 | 4. . . . . . . . . . . . .",
" . . . . . . . . . . .X.l.G.B.Q q < A y X . 4 r 4 & - & 8 r 1 2 H.w , < R 9. . . . . . . . . . . . .",
" . . . . . . . . . . .#.6 H j.g.J J # X y G 6 G J J J F = $ * 1 x w.9 3 e.r. . . . . . . . . . . . .",
" . . . . . . . . . . .M V ~ ( V = X X , * + o 8 : S 4 0 . - $ : X , < w.S.m. . . . . . . . . . . . .",
" . . . . . . . . . .o.C.0 { y % . 1 : O . . . $ J F 0 8 X $ - + $ < , 3 b.d.+. . . . . . . . . . . .",
" . . . . . . . . . .@.Z c V > X , 0 . + O X O + . o G J 8 . + X X > , , , W 6. . . . . . . . . . . .",
" . . . . . . . . . .*.0 D c , = y X - : ; = o $ * : o H H X = + % ; , , , , m X. . . . . . . . . . .",
" . . . . . . . . . .$.A J < ; . r X : . # 1 V J 8 : . ; J = = - . - ; , , < y $. . . . . . . . . . .",
" . . . . . . . . . .%.0 C , % . > > %   A J J G 8 r     J b O : O X - , , x.7 j  . . . . . . . . . .",
" . . . . . . . . . .z v A , X . # ; % . 6 A @ H - C X 0 J : X ; # = % ; < 9 5 m  . . . . . . . . . .",
" . . . . . . . . . .f ! P ; X o . = $     b = H r r & C J ; - $ $ - # ; , , t k  . . . . . . . . . .",
" . . . . . . . . . .f V q , % o . 1 O   X X o ; J J 4 A 4 o > : . # = : , 5 J $. . . . . . . . . . .",
" . . . . . . . . . .j A c < , # . > ; . . % = % 8 = ; # + % # = O * 8 < 5 y N +. . . . . . . . . . .",
" . . . . . . . . . .@.i.~ c , = . - > ; . % o X     . # + + % X ; y > , S { <. . . . . . . . . . . .",
" . . . . . . . . . . .<.b.d.< , % . # , % X - > $ $ $ X # O . . V , < u.` N.-. . . . . . . . . . . .",
" . . . . . . . . . . . .u.D.0 3 ; . O > < # . O $ $ X , $   ; A 9 < / ) G j  . . . . . . . . . . . .",
" . . . . . . . . . . .@.a.J V f.y.a 3 X X + X X 1 r # . 6 6 r t 6 Z K.e.L N  . . . . . . . . . . . .",
" . . . . . . . . . . .@.J t t , t.7.1 0 . . O + $ . = 0 4 . = t C a.g f.k.0. . . . . . . . . . . . .",
" . . . . . . . . . . . .M U U 5 g w < D y 1 . O . . o - J S J J J A 5 c N .. . . . . . . . . . . . .",
" . . . . . . . . . . . .*.s.g.~ V 9 E 9 D H _ y - 0 y V 6 J Z.A V H g.0... . . . . . . . . . . . . .",
" . . . . . . . . . . . . .>.C.M._ S e < s u n.< y , t 0 3 t d.y D.} :.X. . . . . . . . . . . . . . .",
" . . . . . . . . . . . . . .l p.[ 7 Y K s ] H _ Z 6 c / c 6 A.J _ Y .. . . . . . . . . . . . . . . .",
" . . . . . . . . . . . . . . .&.I G L V.Z Q 0 C.p.G H F.9 u k.J z @. . . . . . . . . . . . . . . . .",
" . . . . . . . . . . . . . . . . .$.:.2.M H r.] ] ! { M I I M %.o. . . . . . . . . . . . . . . . . .",
" . . . . . . . . . . . . . . . . . . . . .@.,.1.p ;.;.X. . . . . . . . . . . . . . . . . . . . . . .",
" . . . . . . . . . . . . . . . . . . . . . . . . . . . . . . . . . . . . . . . . . . . . . . . . . .",
" . . . . . . . . . . . . . . . . . . . . . . . . . . . . . . . . . . . . . . . . . . . . . . . . . .",
" . . . . . . . . . . . . . . . . . . . . . . . . . . . . . . . . . . . . . . . . . . . . . . . . . .",
" . . . . . . . . . . . . . . . . . . . . . . . . . . . . . . . . . . . . . . . . . . . . . . . . . .",
" . . . . . . . . . . . . . . . . . . . . . . . . . . . . . . . . . . . . . . . . . . . . . . . . . .",
" . . . . . . . . . . . . . . . . . . . . . . . . . . . . . . . . . . . . . . . . . . . . . . . . . .",
" . . . . . . . . . . . . . . . . . . . . . . . . . . . . . . . . . . . . . . . . . . . . . . . . . .",
" . . . . . . . . . . . . . . . . . . . . . . . . . . . . . . . . . . . . . . . . . . . . . . . . . .",
" . . . . . . . . . . . . . . . . . . . . . . . . . . . . . . . . . . . . . . . . . . . . . . . . . ."
};
