/* XPM */
static char *result[] = {
/* columns rows colors chars-per-pixel */
"50 50 213 2 ",
"   c #0C0606",
".  c #0D0707",
"X  c #0F0808",
"o  c #100A0A",
"O  c #110A0A",
"+  c #120A0A",
"@  c #130C0C",
"#  c #140D0D",
"$  c #140E0E",
"%  c #171010",
"&  c #1B1313",
"*  c #1C1515",
"=  c #1D1515",
"-  c #1E1617",
";  c #1E1717",
":  c #1F1818",
">  c #201718",
",  c #201919",
"<  c #21191A",
"1  c #211B1B",
"2  c #252021",
"3  c #272223",
"4  c #262224",
"5  c #282223",
"6  c #292527",
"7  c #2A2527",
"8  c #2A2628",
"9  c #2A2729",
"0  c #29272A",
"q  c #2B272A",
"w  c #2A292B",
"e  c #292A2D",
"r  c #2B2B2E",
"t  c #2B2B2F",
"y  c #2A2C2F",
"u  c #2B2D30",
"i  c #2B2F33",
"p  c #2C2F31",
"a  c #2C3033",
"s  c #2B3034",
"d  c #2B3134",
"f  c #2B3135",
"g  c #283235",
"h  c #2C3235",
"j  c #2B3436",
"k  c #2B3437",
"l  c #2C3436",
"z  c #2B3539",
"x  c #2B3639",
"c  c #2C3438",
"v  c #2C3738",
"b  c #2C353A",
"n  c #2C373A",
"m  c #2C373B",
"M  c #2C3A3A",
"N  c #2B393E",
"B  c #2C383C",
"V  c #2C3A3C",
"C  c #2C3A3D",
"Z  c #2C383E",
"A  c #2C393E",
"S  c #2C3B3F",
"D  c #2C3E3E",
"F  c #2C3D41",
"G  c #2C3E42",
"H  c #2C3E43",
"J  c #2C3F43",
"K  c #2C3E44",
"L  c #2C3F44",
"P  c #2C4043",
"I  c #2C4143",
"U  c #2C4044",
"Y  c #2C4247",
"T  c #2C4347",
"R  c #2C4445",
"E  c #2C4545",
"W  c #2C4645",
"Q  c #2C4446",
"!  c #2C4248",
"~  c #2C4249",
"^  c #2C4349",
"/  c #2C4449",
"(  c #2C4749",
")  c #2C444B",
"_  c #2C454B",
"`  c #2C474A",
"'  c #2C474B",
"]  c #2C474C",
"[  c #2C494B",
"{  c #2C4B4A",
"}  c #2C484C",
"|  c #2C4B4D",
" . c #2C494E",
".. c #2C484F",
"X. c #2C494F",
"o. c #2C4C4E",
"O. c #2C4C4F",
"+. c #2C504E",
"@. c #2C4950",
"#. c #2C4A52",
"$. c #2C4C50",
"%. c #2C4D51",
"&. c #2C4C53",
"*. c #2C4D53",
"=. c #2C4F53",
"-. c #2C4C54",
";. c #2C4D54",
":. c #2C4F57",
">. c #2C5052",
",. c #2C5152",
"<. c #2C5053",
"1. c #2C5054",
"2. c #2C5055",
"3. c #2C5155",
"4. c #2C5355",
"5. c #2C5454",
"6. c #2C5656",
"7. c #2C5058",
"8. c #2C5158",
"9. c #2C5759",
"0. c #2C545C",
"q. c #2C565E",
"w. c #2C565F",
"e. c #2C585A",
"r. c #2C595B",
"t. c #2C585C",
"y. c #2C595C",
"u. c #2C585E",
"i. c #2C5A5E",
"p. c #2C5660",
"a. c #2C5762",
"s. c #2C5861",
"d. c #2C5B61",
"f. c #2C5962",
"g. c #2C5C60",
"h. c #2C5C61",
"j. c #2C5C63",
"k. c #2C5C68",
"l. c #2C5C6B",
"z. c #2C6062",
"x. c #2C6064",
"c. c #2C6364",
"v. c #2C6166",
"b. c #2C6367",
"n. c #2C6566",
"m. c #2C6268",
"M. c #2C626B",
"N. c #2C6468",
"B. c #2C6568",
"V. c #2C676B",
"C. c #2C666C",
"Z. c #2C676C",
"A. c #2C666D",
"S. c #2C676D",
"D. c #2C686C",
"F. c #2C6B6F",
"G. c #2C6372",
"H. c #2C6771",
"J. c #2C6773",
"K. c #2C6871",
"L. c #2C6872",
"P. c #2C6E71",
"I. c #2C6B74",
"U. c #2C6876",
"Y. c #2C6C75",
"T. c #2C6D76",
"R. c #2C6E76",
"E. c #2C6C7A",
"W. c #2C6D7A",
"Q. c #2C6C7B",
"!. c #2C6F7A",
"~. c #2C6E7B",
"^. c #2C6B7D",
"/. c #2C6C7E",
"(. c #2C6F7E",
"). c #2C6E7F",
"_. c #2C707C",
"`. c #2C6C80",
"'. c #2C6E80",
"]. c #2C6F81",
"[. c #2C6E82",
"{. c #2C6E84",
"}. c #2C7281",
"|. c #2C7184",
" X c #2C7185",
".X c #2C7284",
"XX c #2C7385",
"oX c #2C7086",
"OX c #2C7087",
"+X c #2C7287",
"@X c #2C7387",
"#X c #2C7585",
"$X c #2C7487",
"%X c #2C7388",
"&X c #2C738A",
"*X c #2C758A",
"=X c #2C738D",
"-X c #2C738F",
";X c #2C748C",
":X c #2C748E",
">X c #2C748F",
",X c #2C758F",
"<X c #2C7392",
"1X c #2C7591",
"2X c #2C7592",
"3X c #2C7593",
"4X c #2C7494",
"5X c #2C7594",
"6X c #2C7598",
"7X c #2C759A",
"8X c #2C759B",
"9X c #2C759C",
"0X c #2C759D",
/* pixels */
"0X0X0X0X0X0X0X0X0X0X0X0X0X0X0X0X0X0X0X0X0X0X0X0X0X0X0X0X0X0X0X0X0X0X0X0X0X0X0X0X0X0X0X0X0X0X0X0X0X0X",
"0X0X0X0X0X0X0X0X0X0X0X0X0X0X0X0X0X0X0X0X0X0X0X0X0X0X0X0X0X0X0X0X0X0X0X0X0X0X0X0X0X0X0X0X0X0X0X0X0X0X",
"0X0X0X0X0X0X0X0X0X0X0X0X0X0X0X0X0X0X0X0X0X0X0X0X0X0X0X0X0X0X0X0X0X0X0X0X0X0X0X0X0X0X0X0X0X0X0X0X0X0X",
"0X0X0X0X0X0X0X0X0X0X0X0X0X0X0X0X0X0X0X0X0X0X0X0X0X0X0X0X0X0X0X0X0X0X0X0X0X0X0X0X0X0X0X0X0X0X0X0X0X0X",
"0X0X0X0X0X0X0X0X0X0X0X0X0X0X0X0X0X0X0X0X0X0X0X0X0X0X0X0X0X0X0X0X0X0X0X0X0X0X0X0X0X0X0X0X0X0X0X0X0X0X",
"0X0X0X0X0X0X0X0X0X0X0X0X0X0X0X0X0X0X0X0X0X0X0X0X0X0X0X0X0X0X0X0X0X0X0X0X0X0X0X0X0X0X0X0X0X0X0X0X0X0X",
"0X0X0X0X0X0X0X0X0X0X0X0X0X0X0X0X0X0X0X0X0X0X0X0X0X0X0X0X0X0X0X0X0X0X0X0X0X0X0X0X0X0X0X0X0X0X0X0X0X0X",
"0X0X0X0X0X0X0X0X0X0X0X0X0X0X0X0X0X0X0X0X0X0X0X0X0X0X0X0X0X0X0X0X0X0X0X0X0X0X0X0X0X0X0X0X0X0X0X0X0X0X",
"0X0X0X0X0X0X0X0X0X0X0X0X0X0X0X0X0X0X0X0X0X0X0X0X0X0X0X0X0X0X0X0X0X0X0X0X0X0X0X0X0X0X0X0X0X0X0X0X0X0X",
"0X0X0X0X0X0X0X0X0X0X0X0X0X0X0X0X0X0X0X0X0X0X0X0X0X0X0X0X0X0X0X0X0X0X0X0X0X0X0X0X0X0X0X0X0X0X0X0X0X0X",
"0X0X0X0X0X0X0X0X0X0X0X0X0X0X0X0X0X0X0X0X0X0X0X0X0X0X0X0X0X0X0X0X0X0X0X0X0X0X0X0X0X0X0X0X0X0X0X0X0X0X",
"0X0X0X0X0X0X0X0X0X0X0X0X0X0X0X0X0X0X0X0X0X0X0X0X0X0X0X0X0X0X0X0X0X0X0X0X0X0X0X0X0X0X0X0X0X0X0X0X0X0X",
"0X0X0X0X0X0X0X0X0X0X0X0X0X0X0X0X0X0X0X0X0X0X0X0X0X0X0X0X0X0X0X0X0X0X0X0X0X0X0X0X0X0X0X0X0X0X0X0X0X0X",
"0X0X0X0X0X0X0X0X0X0X0X0X0X0X0X0X0X0X0X0X0X0X0X0X0X0X0X0X0X0X0X0X0X0X0X0X0X0X0X0X0X0X0X0X0X0X0X0X0X0X",
"0X0X0X0X0X0X0X0X0X0X0X0X0X0X0X0X0X0X0X0X0X0X0X0X0X0X0X0X0X0X0X0X0X0X0X0X0X0X0X0X0X0X0X0X0X0X0X0X0X0X",
"0X0X0X0X0X0X0X0X0X0X0X0X0X0X0X0X0X0X0X0X0X0X0X0X0X0X0X0X0X0X0X0X0X0X0X0X0X0X0X0X0X0X0X0X0X0X0X0X0X0X",
"0X0X0X0X0X0X0X0X0X0X0X0X0X0X0X0X0X0X0X0X0X0X0X0X0X0X0X0X0X0X0X0X0X0X0X0X0X0X0X0X0X0X0X0X0X0X0X0X0X0X",
"0X0X0X0X0X0X0X0X0X0X0X0X0X0X0X0X0X0X0X0X0X0X0X9X9X8X0X0X0X0X0X0X0X0X0X0X0X0X0X0X0X0X0X0X0X0X0X0X0X0X",
"0X0X0X0X0X0X0X0X0X0X0X0X0X0X0X0X0X0X0X0X5X%X}..X X_.~.L.;X6X6X0X0X0X0X0X0X0X0X0X0X0X0X0X0X0X0X0X0X0X",
"0X0X0X0X0X0X0X0X0X0X0X0X0X0X0X0X0X0X6X#XI.b.t.<.o.` ( Q q.B.P.*X8X0X0X0X0X0X0X0X0X0X0X0X0X0X0X0X0X0X",
"0X0X0X0X0X0X0X0X0X0X0X0X0X0X0X0X0X9X>X$XM.$.:.T S n k x / *.y.C.XX8X0X0X0X0X0X0X0X0X0X0X0X0X0X0X0X0X",
"0X0X0X0X0X0X0X0X0X0X0X0X0X0X0X0X0X7X@X).{.^ ) A a h b e c B ' 3.S.;X0X0X0X0X0X0X0X0X0X0X0X0X0X0X0X0X",
"0X0X0X0X0X0X0X0X0X0X0X0X0X0X0X0X0X&Xx.l.-Xa.N u 6 4 r q u U J ' m.N.0X0X0X0X0X0X0X0X0X0X0X0X0X0X0X0X",
"0X0X0X0X0X0X0X0X0X0X0X0X0X0X0X0X0XE.,.w.G...0 - @ O = 7 3 c s.] i.c.0X0X0X0X0X0X0X0X0X0X0X0X0X0X0X0X",
"0X0X0X0X0X0X0X0X0X0X0X0X0X0X0X0X0X`.%.] -.S 1 +     X < 9 m /.U.A.N.0X0X0X0X0X0X0X0X0X0X0X0X0X0X0X0X",
"0X0X0X0X0X0X0X0X0X0X0X0X0X0X0X0X0X<X| P ! y & o     . * 2 #.OXQ.H.Y.0X0X0X0X0X0X0X0X0X0X0X0X0X0X0X0X",
"0X0X0X0X0X0X0X0X0X0X0X0X0X0X0X0X0X(.g.O._ p > $ .   O ; s f.k.8.^.:X0X0X0X0X0X0X0X0X0X0X0X0X0X0X0X0X",
"0X0X0X0X0X0X0X0X0X0X0X0X0X0X0X0X0XR.u.T ;.z 5 , % # : g 7.&.~ p.'.2X0X0X0X0X0X0X0X0X0X0X0X0X0X0X0X0X",
"0X0X0X0X0X0X0X0X0X0X0X0X0X0X0X0X0Xz.o.V H L d t 8 w f L @.X.C j.[.6X0X0X0X0X0X0X0X0X0X0X0X0X0X0X0X0X",
"0X0X0X0X0X0X0X0X0X0X0X0X0X0X0X0X0XJ.W D } 0.T Z i F K Y l 8.=.h.=X7X0X0X0X0X0X0X0X0X0X0X0X0X0X0X0X0X",
"0X0X0X0X0X0X0X0X0X0X0X0X0X0X0X0X0X4XZ.r.>.1.' 2. .j C G v $.9.V.1X8X0X0X0X0X0X0X0X0X0X0X0X0X0X0X0X0X",
"0X0X0X0X0X0X0X0X0X0X0X0X0X0X0X0X0X0X6X|.T.v.H.d.e.[ I R M E 5.F.5X0X0X0X0X0X0X0X0X0X0X0X0X0X0X0X0X0X",
"0X0X0X0X0X0X0X0X0X0X0X0X0X0X0X0X0X0X0X0X8X,X3X!.K.n.+.{ 4.6.D.1X9X0X0X0X0X0X0X0X0X0X0X0X0X0X0X0X0X0X",
"0X0X0X0X0X0X0X0X0X0X0X0X0X0X0X0X0X0X0X0X0X0X9X8X6X2X+XW.].oX<X9X0X0X0X0X0X0X0X0X0X0X0X0X0X0X0X0X0X0X",
"0X0X0X0X0X0X0X0X0X0X0X0X0X0X0X0X0X0X0X0X0X0X0X0X0X0X0X0X0X0X0X0X0X0X0X0X0X0X0X0X0X0X0X0X0X0X0X0X0X0X",
"0X0X0X0X0X0X0X0X0X0X0X0X0X0X0X0X0X0X0X0X0X0X0X0X0X0X0X0X0X0X0X0X0X0X0X0X0X0X0X0X0X0X0X0X0X0X0X0X0X0X",
"0X0X0X0X0X0X0X0X0X0X0X0X0X0X0X0X0X0X0X0X0X0X0X0X0X0X0X0X0X0X0X0X0X0X0X0X0X0X0X0X0X0X0X0X0X0X0X0X0X0X",
"0X0X0X0X0X0X0X0X0X0X0X0X0X0X0X0X0X0X0X0X0X0X0X0X0X0X0X0X0X0X0X0X0X0X0X0X0X0X0X0X0X0X0X0X0X0X0X0X0X0X",
"0X0X0X0X0X0X0X0X0X0X0X0X0X0X0X0X0X0X0X0X0X0X0X0X0X0X0X0X0X0X0X0X0X0X0X0X0X0X0X0X0X0X0X0X0X0X0X0X0X0X",
"0X0X0X0X0X0X0X0X0X0X0X0X0X0X0X0X0X0X0X0X0X0X0X0X0X0X0X0X0X0X0X0X0X0X0X0X0X0X0X0X0X0X0X0X0X0X0X0X0X0X",
"0X0X0X0X0X0X0X0X0X0X0X0X0X0X0X0X0X0X0X0X0X0X0X0X0X0X0X0X0X0X0X0X0X0X0X0X0X0X0X0X0X0X0X0X0X0X0X0X0X0X",
"0X0X0X0X0X0X0X0X0X0X0X0X0X0X0X0X0X0X0X0X0X0X0X0X0X0X0X0X0X0X0X0X0X0X0X0X0X0X0X0X0X0X0X0X0X0X0X0X0X0X",
"0X0X0X0X0X0X0X0X0X0X0X0X0X0X0X0X0X0X0X0X0X0X0X0X0X0X0X0X0X0X0X0X0X0X0X0X0X0X0X0X0X0X0X0X0X0X0X0X0X0X",
"0X0X0X0X0X0X0X0X0X0X0X0X0X0X0X0X0X0X0X0X0X0X0X0X0X0X0X0X0X0X0X0X0X0X0X0X0X0X0X0X0X0X0X0X0X0X0X0X0X0X",
"0X0X0X0X0X0X0X0X0X0X0X0X0X0X0X0X0X0X0X0X0X0X0X0X0X0X0X0X0X0X0X0X0X0X0X0X0X0X0X0X0X0X0X0X0X0X0X0X0X0X",
"0X0X0X0X0X0X0X0X0X0X0X0X0X0X0X0X0X0X0X0X0X0X0X0X0X0X0X0X0X0X0X0X0X0X0X0X0X0X0X0X0X0X0X0X0X0X0X0X0X0X",
"0X0X0X0X0X0X0X0X0X0X0X0X0X0X0X0X0X0X0X0X0X0X0X0X0X0X0X0X0X0X0X0X0X0X0X0X0X0X0X0X0X0X0X0X0X0X0X0X0X0X",
"0X0X0X0X0X0X0X0X0X0X0X0X0X0X0X0X0X0X0X0X0X0X0X0X0X0X0X0X0X0X0X0X0X0X0X0X0X0X0X0X0X0X0X0X0X0X0X0X0X0X",
"0X0X0X0X0X0X0X0X0X0X0X0X0X0X0X0X0X0X0X0X0X0X0X0X0X0X0X0X0X0X0X0X0X0X0X0X0X0X0X0X0X0X0X0X0X0X0X0X0X0X",
"0X0X0X0X0X0X0X0X0X0X0X0X0X0X0X0X0X0X0X0X0X0X0X0X0X0X0X0X0X0X0X0X0X0X0X0X0X0X0X0X0X0X0X0X0X0X0X0X0X0X"
};
