/* XPM */
static char *result[] = {
/* columns rows colors chars-per-pixel */
"50 50 163 2 ",
"   c #259245",
".  c #2B9443",
"X  c #2B9445",
"o  c #2E9847",
"O  c #329947",
"+  c #339A47",
"@  c #359A47",
"#  c #359B47",
"$  c #369A46",
"%  c #309948",
"&  c #309949",
"*  c #339B48",
"=  c #359A48",
"-  c #379D49",
";  c #379D4A",
":  c #399D48",
">  c #3B9D48",
",  c #3A9C49",
"<  c #3B9E48",
"1  c #3A9E49",
"2  c #3B9E4A",
"3  c #3F9D49",
"4  c #3C9D4A",
"5  c #3BA049",
"6  c #3DA048",
"7  c #3CA049",
"8  c #409F49",
"9  c #419F4A",
"0  c #449F49",
"q  c #44A24A",
"w  c #45A24A",
"e  c #45A54B",
"r  c #40A04C",
"t  c #45A44D",
"y  c #46A44C",
"u  c #48A34B",
"i  c #4AA74A",
"p  c #4BA74A",
"a  c #49A54D",
"s  c #4BA74C",
"d  c #4FA84B",
"f  c #4DA84E",
"g  c #51AB4A",
"h  c #55AB4B",
"j  c #51AB4D",
"k  c #57AA4D",
"l  c #59AF4C",
"z  c #5BAC4F",
"x  c #5FAD4D",
"c  c #5CAD4F",
"v  c #5EAD4E",
"b  c #63B34D",
"n  c #61B14E",
"m  c #62B04E",
"M  c #65B04F",
"N  c #77BA4F",
"B  c #60AF50",
"V  c #65B150",
"C  c #66B252",
"Z  c #66B450",
"A  c #62B256",
"S  c #6AB350",
"D  c #68B452",
"F  c #68B657",
"G  c #6BB857",
"H  c #65B55E",
"J  c #69B35D",
"K  c #6FB859",
"L  c #72B752",
"P  c #74BB57",
"I  c #77BA56",
"U  c #7CBA52",
"Y  c #7DBC52",
"T  c #7FBF57",
"R  c #79BE5A",
"E  c #599D77",
"W  c #5B997F",
"Q  c #6FB961",
"!  c #6EB56D",
"~  c #70BA64",
"^  c #7BBD63",
"/  c #77BD69",
"(  c #6BA37C",
")  c #7FB17D",
"_  c #7FC164",
"`  c #81BF56",
"'  c #80BF57",
"]  c #86BF55",
"[  c #83BE6F",
"{  c #89BC70",
"}  c #90BD77",
"|  c #90BE7C",
" . c #82C053",
".. c #80C055",
"X. c #85C156",
"o. c #84C257",
"O. c #8AC256",
"+. c #84C059",
"@. c #80C05D",
"#. c #85C25D",
"$. c #84C15F",
"%. c #88C358",
"&. c #8CC55C",
"*. c #89C464",
"=. c #8DC664",
"-. c #8CC666",
";. c #85C468",
":. c #92C564",
">. c #90C56A",
",. c #90C76A",
"<. c #9BCB6B",
"1. c #9BCD6F",
"2. c #8AC672",
"3. c #8CC675",
"4. c #86C47F",
"5. c #92CA70",
"6. c #95CB76",
"7. c #9FCC70",
"8. c #98CC75",
"9. c #9BCC76",
"0. c #A3CF6C",
"q. c #A4CE7A",
"w. c #A3D177",
"e. c #A3D17B",
"r. c #2C759D",
"t. c #2E769C",
"y. c #30779B",
"u. c #33799A",
"i. c #32799B",
"p. c #347B98",
"a. c #347C98",
"s. c #377C98",
"d. c #337A9C",
"f. c #3E8294",
"g. c #3E8295",
"h. c #3D819B",
"j. c #448A89",
"k. c #4B9180",
"l. c #589780",
"z. c #589583",
"x. c #50908A",
"c. c #57958B",
"v. c #5A9689",
"b. c #5B988F",
"n. c #428496",
"m. c #4D8D97",
"M. c #649F83",
"N. c #69A581",
"B. c #70A980",
"V. c #7CAF86",
"C. c #71A988",
"Z. c #7AAC88",
"A. c #7AB084",
"S. c #7CB084",
"D. c #73A690",
"F. c #6099A1",
"G. c #82B785",
"H. c #8FC188",
"J. c #A0D58D",
"K. c #AACE93",
"L. c #A5CC99",
"P. c #BDDE9A",
"I. c #9CC6AA",
/* pixels */
"r.r.r.r.r.r.r.r.r.r.r.r.r.r.r.r.r.r.r.r.r.r.r.r.r.r.r.r.r.r.r.r.r.r.r.r.r.r.r.r.r.r.r.r.r.r.r.r.r.r.",
"r.r.r.r.r.r.r.r.r.r.r.r.r.r.r.r.r.r.r.r.r.r.r.r.r.r.r.r.r.r.r.r.r.r.r.r.r.r.r.r.r.r.r.r.r.r.r.r.r.r.",
"r.r.r.r.r.r.r.r.r.r.r.r.r.r.r.r.r.r.r.r.r.r.r.r.r.r.r.r.r.r.r.r.r.r.r.r.r.r.r.r.r.r.r.r.r.r.r.r.r.r.",
"r.r.r.r.r.r.r.r.r.r.r.r.r.r.r.r.r.r.r.r.r.r.r.r.r.r.r.r.r.r.r.r.r.r.r.r.r.r.r.r.r.r.r.r.r.r.r.r.r.r.",
"r.r.r.r.r.r.r.r.r.r.r.r.r.r.r.r.r.r.r.r.r.r.r.r.r.r.r.r.r.r.r.r.r.r.r.r.r.r.r.r.r.r.r.r.r.r.r.r.r.r.",
"r.r.r.r.r.r.r.r.r.r.r.r.r.r.r.r.r.r.r.r.r.r.r.r.r.r.r.r.r.r.r.r.r.r.r.r.r.r.r.r.r.r.r.r.r.r.r.r.r.r.",
"r.r.r.r.r.r.r.r.r.r.r.r.r.r.r.r.r.r.r.r.r.r.r.r.r.r.r.r.r.r.r.r.r.r.r.r.r.r.r.r.r.r.r.r.r.r.r.r.r.r.",
"r.r.r.r.r.r.r.r.r.r.r.r.r.r.r.r.r.r.r.r.r.r.r.r.r.r.r.r.r.r.r.r.r.r.r.r.r.r.r.r.r.r.r.r.r.r.r.r.r.r.",
"r.r.r.r.r.r.r.r.r.r.r.r.r.r.r.r.r.r.r.r.r.r.r.r.r.r.r.r.r.r.r.r.r.r.r.r.r.r.r.r.r.r.r.r.r.r.r.r.r.r.",
"r.r.r.r.r.r.r.r.r.r.r.r.r.r.r.r.r.r.r.r.r.r.r.r.r.r.r.r.r.r.r.r.r.r.r.r.r.r.r.r.r.r.r.r.r.r.r.r.r.r.",
"r.r.r.r.r.r.r.r.r.r.r.r.r.r.r.r.r.r.r.r.r.r.r.r.r.r.r.r.r.r.r.r.r.r.r.r.r.r.r.r.r.r.r.r.r.r.r.r.r.r.",
"r.r.r.r.r.r.r.r.r.r.r.r.r.r.r.r.r.r.r.r.r.r.r.r.r.r.r.r.r.r.r.r.r.r.r.r.r.r.r.r.r.r.r.r.r.r.r.r.r.r.",
"r.r.r.r.r.r.r.r.r.r.r.r.r.r.r.r.r.r.r.r.r.r.r.r.r.r.r.r.r.r.r.r.r.r.r.r.r.r.r.r.r.r.r.r.r.r.r.r.r.r.",
"r.r.r.r.r.r.r.r.r.r.r.r.r.r.r.r.r.r.r.r.r.r.r.r.r.r.r.r.r.r.r.r.r.r.r.r.r.r.r.r.r.r.r.r.r.r.r.r.r.r.",
"r.r.r.r.r.r.r.r.r.r.r.r.r.r.r.r.r.r.r.r.r.r.r.r.r.r.r.r.r.r.r.r.r.r.r.r.r.r.r.r.r.r.r.r.r.r.r.r.r.r.",
"r.r.r.r.r.r.r.r.r.r.r.r.r.r.r.r.r.r.r.r.r.r.r.r.r.r.r.r.r.r.r.r.r.r.r.r.r.r.r.r.r.r.r.r.r.r.r.r.r.r.",
"r.r.r.r.r.r.r.r.r.r.r.r.r.r.r.r.r.r.r.r.r.r.r.r.r.r.r.r.r.r.r.r.r.r.r.r.r.r.r.r.r.r.r.r.r.r.r.r.r.r.",
"r.r.r.r.r.r.r.r.r.r.r.r.r.r.r.r.r.r.r.r.r.r.r.r.r.r.r.r.r.r.r.r.r.r.r.r.r.r.r.r.r.r.r.r.r.r.r.r.r.r.",
"r.r.r.r.r.r.r.r.r.r.r.r.r.r.r.r.r.r.r.r.r.t.c.N.| K.( r.r.r.r.r.r.r.r.r.r.r.r.r.r.r.r.r.r.r.r.r.r.r.",
"r.r.r.r.r.r.r.r.r.r.r.r.r.r.r.r.r.r.r.r.p.A.2.5.N 3.w.>.H.F.r.r.r.r.r.r.r.r.r.r.r.r.r.r.r.r.r.r.r.r.",
"r.r.r.r.r.r.r.r.r.r.r.r.r.r.r.r.r.r.r.f.[ F Q  .%.^ P H +.q.h.r.r.r.r.r.r.r.r.r.r.r.r.r.r.r.r.r.r.r.",
"r.r.r.r.r.r.r.r.r.r.r.r.r.r.r.r.r.r.r.G.9.I v z L D M f 4.n V.r.r.r.r.r.r.r.r.r.r.r.r.r.r.r.r.r.r.r.",
"r.r.r.r.r.r.r.r.r.r.r.r.r.r.r.r.r.r.n.1.@.a = X x ` 8 w j / I.r.r.r.r.r.r.r.r.r.r.r.r.r.r.r.r.r.r.r.",
"r.r.r.r.r.r.r.r.r.r.r.r.r.r.r.r.r.r.j.o.i k e * $ B T % > l J a.r.r.r.r.r.r.r.r.r.r.r.r.r.r.r.r.r.r.",
"r.r.r.r.r.r.r.r.r.r.r.r.r.r.r.r.r.r.k...@ d = O.U 3 X.t O g ~ l.r.r.r.r.r.r.r.r.r.r.r.r.r.r.r.r.r.r.",
"r.r.r.r.r.r.r.r.r.r.r.r.r.r.r.r.r.r.E ;.o :   u ' V ] e 2 q b W r.r.r.r.r.r.r.r.r.r.r.r.r.r.r.r.r.r.",
"r.r.r.r.r.r.r.r.r.r.r.r.r.r.r.r.r.r.b.-.p 6 1 ; y , - < 9 h &.g.r.r.r.r.r.r.r.r.r.r.r.r.r.r.r.r.r.r.",
"r.r.r.r.r.r.r.r.r.r.r.r.r.r.r.r.r.r.i.L.G + s # 7 5 . 0 m 6.) r.r.r.r.r.r.r.r.r.r.r.r.r.r.r.r.r.r.r.",
"r.r.r.r.r.r.r.r.r.r.r.r.r.r.r.r.r.r.r.{ R ! c & 4 r C S =.J.Z.r.r.r.r.r.r.r.r.r.r.r.r.r.r.r.r.r.r.r.",
"r.r.r.r.r.r.r.r.r.r.r.r.r.r.r.r.r.r.r.v.P.#.K ,.A Z Y <.0.B.d.r.r.r.r.r.r.r.r.r.r.r.r.r.r.r.r.r.r.r.",
"r.r.r.r.r.r.r.r.r.r.r.r.r.r.r.r.r.r.r.r.D.:.*.8.7.$._ e.} y.r.r.r.r.r.r.r.r.r.r.r.r.r.r.r.r.r.r.r.r.",
"r.r.r.r.r.r.r.r.r.r.r.r.r.r.r.r.r.r.r.r.r.s.m.M.S.C.z.x.u.r.r.r.r.r.r.r.r.r.r.r.r.r.r.r.r.r.r.r.r.r.",
"r.r.r.r.r.r.r.r.r.r.r.r.r.r.r.r.r.r.r.r.r.r.r.r.r.r.r.r.r.r.r.r.r.r.r.r.r.r.r.r.r.r.r.r.r.r.r.r.r.r.",
"r.r.r.r.r.r.r.r.r.r.r.r.r.r.r.r.r.r.r.r.r.r.r.r.r.r.r.r.r.r.r.r.r.r.r.r.r.r.r.r.r.r.r.r.r.r.r.r.r.r.",
"r.r.r.r.r.r.r.r.r.r.r.r.r.r.r.r.r.r.r.r.r.r.r.r.r.r.r.r.r.r.r.r.r.r.r.r.r.r.r.r.r.r.r.r.r.r.r.r.r.r.",
"r.r.r.r.r.r.r.r.r.r.r.r.r.r.r.r.r.r.r.r.r.r.r.r.r.r.r.r.r.r.r.r.r.r.r.r.r.r.r.r.r.r.r.r.r.r.r.r.r.r.",
"r.r.r.r.r.r.r.r.r.r.r.r.r.r.r.r.r.r.r.r.r.r.r.r.r.r.r.r.r.r.r.r.r.r.r.r.r.r.r.r.r.r.r.r.r.r.r.r.r.r.",
"r.r.r.r.r.r.r.r.r.r.r.r.r.r.r.r.r.r.r.r.r.r.r.r.r.r.r.r.r.r.r.r.r.r.r.r.r.r.r.r.r.r.r.r.r.r.r.r.r.r.",
"r.r.r.r.r.r.r.r.r.r.r.r.r.r.r.r.r.r.r.r.r.r.r.r.r.r.r.r.r.r.r.r.r.r.r.r.r.r.r.r.r.r.r.r.r.r.r.r.r.r.",
"r.r.r.r.r.r.r.r.r.r.r.r.r.r.r.r.r.r.r.r.r.r.r.r.r.r.r.r.r.r.r.r.r.r.r.r.r.r.r.r.r.r.r.r.r.r.r.r.r.r.",
"r.r.r.r.r.r.r.r.r.r.r.r.r.r.r.r.r.r.r.r.r.r.r.r.r.r.r.r.r.r.r.r.r.r.r.r.r.r.r.r.r.r.r.r.r.r.r.r.r.r.",
"r.r.r.r.r.r.r.r.r.r.r.r.r.r.r.r.r.r.r.r.r.r.r.r.r.r.r.r.r.r.r.r.r.r.r.r.r.r.r.r.r.r.r.r.r.r.r.r.r.r.",
"r.r.r.r.r.r.r.r.r.r.r.r.r.r.r.r.r.r.r.r.r.r.r.r.r.r.r.r.r.r.r.r.r.r.r.r.r.r.r.r.r.r.r.r.r.r.r.r.r.r.",
"r.r.r.r.r.r.r.r.r.r.r.r.r.r.r.r.r.r.r.r.r.r.r.r.r.r.r.r.r.r.r.r.r.r.r.r.r.r.r.r.r.r.r.r.r.r.r.r.r.r.",
"r.r.r.r.r.r.r.r.r.r.r.r.r.r.r.r.r.r.r.r.r.r.r.r.r.r.r.r.r.r.r.r.r.r.r.r.r.r.r.r.r.r.r.r.r.r.r.r.r.r.",
"r.r.r.r.r.r.r.r.r.r.r.r.r.r.r.r.r.r.r.r.r.r.r.r.r.r.r.r.r.r.r.r.r.r.r.r.r.r.r.r.r.r.r.r.r.r.r.r.r.r.",
"r.r.r.r.r.r.r.r.r.r.r.r.r.r.r.r.r.r.r.r.r.r.r.r.r.r.r.r.r.r.r.r.r.r.r.r.r.r.r.r.r.r.r.r.r.r.r.r.r.r.",
"r.r.r.r.r.r.r.r.r.r.r.r.r.r.r.r.r.r.r.r.r.r.r.r.r.r.r.r.r.r.r.r.r.r.r.r.r.r.r.r.r.r.r.r.r.r.r.r.r.r.",
"r.r.r.r.r.r.r.r.r.r.r.r.r.r.r.r.r.r.r.r.r.r.r.r.r.r.r.r.r.r.r.r.r.r.r.r.r.r.r.r.r.r.r.r.r.r.r.r.r.r.",
"r.r.r.r.r.r.r.r.r.r.r.r.r.r.r.r.r.r.r.r.r.r.r.r.r.r.r.r.r.r.r.r.r.r.r.r.r.r.r.r.r.r.r.r.r.r.r.r.r.r."
};
